<svg xmlns="http://www.w3.org/2000/svg" xmlns:xlink="http://www.w3.org/1999/xlink" viewBox="0 0 417.26 276.56"><defs><style>.cls-1{fill:none;}.cls-2{fill:#f8f8f8;}.cls-3{fill:url(#linear-gradient);}.cls-4{clip-path:url(#clip-path);}.cls-5{fill:url(#linear-gradient-2);}.cls-6{fill:url(#linear-gradient-3);}.cls-7{fill:url(#linear-gradient-4);}.cls-8{fill:url(#linear-gradient-5);}.cls-9{fill:url(#linear-gradient-6);}.cls-10{fill:url(#linear-gradient-7);}.cls-11{fill:url(#linear-gradient-8);}.cls-12{fill:url(#linear-gradient-9);}.cls-13{fill:url(#linear-gradient-10);}.cls-14{fill:url(#linear-gradient-11);}.cls-15{fill:url(#linear-gradient-12);}.cls-16{fill:url(#linear-gradient-13);}.cls-17{fill:url(#linear-gradient-14);}.cls-18{fill:url(#linear-gradient-15);}.cls-19{fill:url(#linear-gradient-16);}.cls-20{fill:url(#linear-gradient-17);}.cls-21{fill:url(#linear-gradient-18);}.cls-22{fill:url(#linear-gradient-19);}.cls-23{fill:url(#linear-gradient-20);}.cls-24{fill:url(#linear-gradient-21);}.cls-25{fill:url(#linear-gradient-22);}.cls-26{fill:url(#linear-gradient-23);}.cls-27{fill:url(#linear-gradient-24);}.cls-28{fill:url(#linear-gradient-25);}.cls-29{fill:url(#linear-gradient-26);}.cls-30{fill:url(#linear-gradient-27);}.cls-31{fill:url(#linear-gradient-28);}.cls-32{fill:url(#linear-gradient-29);}.cls-33{fill:url(#linear-gradient-30);}.cls-34{fill:url(#linear-gradient-31);}.cls-35{fill:url(#linear-gradient-32);}.cls-36{fill:url(#linear-gradient-33);}.cls-37{fill:url(#linear-gradient-34);}.cls-38{fill:url(#linear-gradient-35);}.cls-39{fill:url(#linear-gradient-36);}.cls-40{fill:url(#linear-gradient-37);}.cls-41{fill:url(#linear-gradient-38);}.cls-42{fill:url(#linear-gradient-39);}.cls-43{fill:url(#linear-gradient-40);}.cls-44{fill:url(#linear-gradient-41);}.cls-45{fill:url(#linear-gradient-42);}.cls-46{fill:url(#linear-gradient-43);}.cls-47{clip-path:url(#clip-path-2);}.cls-48{fill:#ee4a14;}.cls-49{fill:#ee4b14;}.cls-50{fill:#ee4c14;}.cls-51{fill:#ee4d14;}.cls-52{fill:#ee4e13;}.cls-53{fill:#ee4f13;}.cls-54{fill:#ef5013;}.cls-55{fill:#ef5113;}.cls-56{fill:#ef5213;}.cls-57{fill:#ef5313;}.cls-58{fill:#ec4115;}.cls-59{fill:#ec4215;}.cls-60{fill:#ec4315;}.cls-61{fill:#ed4415;}.cls-62{fill:#ed4515;}.cls-63{fill:#ed4614;}.cls-64{fill:#ed4714;}.cls-65{fill:#ed4814;}.cls-66{fill:#ed4914;}.cls-67{fill:#ef5413;}.cls-68{fill:#f05613;}.cls-69{fill:#f05712;}.cls-70{fill:#f05812;}.cls-71{fill:#f05912;}.cls-72{fill:#f05a12;}.cls-73{fill:#f05b12;}.cls-74{fill:#f15c12;}.cls-75{fill:#f15d12;}.cls-76{fill:#f15e12;}.cls-77{fill:#f15f11;}.cls-78{fill:#f16011;}.cls-79{fill:#f16111;}.cls-80{fill:#f26211;}.cls-81{fill:#f26311;}.cls-82{fill:#f26411;}.cls-83{fill:#f26511;}.cls-84{fill:#f26611;}.cls-85{fill:#f26710;}.cls-86{fill:#f36810;}.cls-87{fill:#f36910;}.cls-88{fill:#f36a10;}.cls-89{fill:url(#linear-gradient-44);}.cls-90{fill:url(#linear-gradient-45);}.cls-91{clip-path:url(#clip-path-3);}.cls-92{fill:url(#linear-gradient-46);}.cls-93{fill:url(#linear-gradient-47);}.cls-94{fill:url(#linear-gradient-48);}.cls-95{fill:url(#linear-gradient-49);}.cls-96{fill:url(#linear-gradient-50);}.cls-97{fill:url(#linear-gradient-51);}.cls-98{fill:url(#linear-gradient-52);}.cls-99{fill:url(#linear-gradient-53);}.cls-100{fill:url(#linear-gradient-54);}.cls-101{fill:url(#linear-gradient-55);}.cls-102{fill:url(#linear-gradient-56);}.cls-103{fill:url(#linear-gradient-57);}.cls-104{fill:url(#linear-gradient-58);}.cls-105{fill:url(#linear-gradient-59);}.cls-106{fill:url(#linear-gradient-60);}.cls-107{fill:url(#linear-gradient-61);}.cls-108{fill:url(#linear-gradient-62);}.cls-109{fill:url(#linear-gradient-63);}.cls-110{fill:url(#linear-gradient-64);}.cls-111{fill:url(#linear-gradient-65);}.cls-112{fill:url(#linear-gradient-66);}.cls-113{fill:url(#linear-gradient-67);}.cls-114{fill:url(#linear-gradient-68);}.cls-115{fill:url(#linear-gradient-69);}.cls-116{fill:url(#linear-gradient-70);}.cls-117{fill:url(#linear-gradient-71);}.cls-118{fill:url(#linear-gradient-72);}.cls-119{fill:url(#linear-gradient-73);}.cls-120{fill:url(#linear-gradient-74);}.cls-121{fill:url(#linear-gradient-75);}.cls-122{fill:url(#linear-gradient-76);}.cls-123{fill:url(#linear-gradient-77);}.cls-124{fill:url(#linear-gradient-78);}.cls-125{fill:url(#linear-gradient-79);}.cls-126{fill:url(#linear-gradient-80);}.cls-127{fill:url(#linear-gradient-81);}.cls-128{fill:url(#linear-gradient-82);}.cls-129{fill:url(#linear-gradient-83);}.cls-130{fill:url(#linear-gradient-84);}.cls-131{fill:url(#linear-gradient-85);}.cls-132{fill:url(#linear-gradient-86);}.cls-133{fill:url(#linear-gradient-87);}.cls-134{fill:url(#linear-gradient-88);}.cls-135{fill:url(#linear-gradient-89);}.cls-136{clip-path:url(#clip-path-4);}.cls-137{fill:url(#linear-gradient-90);}.cls-138{fill:#4d4d4d;}.cls-139{fill:url(#linear-gradient-91);}.cls-140{fill:url(#linear-gradient-92);}.cls-141{fill:url(#linear-gradient-93);}.cls-142{fill:url(#linear-gradient-94);}.cls-143{fill:url(#linear-gradient-95);}.cls-144{fill:url(#linear-gradient-96);}</style><linearGradient id="linear-gradient" x1="-5652.9" y1="500.53" x2="-5650.43" y2="500.53" gradientTransform="matrix(63.45, 0, 0, -85.7, 358668.84, 43015.79)" gradientUnits="userSpaceOnUse"><stop offset="0" stop-color="#ed4515"/><stop offset="1" stop-color="#f26411"/></linearGradient><clipPath id="clip-path"><path class="cls-1" d="M85.58,182.33q0,11.63,3.63,17.63a13,13,0,0,0,12.12,6,20.37,20.37,0,0,0,10.82-3.43,44.7,44.7,0,0,0,10.69-9.8,80.63,80.63,0,0,0,9.65-15.34,135.19,135.19,0,0,0,7.88-20,160.4,160.4,0,0,0,5.32-23.94,182.81,182.81,0,0,0,1.92-26.85,112.69,112.69,0,0,0-3.05-26.76,65.34,65.34,0,0,0-9.6-22A47.55,47.55,0,0,0,118.39,43a49.69,49.69,0,0,0-24-5.49,73.56,73.56,0,0,0-20.56,2.61,51.51,51.51,0,0,0-15.41,7.23,46.15,46.15,0,0,0-11,10.73,56.84,56.84,0,0,0-7.13,13.22,69.33,69.33,0,0,0-3.77,14.65,104.74,104.74,0,0,0-1.09,15A69.79,69.79,0,0,0,37.55,119a77.9,77.9,0,0,0,4.8,13.49,46.55,46.55,0,0,0,5.07,8.54q2.38,3,2.78,3.42c1.55-.45,2.64-.28,3.29.55a5.26,5.26,0,0,1,.92,3.29,15.41,15.41,0,0,1-1.1,5.73,20.8,20.8,0,0,1-3.08,5.35,18.59,18.59,0,0,1-4.32,3.93,8.82,8.82,0,0,1-4.86,1.58,8,8,0,0,1-2.12-.28,6.09,6.09,0,0,1-2.13-1.1,17.44,17.44,0,0,1-2.06-2,62.73,62.73,0,0,1-4.38-5.27,80,80,0,0,1-5.57-8.57,82.05,82.05,0,0,1-5.48-11.85,93.84,93.84,0,0,1-5.82-33.29,101.57,101.57,0,0,1,5.82-35,79.52,79.52,0,0,1,16.51-27.4A74.52,74.52,0,0,1,61.59,22.39,85.5,85.5,0,0,1,95.17,16a71.54,71.54,0,0,1,33.76,7.46,67.79,67.79,0,0,1,23.25,19.8,84.94,84.94,0,0,1,13.54,28.2,123,123,0,0,1,4.38,32.88A205.38,205.38,0,0,1,167,141.07a170.82,170.82,0,0,1-8.35,30.62,123.43,123.43,0,0,1-12.28,24.13,92.83,92.83,0,0,1-14.85,17.53,58.78,58.78,0,0,1-16,10.61,39.86,39.86,0,0,1-15.89,3.57,41.1,41.1,0,0,1-16.79-3.08,27,27,0,0,1-11.13-9,39.85,39.85,0,0,1-6.17-14.66A92.56,92.56,0,0,1,63.66,181V73.41a20.28,20.28,0,0,0-.56-5.65,11,11,0,0,1-.55-3.21,4,4,0,0,1,2.2-3.5A10.11,10.11,0,0,1,70,59.75a17,17,0,0,1,11.3,3.63,11,11,0,0,1,4.32,8.71Z"/></clipPath><linearGradient id="linear-gradient-2" x1="-2030.46" y1="500.53" x2="-2027.99" y2="500.53" gradientTransform="matrix(1.55, 0, 0, -85.69, 3158.68, 43011.96)" xlink:href="#linear-gradient"/><linearGradient id="linear-gradient-3" x1="-2028.99" y1="500.53" x2="-2026.52" y2="500.53" gradientTransform="matrix(1.55, 0, 0, -85.69, 3160.23, 43011.96)" xlink:href="#linear-gradient"/><linearGradient id="linear-gradient-4" x1="-2027.52" y1="500.53" x2="-2025.05" y2="500.53" gradientTransform="matrix(1.55, 0, 0, -85.69, 3161.78, 43011.96)" xlink:href="#linear-gradient"/><linearGradient id="linear-gradient-5" x1="-2026.05" y1="500.53" x2="-2023.59" y2="500.53" gradientTransform="matrix(1.55, 0, 0, -85.69, 3163.33, 43011.96)" xlink:href="#linear-gradient"/><linearGradient id="linear-gradient-6" x1="-2024.59" y1="500.53" x2="-2022.12" y2="500.53" gradientTransform="matrix(1.55, 0, 0, -85.69, 3164.87, 43011.96)" xlink:href="#linear-gradient"/><linearGradient id="linear-gradient-7" x1="-2023.12" y1="500.53" x2="-2020.66" y2="500.53" gradientTransform="matrix(1.55, 0, 0, -85.69, 3166.42, 43011.96)" xlink:href="#linear-gradient"/><linearGradient id="linear-gradient-8" x1="-2021.66" y1="500.53" x2="-2019.19" y2="500.53" gradientTransform="matrix(1.55, 0, 0, -85.69, 3167.97, 43011.96)" xlink:href="#linear-gradient"/><linearGradient id="linear-gradient-9" x1="-2020.19" y1="500.53" x2="-2017.72" y2="500.53" gradientTransform="matrix(1.55, 0, 0, -85.69, 3169.51, 43011.96)" xlink:href="#linear-gradient"/><linearGradient id="linear-gradient-10" x1="-2018.72" y1="500.53" x2="-2016.26" y2="500.53" gradientTransform="matrix(1.55, 0, 0, -85.69, 3171.06, 43011.96)" xlink:href="#linear-gradient"/><linearGradient id="linear-gradient-11" x1="-2017.25" y1="500.53" x2="-2014.79" y2="500.53" gradientTransform="matrix(1.55, 0, 0, -85.69, 3172.61, 43011.96)" xlink:href="#linear-gradient"/><linearGradient id="linear-gradient-12" x1="-2015.79" y1="500.53" x2="-2013.32" y2="500.53" gradientTransform="matrix(1.55, 0, 0, -85.69, 3174.16, 43011.96)" xlink:href="#linear-gradient"/><linearGradient id="linear-gradient-13" x1="-2014.32" y1="500.53" x2="-2011.85" y2="500.53" gradientTransform="matrix(1.55, 0, 0, -85.69, 3175.7, 43011.96)" xlink:href="#linear-gradient"/><linearGradient id="linear-gradient-14" x1="-2012.85" y1="500.53" x2="-2010.38" y2="500.53" gradientTransform="matrix(1.55, 0, 0, -85.69, 3177.25, 43011.96)" xlink:href="#linear-gradient"/><linearGradient id="linear-gradient-15" x1="-2011.38" y1="500.53" x2="-2008.92" y2="500.53" gradientTransform="matrix(1.55, 0, 0, -85.69, 3178.8, 43011.96)" xlink:href="#linear-gradient"/><linearGradient id="linear-gradient-16" x1="-2009.92" y1="500.53" x2="-2007.45" y2="500.53" gradientTransform="matrix(1.55, 0, 0, -85.69, 3180.34, 43011.96)" xlink:href="#linear-gradient"/><linearGradient id="linear-gradient-17" x1="-2008.45" y1="500.53" x2="-2005.99" y2="500.53" gradientTransform="matrix(1.55, 0, 0, -85.69, 3181.89, 43011.96)" xlink:href="#linear-gradient"/><linearGradient id="linear-gradient-18" x1="-2006.99" y1="500.53" x2="-2004.52" y2="500.53" gradientTransform="matrix(1.55, 0, 0, -85.69, 3183.44, 43011.96)" xlink:href="#linear-gradient"/><linearGradient id="linear-gradient-19" x1="-2005.52" y1="500.53" x2="-2003.05" y2="500.53" gradientTransform="matrix(1.55, 0, 0, -85.69, 3184.99, 43011.96)" xlink:href="#linear-gradient"/><linearGradient id="linear-gradient-20" x1="-2004.05" y1="500.53" x2="-2001.59" y2="500.53" gradientTransform="matrix(1.55, 0, 0, -85.69, 3186.54, 43011.96)" xlink:href="#linear-gradient"/><linearGradient id="linear-gradient-21" x1="-2002.58" y1="500.53" x2="-2000.12" y2="500.53" gradientTransform="matrix(1.55, 0, 0, -85.69, 3188.08, 43011.96)" xlink:href="#linear-gradient"/><linearGradient id="linear-gradient-22" x1="-2001.12" y1="500.53" x2="-1998.65" y2="500.53" gradientTransform="matrix(1.55, 0, 0, -85.69, 3189.63, 43011.96)" xlink:href="#linear-gradient"/><linearGradient id="linear-gradient-23" x1="-1999.65" y1="500.53" x2="-1997.18" y2="500.53" gradientTransform="matrix(1.55, 0, 0, -85.69, 3191.18, 43011.96)" xlink:href="#linear-gradient"/><linearGradient id="linear-gradient-24" x1="-1998.18" y1="500.53" x2="-1995.72" y2="500.53" gradientTransform="matrix(1.55, 0, 0, -85.69, 3192.72, 43011.96)" xlink:href="#linear-gradient"/><linearGradient id="linear-gradient-25" x1="-1996.72" y1="500.53" x2="-1994.25" y2="500.53" gradientTransform="matrix(1.55, 0, 0, -85.69, 3194.27, 43011.96)" xlink:href="#linear-gradient"/><linearGradient id="linear-gradient-26" x1="-1995.25" y1="500.53" x2="-1992.78" y2="500.53" gradientTransform="matrix(1.55, 0, 0, -85.69, 3195.82, 43011.96)" xlink:href="#linear-gradient"/><linearGradient id="linear-gradient-27" x1="-1993.78" y1="500.53" x2="-1991.32" y2="500.53" gradientTransform="matrix(1.55, 0, 0, -85.69, 3197.37, 43011.96)" xlink:href="#linear-gradient"/><linearGradient id="linear-gradient-28" x1="-1992.32" y1="500.53" x2="-1989.85" y2="500.53" gradientTransform="matrix(1.55, 0, 0, -85.69, 3198.91, 43011.96)" xlink:href="#linear-gradient"/><linearGradient id="linear-gradient-29" x1="-1990.85" y1="500.53" x2="-1988.38" y2="500.53" gradientTransform="matrix(1.55, 0, 0, -85.69, 3200.46, 43011.96)" xlink:href="#linear-gradient"/><linearGradient id="linear-gradient-30" x1="-1989.38" y1="500.53" x2="-1986.91" y2="500.53" gradientTransform="matrix(1.55, 0, 0, -85.69, 3202.01, 43011.96)" xlink:href="#linear-gradient"/><linearGradient id="linear-gradient-31" x1="-1987.92" y1="500.53" x2="-1985.45" y2="500.53" gradientTransform="matrix(1.55, 0, 0, -85.69, 3203.55, 43011.96)" xlink:href="#linear-gradient"/><linearGradient id="linear-gradient-32" x1="-1986.45" y1="500.53" x2="-1983.98" y2="500.53" gradientTransform="matrix(1.55, 0, 0, -85.69, 3205.1, 43011.96)" xlink:href="#linear-gradient"/><linearGradient id="linear-gradient-33" x1="-1984.98" y1="500.53" x2="-1982.51" y2="500.53" gradientTransform="matrix(1.55, 0, 0, -85.69, 3206.65, 43011.96)" xlink:href="#linear-gradient"/><linearGradient id="linear-gradient-34" x1="-1983.51" y1="500.53" x2="-1981.05" y2="500.53" gradientTransform="matrix(1.55, 0, 0, -85.69, 3208.2, 43011.96)" xlink:href="#linear-gradient"/><linearGradient id="linear-gradient-35" x1="-1982.05" y1="500.53" x2="-1979.58" y2="500.53" gradientTransform="matrix(1.55, 0, 0, -85.69, 3209.74, 43011.96)" xlink:href="#linear-gradient"/><linearGradient id="linear-gradient-36" x1="-1980.58" y1="500.53" x2="-1978.11" y2="500.53" gradientTransform="matrix(1.55, 0, 0, -85.69, 3211.29, 43011.96)" xlink:href="#linear-gradient"/><linearGradient id="linear-gradient-37" x1="-1979.11" y1="500.53" x2="-1976.65" y2="500.53" gradientTransform="matrix(1.55, 0, 0, -85.69, 3212.84, 43011.96)" xlink:href="#linear-gradient"/><linearGradient id="linear-gradient-38" x1="-1977.65" y1="500.53" x2="-1975.18" y2="500.53" gradientTransform="matrix(1.55, 0, 0, -85.69, 3214.38, 43011.96)" xlink:href="#linear-gradient"/><linearGradient id="linear-gradient-39" x1="-1976.18" y1="500.53" x2="-1973.71" y2="500.53" gradientTransform="matrix(1.55, 0, 0, -85.69, 3215.93, 43011.96)" xlink:href="#linear-gradient"/><linearGradient id="linear-gradient-40" x1="-1974.71" y1="500.53" x2="-1972.25" y2="500.53" gradientTransform="matrix(1.55, 0, 0, -85.69, 3217.48, 43011.96)" xlink:href="#linear-gradient"/><linearGradient id="linear-gradient-41" x1="-1973.25" y1="500.53" x2="-1970.78" y2="500.53" gradientTransform="matrix(1.55, 0, 0, -85.69, 3219.03, 43011.96)" xlink:href="#linear-gradient"/><linearGradient id="linear-gradient-42" x1="-1971.78" y1="500.53" x2="-1969.31" y2="500.53" gradientTransform="matrix(1.55, 0, 0, -85.69, 3220.58, 43011.96)" xlink:href="#linear-gradient"/><linearGradient id="linear-gradient-43" x1="-5656.03" y1="500.65" x2="-5653.56" y2="500.65" gradientTransform="matrix(65.7, 0, 0, -87.96, 371620.11, 44161.26)" xlink:href="#linear-gradient"/><clipPath id="clip-path-2"><path class="cls-1" d="M252.3,135.2a51.74,51.74,0,0,1-2.68,16.08,56.31,56.31,0,0,1-7.94,15.55,61.13,61.13,0,0,1-13,13.15,56.13,56.13,0,0,1-17.89,8.84,31.59,31.59,0,0,0,3.63,6.78,24.2,24.2,0,0,0,5.41,5.56,26,26,0,0,0,7.33,3.71,31.31,31.31,0,0,0,9.66,1.37A30.26,30.26,0,0,0,251,203.16a30.94,30.94,0,0,0,9.93-8.15,43.83,43.83,0,0,0,6.49-11.35,71.59,71.59,0,0,0,3.71-12.75,8.4,8.4,0,0,1,3.9-6.23,8,8,0,0,1,6-.74,10.34,10.34,0,0,1,5.34,3.49,8.06,8.06,0,0,1,1.86,6.37,94.82,94.82,0,0,1-1.86,9.73,58.89,58.89,0,0,1-3.9,11.14,61.78,61.78,0,0,1-6.66,11,45.27,45.27,0,0,1-9.93,9.66A50.39,50.39,0,0,1,252,222.2a58.42,58.42,0,0,1-18.2,2.49,47.36,47.36,0,0,1-18.56-3.79,48.36,48.36,0,0,1-15.9-10.83,52.45,52.45,0,0,1-11.13-17.4,62.28,62.28,0,0,1-4.18-23.5,80,80,0,0,1,3.7-24.72,70.74,70.74,0,0,1,9.73-19.8,48.23,48.23,0,0,1,13.7-13.08A29.75,29.75,0,0,1,227,106.84a26.52,26.52,0,0,1,10.58,2.08,22.35,22.35,0,0,1,8,5.83,25.61,25.61,0,0,1,5,9A36.38,36.38,0,0,1,252.3,135.2Zm-45.21,33.16a22.58,22.58,0,0,0,.14,2.47,22.53,22.53,0,0,1,.14,2.6,38.73,38.73,0,0,0,9.46-6.3,39.72,39.72,0,0,0,7.26-8.77,42.9,42.9,0,0,0,4.64-10.75,45,45,0,0,0,1.66-12.1,13.93,13.93,0,0,0-1.58-7.27,4.82,4.82,0,0,0-4.31-2.59,8.93,8.93,0,0,0-6.1,2.33,20.62,20.62,0,0,0-4.64,6.09,42.51,42.51,0,0,0-3.29,8.49,94.25,94.25,0,0,0-2.12,9.53,87.09,87.09,0,0,0-1.1,9.11A68.39,68.39,0,0,0,207.09,168.36Z"/></clipPath><linearGradient id="linear-gradient-44" x1="-5611.97" y1="496.59" x2="-5609.5" y2="496.59" gradientTransform="matrix(44.47, 0, 0, -49.96, 249747.44, 24975.56)" xlink:href="#linear-gradient"/><linearGradient id="linear-gradient-45" x1="-5613.04" y1="500.23" x2="-5610.57" y2="500.23" gradientTransform="matrix(45.11, 0, 0, -81.03, 253445.41, 40658.19)" xlink:href="#linear-gradient"/><clipPath id="clip-path-3"><path class="cls-1" d="M245.74,84.93c2.1.17,4.42.3,7,.4,2.19.19,4.84.3,7.94.35s6.58.11,10.41.2V38.34a18.91,18.91,0,0,0-.49-4.8,17.12,17.12,0,0,0-.93-2.78,8.63,8.63,0,0,0-.93-1.65,2.05,2.05,0,0,1-.49-1.3,1.63,1.63,0,0,1,.83-1.37,8.3,8.3,0,0,1,2.19-.93,17.25,17.25,0,0,1,2.94-.61,22.81,22.81,0,0,1,3.09-.21,15.87,15.87,0,0,1,11,3.63,11.32,11.32,0,0,1,4,8.64V86.15q12.87,0,27.19-.28T348.21,85c1.28-1.38,2.31-1.88,3.08-1.52A3.25,3.25,0,0,1,352.8,86a20.48,20.48,0,0,1,.07,5.07,30.11,30.11,0,0,1-1.11,5.81,16.65,16.65,0,0,1-2.25,4.88,4.08,4.08,0,0,1-3.21,2q-16.86.42-29.81.49t-24.17.07v88.91a14.93,14.93,0,0,0,2.6,9.87,8.76,8.76,0,0,0,7,3,10.22,10.22,0,0,0,7.34-3,27.93,27.93,0,0,0,5.34-7.53,52.92,52.92,0,0,0,3.7-9.8q1.46-5.27,2.41-9.93a12.49,12.49,0,0,1,2.74-6.38,5.55,5.55,0,0,1,4-2,6.81,6.81,0,0,1,3.42,1,12.69,12.69,0,0,1,3.21,2.67,14.06,14.06,0,0,1,2.33,3.71,10.15,10.15,0,0,1,.93,4.1v.68A4.37,4.37,0,0,1,337,181a118.22,118.22,0,0,1-4.87,14.66,61.47,61.47,0,0,1-8,14.09,43.66,43.66,0,0,1-11.58,10.68,28.92,28.92,0,0,1-15.77,4.25A30.12,30.12,0,0,1,286.46,223a20.29,20.29,0,0,1-8.15-5.48,26.17,26.17,0,0,1-5.34-9.65,46.52,46.52,0,0,1-1.91-14.26V104.38c-3.1,0-5.86,0-8.28-.07s-4.45-.12-6.1-.2l-5.07-.28a7.55,7.55,0,0,1-5.83-3,17.2,17.2,0,0,1-3.56-6.49A12.23,12.23,0,0,1,242,87.9a3.54,3.54,0,0,1,3.79-3Z"/></clipPath><linearGradient id="linear-gradient-46" x1="72752.44" y1="500.23" x2="72754.91" y2="500.23" gradientTransform="matrix(0.08, 0, 0, -81.03, -5214.96, 40657.95)" xlink:href="#linear-gradient"/><linearGradient id="linear-gradient-47" x1="-396.31" y1="500.23" x2="-393.85" y2="500.23" gradientTransform="matrix(1.1, 0, 0, -81.03, 677.99, 40657.95)" xlink:href="#linear-gradient"/><linearGradient id="linear-gradient-48" x1="-394.85" y1="500.23" x2="-392.38" y2="500.23" gradientTransform="matrix(1.1, 0, 0, -81.03, 679.09, 40657.95)" xlink:href="#linear-gradient"/><linearGradient id="linear-gradient-49" x1="-393.38" y1="500.23" x2="-390.92" y2="500.23" gradientTransform="matrix(1.1, 0, 0, -81.03, 680.19, 40657.95)" xlink:href="#linear-gradient"/><linearGradient id="linear-gradient-50" x1="-391.91" y1="500.23" x2="-389.44" y2="500.23" gradientTransform="matrix(1.1, 0, 0, -81.03, 681.29, 40657.95)" xlink:href="#linear-gradient"/><linearGradient id="linear-gradient-51" x1="-390.44" y1="500.23" x2="-387.98" y2="500.23" gradientTransform="matrix(1.1, 0, 0, -81.03, 682.39, 40657.95)" xlink:href="#linear-gradient"/><linearGradient id="linear-gradient-52" x1="-388.97" y1="500.23" x2="-386.51" y2="500.23" gradientTransform="matrix(1.1, 0, 0, -81.03, 683.49, 40657.95)" xlink:href="#linear-gradient"/><linearGradient id="linear-gradient-53" x1="-387.51" y1="500.23" x2="-385.04" y2="500.23" gradientTransform="matrix(1.1, 0, 0, -81.03, 684.59, 40657.95)" xlink:href="#linear-gradient"/><linearGradient id="linear-gradient-54" x1="-386.04" y1="500.23" x2="-383.57" y2="500.23" gradientTransform="matrix(1.1, 0, 0, -81.03, 685.69, 40657.95)" xlink:href="#linear-gradient"/><linearGradient id="linear-gradient-55" x1="-384.57" y1="500.23" x2="-382.11" y2="500.23" gradientTransform="matrix(1.1, 0, 0, -81.03, 686.79, 40657.95)" xlink:href="#linear-gradient"/><linearGradient id="linear-gradient-56" x1="-383.11" y1="500.23" x2="-380.64" y2="500.23" gradientTransform="matrix(1.1, 0, 0, -81.03, 687.89, 40657.95)" xlink:href="#linear-gradient"/><linearGradient id="linear-gradient-57" x1="-381.64" y1="500.23" x2="-379.17" y2="500.23" gradientTransform="matrix(1.1, 0, 0, -81.03, 688.99, 40657.95)" xlink:href="#linear-gradient"/><linearGradient id="linear-gradient-58" x1="-380.17" y1="500.23" x2="-377.71" y2="500.23" gradientTransform="matrix(1.1, 0, 0, -81.03, 690.09, 40657.95)" xlink:href="#linear-gradient"/><linearGradient id="linear-gradient-59" x1="-378.7" y1="500.23" x2="-376.24" y2="500.23" gradientTransform="matrix(1.1, 0, 0, -81.03, 691.19, 40657.95)" xlink:href="#linear-gradient"/><linearGradient id="linear-gradient-60" x1="-377.24" y1="500.23" x2="-374.77" y2="500.23" gradientTransform="matrix(1.1, 0, 0, -81.03, 692.29, 40657.95)" xlink:href="#linear-gradient"/><linearGradient id="linear-gradient-61" x1="-375.77" y1="500.23" x2="-373.31" y2="500.23" gradientTransform="matrix(1.1, 0, 0, -81.03, 693.39, 40657.95)" xlink:href="#linear-gradient"/><linearGradient id="linear-gradient-62" x1="-374.3" y1="500.23" x2="-371.83" y2="500.23" gradientTransform="matrix(1.1, 0, 0, -81.03, 694.49, 40657.95)" xlink:href="#linear-gradient"/><linearGradient id="linear-gradient-63" x1="-372.83" y1="500.23" x2="-370.36" y2="500.23" gradientTransform="matrix(1.1, 0, 0, -81.03, 695.59, 40657.95)" xlink:href="#linear-gradient"/><linearGradient id="linear-gradient-64" x1="-371.36" y1="500.23" x2="-368.9" y2="500.23" gradientTransform="matrix(1.1, 0, 0, -81.03, 696.7, 40657.95)" xlink:href="#linear-gradient"/><linearGradient id="linear-gradient-65" x1="-369.9" y1="500.23" x2="-367.43" y2="500.23" gradientTransform="matrix(1.1, 0, 0, -81.03, 697.79, 40657.95)" xlink:href="#linear-gradient"/><linearGradient id="linear-gradient-66" x1="-368.43" y1="500.23" x2="-365.96" y2="500.23" gradientTransform="matrix(1.1, 0, 0, -81.03, 698.89, 40657.95)" xlink:href="#linear-gradient"/><linearGradient id="linear-gradient-67" x1="-366.96" y1="500.23" x2="-364.5" y2="500.23" gradientTransform="matrix(1.1, 0, 0, -81.03, 700, 40657.95)" xlink:href="#linear-gradient"/><linearGradient id="linear-gradient-68" x1="-365.5" y1="500.23" x2="-363.03" y2="500.23" gradientTransform="matrix(1.1, 0, 0, -81.03, 701.09, 40657.95)" xlink:href="#linear-gradient"/><linearGradient id="linear-gradient-69" x1="-364.03" y1="500.23" x2="-361.56" y2="500.23" gradientTransform="matrix(1.1, 0, 0, -81.03, 702.2, 40657.95)" xlink:href="#linear-gradient"/><linearGradient id="linear-gradient-70" x1="-362.56" y1="500.23" x2="-360.1" y2="500.23" gradientTransform="matrix(1.1, 0, 0, -81.03, 703.3, 40657.95)" xlink:href="#linear-gradient"/><linearGradient id="linear-gradient-71" x1="-361.09" y1="500.23" x2="-358.63" y2="500.23" gradientTransform="matrix(1.1, 0, 0, -81.03, 704.39, 40657.95)" xlink:href="#linear-gradient"/><linearGradient id="linear-gradient-72" x1="-359.63" y1="500.23" x2="-357.16" y2="500.23" gradientTransform="matrix(1.1, 0, 0, -81.03, 705.5, 40657.95)" xlink:href="#linear-gradient"/><linearGradient id="linear-gradient-73" x1="-358.16" y1="500.23" x2="-355.69" y2="500.23" gradientTransform="matrix(1.1, 0, 0, -81.03, 706.59, 40657.95)" xlink:href="#linear-gradient"/><linearGradient id="linear-gradient-74" x1="-356.69" y1="500.23" x2="-354.22" y2="500.23" gradientTransform="matrix(1.1, 0, 0, -81.03, 707.69, 40657.95)" xlink:href="#linear-gradient"/><linearGradient id="linear-gradient-75" x1="-355.22" y1="500.23" x2="-352.76" y2="500.23" gradientTransform="matrix(1.1, 0, 0, -81.03, 708.8, 40657.95)" xlink:href="#linear-gradient"/><linearGradient id="linear-gradient-76" x1="-353.76" y1="500.23" x2="-351.29" y2="500.23" gradientTransform="matrix(1.1, 0, 0, -81.03, 709.89, 40657.95)" xlink:href="#linear-gradient"/><linearGradient id="linear-gradient-77" x1="-352.29" y1="500.23" x2="-349.82" y2="500.23" gradientTransform="matrix(1.1, 0, 0, -81.03, 711, 40657.95)" xlink:href="#linear-gradient"/><linearGradient id="linear-gradient-78" x1="-350.82" y1="500.23" x2="-348.36" y2="500.23" gradientTransform="matrix(1.1, 0, 0, -81.03, 712.1, 40657.95)" xlink:href="#linear-gradient"/><linearGradient id="linear-gradient-79" x1="-349.36" y1="500.23" x2="-346.89" y2="500.23" gradientTransform="matrix(1.1, 0, 0, -81.03, 713.19, 40657.95)" xlink:href="#linear-gradient"/><linearGradient id="linear-gradient-80" x1="-347.89" y1="500.23" x2="-345.42" y2="500.23" gradientTransform="matrix(1.1, 0, 0, -81.03, 714.3, 40657.95)" xlink:href="#linear-gradient"/><linearGradient id="linear-gradient-81" x1="-346.42" y1="500.23" x2="-343.96" y2="500.23" gradientTransform="matrix(1.1, 0, 0, -81.03, 715.4, 40657.95)" xlink:href="#linear-gradient"/><linearGradient id="linear-gradient-82" x1="-344.95" y1="500.23" x2="-342.48" y2="500.23" gradientTransform="matrix(1.1, 0, 0, -81.03, 716.5, 40657.95)" xlink:href="#linear-gradient"/><linearGradient id="linear-gradient-83" x1="-343.48" y1="500.23" x2="-341.02" y2="500.23" gradientTransform="matrix(1.1, 0, 0, -81.03, 717.6, 40657.95)" xlink:href="#linear-gradient"/><linearGradient id="linear-gradient-84" x1="-342.02" y1="500.23" x2="-339.55" y2="500.23" gradientTransform="matrix(1.1, 0, 0, -81.03, 718.7, 40657.95)" xlink:href="#linear-gradient"/><linearGradient id="linear-gradient-85" x1="-340.55" y1="500.23" x2="-338.08" y2="500.23" gradientTransform="matrix(1.1, 0, 0, -81.03, 719.8, 40657.95)" xlink:href="#linear-gradient"/><linearGradient id="linear-gradient-86" x1="-339.08" y1="500.23" x2="-336.61" y2="500.23" gradientTransform="matrix(1.1, 0, 0, -81.03, 720.9, 40657.95)" xlink:href="#linear-gradient"/><linearGradient id="linear-gradient-87" x1="-337.61" y1="500.23" x2="-335.15" y2="500.23" gradientTransform="matrix(1.1, 0, 0, -81.03, 722, 40657.95)" xlink:href="#linear-gradient"/><linearGradient id="linear-gradient-88" x1="223239.08" y1="500.23" x2="223241.55" y2="500.23" gradientTransform="matrix(0.03, 0, 0, -81.03, -5451.22, 40657.95)" xlink:href="#linear-gradient"/><linearGradient id="linear-gradient-89" x1="-5618.95" y1="500.45" x2="-5616.53" y2="500.16" gradientTransform="matrix(47.36, 0, 0, -83.27, 266376.04, 41791.31)" gradientUnits="userSpaceOnUse"><stop offset="0" stop-color="#ed4515"/><stop offset="0.87" stop-color="#f26710"/></linearGradient><clipPath id="clip-path-4"><path class="cls-1" d="M296.56,84.93q3.17.25,7,.4c2.19.19,4.85.3,7.95.35s6.58.11,10.42.2V38.34a17.58,17.58,0,0,0-1.42-7.58,8.63,8.63,0,0,0-.93-1.65,2.07,2.07,0,0,1-.47-1.3,1.61,1.61,0,0,1,.81-1.37,8.45,8.45,0,0,1,2.19-.93,17.68,17.68,0,0,1,3-.61,22.92,22.92,0,0,1,3.09-.21,15.89,15.89,0,0,1,11,3.63A11.3,11.3,0,0,1,343.22,37V86.2q12.87,0,27.2-.28t28.7-.93c1.27-1.37,2.3-1.88,3.08-1.51A3.19,3.19,0,0,1,403.68,86a20,20,0,0,1,.07,5.07,30.32,30.32,0,0,1-1.09,5.82,16.91,16.91,0,0,1-2.27,4.87,4,4,0,0,1-3.2,2q-16.87.42-29.8.49t-24.2.07v88.9a15,15,0,0,0,2.61,9.88,8.76,8.76,0,0,0,7,3,10.14,10.14,0,0,0,7.33-3,27.75,27.75,0,0,0,5.35-7.53,53.46,53.46,0,0,0,3.7-9.81q1.44-5.27,2.39-9.92a12.2,12.2,0,0,1,2.79-6.38,5.56,5.56,0,0,1,4-2,6.91,6.91,0,0,1,3.43,1,13.13,13.13,0,0,1,3.21,2.68,13.84,13.84,0,0,1,2.33,3.7,10.34,10.34,0,0,1,.88,4.1v.68a4.1,4.1,0,0,1-.26,1.24A118.77,118.77,0,0,1,383,195.64a61.32,61.32,0,0,1-8,14.1,44.17,44.17,0,0,1-11.58,10.69,29,29,0,0,1-15.78,4.25A30.34,30.34,0,0,1,337.3,223a20.19,20.19,0,0,1-8.14-5.48,26.35,26.35,0,0,1-5.3-9.66A46.66,46.66,0,0,1,322,193.57V104.38c-3.09,0-5.86,0-8.29-.07s-4.45-.12-6.1-.2l-5.07-.28a7.52,7.52,0,0,1-5.81-3,17.23,17.23,0,0,1-3.57-6.49,12.33,12.33,0,0,1-.28-6.49,3.55,3.55,0,0,1,3.73-3Z"/></clipPath><linearGradient id="linear-gradient-90" x1="-5618.67" y1="500.37" x2="-5616.2" y2="500.37" gradientTransform="matrix(47.37, 0, 0, -83.27, 266465.5, 41788.36)" xlink:href="#linear-gradient"/><linearGradient id="linear-gradient-91" x1="-4827.84" y1="448.63" x2="-4825.37" y2="448.63" gradientTransform="matrix(6.48, 0, 0, -8.65, 31604.26, 4142.3)" xlink:href="#linear-gradient"/><linearGradient id="linear-gradient-92" x1="-4676.75" y1="427.55" x2="-4674.29" y2="427.55" gradientTransform="matrix(5.57, 0, 0, -6.33, 26388.02, 2970.61)" xlink:href="#linear-gradient"/><linearGradient id="linear-gradient-93" x1="-1978.27" y1="448.52" x2="-1975.81" y2="448.52" gradientTransform="matrix(1.58, 0, 0, -8.64, 3479.51, 4133.72)" xlink:href="#linear-gradient"/><linearGradient id="linear-gradient-94" x1="-4324.16" y1="424.88" x2="-4321.7" y2="424.88" gradientTransform="matrix(4.2, 0, 0, -6.12, 18507.73, 2863.26)" xlink:href="#linear-gradient"/><linearGradient id="linear-gradient-95" x1="-4794.74" y1="427.3" x2="-4792.28" y2="427.3" gradientTransform="matrix(6.29, 0, 0, -6.31, 30505.25, 2960.54)" xlink:href="#linear-gradient"/><linearGradient id="linear-gradient-96" x1="-4786.03" y1="448.83" x2="-4783.57" y2="448.83" gradientTransform="matrix(6.24, 0, 0, -8.75, 30247.42, 4193.97)" xlink:href="#linear-gradient"/></defs><g id="Layer_2" data-name="Layer 2"><g id="Layer_1-2" data-name="Layer 1"><g id="Group_39136" data-name="Group 39136"><path id="Path_94847" data-name="Path 94847" class="cls-2" d="M416.91,84.34a16.54,16.54,0,0,0-9.08-12.59,15.07,15.07,0,0,0-13.5.44c-8.15.37-16.39.62-24.54.77-3.51.08-7,.12-10.42.17h-3.29v-36a24.79,24.79,0,0,0-8.54-18.79,29.14,29.14,0,0,0-20.12-7.14,37.5,37.5,0,0,0-4.85.32,32.66,32.66,0,0,0-5.09,1.07,21.19,21.19,0,0,0-5.82,2.67,15.23,15.23,0,0,0-4.08,21.41,1.56,1.56,0,0,0,.1.37,12.71,12.71,0,0,1,.06,1.51V72.67l-2.44-.12V37.08a24.72,24.72,0,0,0-8.54-18.79,29.35,29.35,0,0,0-20.16-7.14,37.23,37.23,0,0,0-4.84.32,32.78,32.78,0,0,0-5.1,1.07,22.14,22.14,0,0,0-5.83,2.67A15.13,15.13,0,0,0,254,27.86a15.5,15.5,0,0,0,2.72,8.76,1.73,1.73,0,0,0,.11.37,12.54,12.54,0,0,1,.06,1.5V72.66c-1.48,0-2.78-.13-3.92-.23h-.66c-2.33-.07-4.46-.2-6.35-.37h-1.17A17,17,0,0,0,228,85.15a24.07,24.07,0,0,0-.7,7.32h-.93a43.51,43.51,0,0,0-23.1,6.81A62.21,62.21,0,0,0,185.8,115.7q.3-6,.29-12.34a139.32,139.32,0,0,0-4.94-37,100.15,100.15,0,0,0-15.86-33.1,82.59,82.59,0,0,0-28.22-24A85.49,85.49,0,0,0,96.44,0,100.55,100.55,0,0,0,57.09,7.56,89.28,89.28,0,0,0,26.32,28.91,94.65,94.65,0,0,0,6.73,61.26,116.72,116.72,0,0,0,0,101.48a108.71,108.71,0,0,0,6.77,38.58A96.89,96.89,0,0,0,19.87,164.2a74.52,74.52,0,0,0,5.48,6.55,27,27,0,0,0,4.22,3.84,19.58,19.58,0,0,0,6.24,3A21.78,21.78,0,0,0,51,176.07v5.05a107.43,107.43,0,0,0,2.25,23A54,54,0,0,0,61.67,224,40.62,40.62,0,0,0,78.5,237.62a55.17,55.17,0,0,0,22.54,4.3,54.18,54.18,0,0,0,21.5-4.73,73.61,73.61,0,0,0,20-13.15,108.35,108.35,0,0,0,17.22-20.34A130.94,130.94,0,0,0,170.43,184a69.49,69.49,0,0,0,4,14.27,67,67,0,0,0,14.16,22.1,62.82,62.82,0,0,0,20.59,14,62.12,62.12,0,0,0,24.13,4.88A72.82,72.82,0,0,0,256.09,236a66.13,66.13,0,0,0,13.44-6,33.61,33.61,0,0,0,11.85,7.34,43.87,43.87,0,0,0,15,2.53,42.4,42.4,0,0,0,23.09-6.37c.93-.58,1.84-1.2,2.71-1.86a34.22,34.22,0,0,0,10,5.74,44.1,44.1,0,0,0,15,2.52,42.54,42.54,0,0,0,23-6.37,57.84,57.84,0,0,0,15.22-14,75,75,0,0,0,9.76-17.32,133.89,133.89,0,0,0,5.37-16.1,16.64,16.64,0,0,0,.79-5v-.7a23.76,23.76,0,0,0-2-9.5,27.42,27.42,0,0,0-4.56-7.23,26.46,26.46,0,0,0-6.66-5.49A20.19,20.19,0,0,0,378,155.31a18.73,18.73,0,0,0-13.69,6.12A24.85,24.85,0,0,0,358,174.59c-.54,2.57-1.19,5.31-2,8.17V118.5l11,0c8.64,0,18.82-.2,30.22-.49a17.48,17.48,0,0,0,14.05-7.82,30.7,30.7,0,0,0,4.17-8.83,43.93,43.93,0,0,0,1.58-8.44A33.37,33.37,0,0,0,416.91,84.34ZM223.52,158.1v-.64h.39C223.78,157.68,223.64,157.89,223.52,158.1Z"/><path id="Path_94848" data-name="Path 94848" class="cls-3" d="M85.58,182.33Q85.58,194,89.2,200a13,13,0,0,0,12.13,6,20.31,20.31,0,0,0,10.81-3.43,44.56,44.56,0,0,0,10.7-9.8,80.63,80.63,0,0,0,9.65-15.34,135.19,135.19,0,0,0,7.88-20,160.4,160.4,0,0,0,5.32-23.94,182.81,182.81,0,0,0,1.92-26.85,112.69,112.69,0,0,0-3.05-26.76,65.34,65.34,0,0,0-9.6-22A47.55,47.55,0,0,0,118.39,43a49.73,49.73,0,0,0-24-5.49,73.49,73.49,0,0,0-20.55,2.61,51.57,51.57,0,0,0-15.42,7.23,46.52,46.52,0,0,0-11,10.73,56.81,56.81,0,0,0-7.12,13.22,69.33,69.33,0,0,0-3.77,14.65,104.75,104.75,0,0,0-1.1,15A70.23,70.23,0,0,0,37.55,119a77.86,77.86,0,0,0,4.79,13.49,47.12,47.12,0,0,0,5.07,8.54q2.4,3,2.79,3.42c1.55-.45,2.64-.28,3.28.55a5.21,5.21,0,0,1,.93,3.29,15.61,15.61,0,0,1-1.1,5.73,21.1,21.1,0,0,1-3.08,5.35,18.79,18.79,0,0,1-4.32,3.93,8.82,8.82,0,0,1-4.86,1.58,8.09,8.09,0,0,1-2.13-.28,6.13,6.13,0,0,1-2.12-1.1,17.44,17.44,0,0,1-2.06-2,62.73,62.73,0,0,1-4.38-5.27,80,80,0,0,1-5.57-8.57,82.11,82.11,0,0,1-5.49-11.85,94.29,94.29,0,0,1-5.82-33.29,101.57,101.57,0,0,1,5.82-35,79.7,79.7,0,0,1,16.52-27.4A74.52,74.52,0,0,1,61.59,22.39,85.49,85.49,0,0,1,95.16,16a71.58,71.58,0,0,1,33.77,7.46,68,68,0,0,1,23.25,19.8,84.94,84.94,0,0,1,13.54,28.2,123,123,0,0,1,4.38,32.88A205.38,205.38,0,0,1,167,141.07a171.66,171.66,0,0,1-8.35,30.62,124,124,0,0,1-12.28,24.13,93.2,93.2,0,0,1-14.85,17.53,58.68,58.68,0,0,1-16,10.61,39.77,39.77,0,0,1-15.88,3.57,41.1,41.1,0,0,1-16.79-3.08,27,27,0,0,1-11.13-9,39.85,39.85,0,0,1-6.17-14.66A91.92,91.92,0,0,1,63.66,181V73.41a20.28,20.28,0,0,0-.56-5.65,10.66,10.66,0,0,1-.55-3.21,4,4,0,0,1,2.2-3.5A10.09,10.09,0,0,1,70,59.75a17,17,0,0,1,11.3,3.63,11,11,0,0,1,4.32,8.71Z"/><g class="cls-4"><g id="Group_39130" data-name="Group 39130"><rect id="Rectangle_15672" data-name="Rectangle 15672" class="cls-5" x="13.51" y="16" width="3.82" height="211.54"/><rect id="Rectangle_15673" data-name="Rectangle 15673" class="cls-6" x="17.33" y="16" width="3.82" height="211.54"/><rect id="Rectangle_15674" data-name="Rectangle 15674" class="cls-7" x="21.15" y="16" width="3.82" height="211.54"/><rect id="Rectangle_15675" data-name="Rectangle 15675" class="cls-8" x="24.97" y="16" width="3.82" height="211.54"/><rect id="Rectangle_15676" data-name="Rectangle 15676" class="cls-9" x="28.78" y="16" width="3.82" height="211.54"/><rect id="Rectangle_15677" data-name="Rectangle 15677" class="cls-10" x="32.61" y="16" width="3.82" height="211.54"/><rect id="Rectangle_15678" data-name="Rectangle 15678" class="cls-11" x="36.42" y="16" width="3.82" height="211.54"/><rect id="Rectangle_15679" data-name="Rectangle 15679" class="cls-12" x="40.24" y="16" width="3.82" height="211.54"/><rect id="Rectangle_15680" data-name="Rectangle 15680" class="cls-13" x="44.07" y="16" width="3.82" height="211.54"/><rect id="Rectangle_15681" data-name="Rectangle 15681" class="cls-14" x="47.88" y="16" width="3.82" height="211.54"/><rect id="Rectangle_15682" data-name="Rectangle 15682" class="cls-15" x="51.71" y="16" width="3.82" height="211.54"/><rect id="Rectangle_15683" data-name="Rectangle 15683" class="cls-16" x="55.52" y="16" width="3.82" height="211.54"/><rect id="Rectangle_15684" data-name="Rectangle 15684" class="cls-17" x="59.34" y="16" width="3.82" height="211.54"/><rect id="Rectangle_15685" data-name="Rectangle 15685" class="cls-18" x="63.16" y="16" width="3.82" height="211.54"/><rect id="Rectangle_15686" data-name="Rectangle 15686" class="cls-19" x="66.98" y="16" width="3.82" height="211.54"/><rect id="Rectangle_15687" data-name="Rectangle 15687" class="cls-20" x="70.8" y="16" width="3.82" height="211.54"/><rect id="Rectangle_15688" data-name="Rectangle 15688" class="cls-21" x="74.62" y="16" width="3.82" height="211.54"/><rect id="Rectangle_15689" data-name="Rectangle 15689" class="cls-22" x="78.44" y="16" width="3.82" height="211.54"/><rect id="Rectangle_15690" data-name="Rectangle 15690" class="cls-23" x="82.26" y="16" width="3.82" height="211.54"/><rect id="Rectangle_15691" data-name="Rectangle 15691" class="cls-24" x="86.08" y="16" width="3.82" height="211.54"/><rect id="Rectangle_15692" data-name="Rectangle 15692" class="cls-25" x="89.9" y="16" width="3.82" height="211.54"/><rect id="Rectangle_15693" data-name="Rectangle 15693" class="cls-26" x="93.72" y="16" width="3.82" height="211.54"/><rect id="Rectangle_15694" data-name="Rectangle 15694" class="cls-27" x="97.54" y="16" width="3.82" height="211.54"/><rect id="Rectangle_15695" data-name="Rectangle 15695" class="cls-28" x="101.35" y="16" width="3.82" height="211.54"/><rect id="Rectangle_15696" data-name="Rectangle 15696" class="cls-29" x="105.18" y="16" width="3.82" height="211.54"/><rect id="Rectangle_15697" data-name="Rectangle 15697" class="cls-30" x="109" y="16" width="3.82" height="211.54"/><rect id="Rectangle_15698" data-name="Rectangle 15698" class="cls-31" x="112.81" y="16" width="3.82" height="211.54"/><rect id="Rectangle_15699" data-name="Rectangle 15699" class="cls-32" x="116.64" y="16" width="3.82" height="211.54"/><rect id="Rectangle_15700" data-name="Rectangle 15700" class="cls-33" x="120.45" y="16" width="3.82" height="211.54"/><rect id="Rectangle_15701" data-name="Rectangle 15701" class="cls-34" x="124.27" y="16" width="3.82" height="211.54"/><rect id="Rectangle_15702" data-name="Rectangle 15702" class="cls-35" x="128.1" y="16" width="3.82" height="211.54"/><rect id="Rectangle_15703" data-name="Rectangle 15703" class="cls-36" x="131.91" y="16" width="3.82" height="211.54"/><rect id="Rectangle_15704" data-name="Rectangle 15704" class="cls-37" x="135.73" y="16" width="3.82" height="211.54"/><rect id="Rectangle_15705" data-name="Rectangle 15705" class="cls-38" x="139.55" y="16" width="3.82" height="211.54"/><rect id="Rectangle_15706" data-name="Rectangle 15706" class="cls-39" x="143.37" y="16" width="3.82" height="211.54"/><rect id="Rectangle_15707" data-name="Rectangle 15707" class="cls-40" x="147.2" y="16" width="3.82" height="211.54"/><rect id="Rectangle_15708" data-name="Rectangle 15708" class="cls-41" x="151.01" y="16" width="3.82" height="211.54"/><rect id="Rectangle_15709" data-name="Rectangle 15709" class="cls-42" x="154.83" y="16" width="3.82" height="211.54"/><rect id="Rectangle_15710" data-name="Rectangle 15710" class="cls-43" x="158.65" y="16" width="3.82" height="211.54"/><rect id="Rectangle_15711" data-name="Rectangle 15711" class="cls-44" x="162.47" y="16" width="3.82" height="211.54"/><rect id="Rectangle_15712" data-name="Rectangle 15712" class="cls-45" x="166.29" y="16" width="3.82" height="211.54"/></g></g><path id="Path_94852" data-name="Path 94852" class="cls-46" d="M172.89,104.38a208.28,208.28,0,0,1-3.13,37.22,174.67,174.67,0,0,1-8.5,31,126.29,126.29,0,0,1-12.55,24.72,95.7,95.7,0,0,1-15.24,18.06,62.22,62.22,0,0,1-16.79,11.13,42.82,42.82,0,0,1-17,3.8A44,44,0,0,1,81.76,227a29.77,29.77,0,0,1-12.3-10,42.61,42.61,0,0,1-6.61-15.65,95.84,95.84,0,0,1-2-20.41V73.41a17.49,17.49,0,0,0-.41-4.84,13.37,13.37,0,0,1-.69-4.07,6.74,6.74,0,0,1,3.55-5.89A12.82,12.82,0,0,1,70,56.92,19.68,19.68,0,0,1,83,61.21,13.7,13.7,0,0,1,88.34,72V182.33c0,7.22,1.08,12.64,3.23,16.16a10.35,10.35,0,0,0,9.74,4.64,17.8,17.8,0,0,0,9.35-3,42.54,42.54,0,0,0,10-9.2A78.26,78.26,0,0,0,130,176.08a130.85,130.85,0,0,0,7.71-19.59A157.14,157.14,0,0,0,142.93,133a180.09,180.09,0,0,0,1.86-26.45,109.93,109.93,0,0,0-3-26,63.22,63.22,0,0,0-9.07-21.06,45.07,45.07,0,0,0-15.66-14,47.23,47.23,0,0,0-22.71-5.14,71,71,0,0,0-19.77,2.5A48.86,48.86,0,0,0,60,49.63,43.64,43.64,0,0,0,49.68,59.75,53.82,53.82,0,0,0,42.9,72.33a66.33,66.33,0,0,0-3.62,14,103.52,103.52,0,0,0-1.06,14.61,67.68,67.68,0,0,0,2,17.36,75.53,75.53,0,0,0,4.64,13,43.38,43.38,0,0,0,4.74,8c.79,1,1.33,1.67,1.73,2.14a4.93,4.93,0,0,1,4.38,1.86,7.88,7.88,0,0,1,1.55,5A18,18,0,0,1,55.92,155a23.31,23.31,0,0,1-3.49,6.06,21.34,21.34,0,0,1-5,4.57,11.61,11.61,0,0,1-6.4,2,11,11,0,0,1-2.85-.37,8.9,8.9,0,0,1-3-1.42,16.75,16.75,0,0,1-2.53-2.38,64.89,64.89,0,0,1-4.64-5.57,82.92,82.92,0,0,1-5.76-8.86,87,87,0,0,1-5.63-12.21,99,99,0,0,1-4.3-15.51,97.64,97.64,0,0,1-1.69-18.76,104.8,104.8,0,0,1,6-36A82.68,82.68,0,0,1,33.8,38.28,77.5,77.5,0,0,1,60.51,19.82a88.49,88.49,0,0,1,34.65-6.6A74.65,74.65,0,0,1,130.23,21a70.79,70.79,0,0,1,24.23,20.6,88.22,88.22,0,0,1,13.92,29.13,126.83,126.83,0,0,1,4.51,33.62Z"/><g class="cls-47"><g id="Group_39131" data-name="Group 39131"><rect id="Rectangle_15713" data-name="Rectangle 15713" class="cls-48" x="207" y="125.62" width="2.49" height="47.82"/><rect id="Rectangle_15714" data-name="Rectangle 15714" class="cls-49" x="209.49" y="125.62" width="2.54" height="47.82"/><rect id="Rectangle_15715" data-name="Rectangle 15715" class="cls-50" x="212.03" y="125.62" width="2.54" height="47.82"/><rect id="Rectangle_15716" data-name="Rectangle 15716" class="cls-51" x="214.57" y="125.62" width="2.54" height="47.82"/><rect id="Rectangle_15717" data-name="Rectangle 15717" class="cls-52" x="217.12" y="125.62" width="2.54" height="47.82"/><rect id="Rectangle_15718" data-name="Rectangle 15718" class="cls-53" x="219.66" y="125.62" width="2.54" height="47.82"/><rect id="Rectangle_15719" data-name="Rectangle 15719" class="cls-54" x="222.2" y="125.62" width="2.54" height="47.82"/><rect id="Rectangle_15720" data-name="Rectangle 15720" class="cls-55" x="224.74" y="125.62" width="2.54" height="47.82"/><rect id="Rectangle_15721" data-name="Rectangle 15721" class="cls-56" x="227.28" y="125.62" width="2.54" height="47.82"/><rect id="Rectangle_15722" data-name="Rectangle 15722" class="cls-57" x="229.82" y="125.62" width="0.57" height="47.82"/><rect id="Rectangle_15723" data-name="Rectangle 15723" class="cls-58" x="184.08" y="106.84" width="2.54" height="117.83"/><rect id="Rectangle_15724" data-name="Rectangle 15724" class="cls-59" x="186.63" y="106.84" width="2.54" height="117.83"/><rect id="Rectangle_15725" data-name="Rectangle 15725" class="cls-60" x="189.17" y="106.84" width="2.54" height="117.83"/><rect id="Rectangle_15726" data-name="Rectangle 15726" class="cls-61" x="191.71" y="106.84" width="2.54" height="117.83"/><rect id="Rectangle_15727" data-name="Rectangle 15727" class="cls-62" x="194.24" y="106.84" width="2.54" height="117.83"/><rect id="Rectangle_15728" data-name="Rectangle 15728" class="cls-63" x="196.79" y="106.84" width="2.54" height="117.83"/><rect id="Rectangle_15729" data-name="Rectangle 15729" class="cls-64" x="199.33" y="106.84" width="2.54" height="117.83"/><rect id="Rectangle_15730" data-name="Rectangle 15730" class="cls-65" x="201.87" y="106.84" width="2.54" height="117.83"/><rect id="Rectangle_15731" data-name="Rectangle 15731" class="cls-66" x="204.41" y="106.84" width="2.54" height="117.83"/><rect id="Rectangle_15732" data-name="Rectangle 15732" class="cls-48" x="206.96" y="106.84" width="2.54" height="117.83"/><rect id="Rectangle_15733" data-name="Rectangle 15733" class="cls-49" x="209.49" y="106.84" width="2.54" height="117.83"/><rect id="Rectangle_15734" data-name="Rectangle 15734" class="cls-50" x="212.03" y="106.84" width="2.54" height="117.83"/><rect id="Rectangle_15735" data-name="Rectangle 15735" class="cls-51" x="214.57" y="106.84" width="2.54" height="117.83"/><rect id="Rectangle_15736" data-name="Rectangle 15736" class="cls-52" x="217.12" y="106.84" width="2.54" height="117.83"/><rect id="Rectangle_15737" data-name="Rectangle 15737" class="cls-53" x="219.66" y="106.84" width="2.54" height="117.83"/><rect id="Rectangle_15738" data-name="Rectangle 15738" class="cls-54" x="222.2" y="106.84" width="2.54" height="117.83"/><rect id="Rectangle_15739" data-name="Rectangle 15739" class="cls-55" x="224.74" y="106.84" width="2.54" height="117.83"/><rect id="Rectangle_15740" data-name="Rectangle 15740" class="cls-56" x="227.28" y="106.84" width="2.54" height="117.83"/><rect id="Rectangle_15741" data-name="Rectangle 15741" class="cls-57" x="229.82" y="106.84" width="2.54" height="117.83"/><rect id="Rectangle_15742" data-name="Rectangle 15742" class="cls-67" x="232.37" y="106.84" width="2.54" height="117.83"/><rect id="Rectangle_15743" data-name="Rectangle 15743" class="cls-68" x="234.91" y="106.84" width="2.54" height="117.83"/><rect id="Rectangle_15744" data-name="Rectangle 15744" class="cls-69" x="237.45" y="106.84" width="2.54" height="117.83"/><rect id="Rectangle_15745" data-name="Rectangle 15745" class="cls-70" x="239.98" y="106.84" width="2.54" height="117.83"/><rect id="Rectangle_15746" data-name="Rectangle 15746" class="cls-71" x="242.53" y="106.84" width="2.54" height="117.83"/><rect id="Rectangle_15747" data-name="Rectangle 15747" class="cls-72" x="245.07" y="106.84" width="2.54" height="117.83"/><rect id="Rectangle_15748" data-name="Rectangle 15748" class="cls-73" x="247.61" y="106.84" width="2.54" height="117.83"/><rect id="Rectangle_15749" data-name="Rectangle 15749" class="cls-74" x="250.15" y="106.84" width="2.54" height="117.83"/><rect id="Rectangle_15750" data-name="Rectangle 15750" class="cls-75" x="252.7" y="106.84" width="2.54" height="117.83"/><rect id="Rectangle_15751" data-name="Rectangle 15751" class="cls-76" x="255.24" y="106.84" width="2.54" height="117.83"/><rect id="Rectangle_15752" data-name="Rectangle 15752" class="cls-77" x="257.77" y="106.84" width="2.54" height="117.83"/><rect id="Rectangle_15753" data-name="Rectangle 15753" class="cls-78" x="260.32" y="106.84" width="2.54" height="117.83"/><rect id="Rectangle_15754" data-name="Rectangle 15754" class="cls-79" x="262.86" y="106.84" width="2.54" height="117.83"/><rect id="Rectangle_15755" data-name="Rectangle 15755" class="cls-80" x="265.4" y="106.84" width="2.54" height="117.83"/><rect id="Rectangle_15756" data-name="Rectangle 15756" class="cls-81" x="267.94" y="106.84" width="2.54" height="117.83"/><rect id="Rectangle_15757" data-name="Rectangle 15757" class="cls-82" x="270.49" y="106.84" width="2.54" height="117.83"/><rect id="Rectangle_15758" data-name="Rectangle 15758" class="cls-83" x="273.02" y="106.84" width="2.54" height="117.83"/><rect id="Rectangle_15759" data-name="Rectangle 15759" class="cls-84" x="275.56" y="106.84" width="2.54" height="117.83"/><rect id="Rectangle_15760" data-name="Rectangle 15760" class="cls-85" x="278.1" y="106.84" width="2.54" height="117.83"/><rect id="Rectangle_15761" data-name="Rectangle 15761" class="cls-86" x="280.65" y="106.84" width="2.54" height="117.83"/><rect id="Rectangle_15762" data-name="Rectangle 15762" class="cls-87" x="283.19" y="106.84" width="2.54" height="117.83"/><rect id="Rectangle_15763" data-name="Rectangle 15763" class="cls-88" x="285.73" y="106.84" width="2.54" height="117.83"/><rect id="Rectangle_15764" data-name="Rectangle 15764" class="cls-88" x="288.27" y="106.84" width="0.21" height="117.83"/></g></g><path id="Path_94855" data-name="Path 94855" class="cls-89" d="M288.48,165.53a13.3,13.3,0,0,0-6.75-4.38,10.78,10.78,0,0,0-8.06,1,11.19,11.19,0,0,0-5.33,8.17,70.63,70.63,0,0,1-3.55,12.25,40.77,40.77,0,0,1-6.1,10.66,28,28,0,0,1-9.05,7.42,27.56,27.56,0,0,1-12.81,2.78,28.5,28.5,0,0,1-8.8-1.23,23,23,0,0,1-6.49-3.3,20.87,20.87,0,0,1-4.79-4.91,29.3,29.3,0,0,1-2.11-3.48,57.87,57.87,0,0,0,15.78-8.31A64.2,64.2,0,0,0,244,168.44a58.75,58.75,0,0,0,8.35-16.32,54.8,54.8,0,0,0,2.79-16.89,39.71,39.71,0,0,0-1.86-12.38,28.72,28.72,0,0,0-5.57-9.94,25.24,25.24,0,0,0-9-6.49A29.13,29.13,0,0,0,227,104.14a32.47,32.47,0,0,0-17.28,5.07A51,51,0,0,0,195.21,123a73.77,73.77,0,0,0-10.13,20.56,83.45,83.45,0,0,0-3.83,25.58,65.39,65.39,0,0,0,4.38,24.55A55.49,55.49,0,0,0,197.32,212a51.18,51.18,0,0,0,16.79,11.44,50.45,50.45,0,0,0,19.65,4,61.76,61.76,0,0,0,19.09-2.78,53.18,53.18,0,0,0,14.59-7.24A47.94,47.94,0,0,0,278,207.23a65.12,65.12,0,0,0,6.94-11.53A61.19,61.19,0,0,0,289,184.08a95.82,95.82,0,0,0,1.9-10.06A10.75,10.75,0,0,0,288.48,165.53Zm-78.59,3.38v-.67a63.19,63.19,0,0,1,.13-6.88,84.05,84.05,0,0,1,1.07-8.81,94.2,94.2,0,0,1,2.06-9.28,40.23,40.23,0,0,1,3.06-7.94,18.44,18.44,0,0,1,4-5.29,6.25,6.25,0,0,1,4.27-1.65,2.09,2.09,0,0,1,1.92,1.26,11.65,11.65,0,0,1,1.18,5.83,41.94,41.94,0,0,1-1.54,11.36,40.82,40.82,0,0,1-4.36,10.06,36.76,36.76,0,0,1-11.82,12Z"/><path id="Path_94856" data-name="Path 94856" class="cls-90" d="M245.74,84.93c2.1.17,4.42.3,7,.4,2.19.19,4.84.3,7.94.35s6.58.11,10.41.2V38.34a18.91,18.91,0,0,0-.49-4.8,17.12,17.12,0,0,0-.93-2.78,8.63,8.63,0,0,0-.93-1.65,2.05,2.05,0,0,1-.49-1.3,1.63,1.63,0,0,1,.83-1.37,8.3,8.3,0,0,1,2.19-.93,17.25,17.25,0,0,1,2.94-.61,22.81,22.81,0,0,1,3.09-.21,15.87,15.87,0,0,1,11,3.63,11.32,11.32,0,0,1,4,8.64V86.15q12.87,0,27.19-.28T348.21,85c1.28-1.38,2.31-1.88,3.08-1.52A3.25,3.25,0,0,1,352.8,86a20.48,20.48,0,0,1,.07,5.07,30.11,30.11,0,0,1-1.11,5.81,16.65,16.65,0,0,1-2.25,4.88,4.08,4.08,0,0,1-3.21,2q-16.86.42-29.81.49t-24.17.07v88.91a14.93,14.93,0,0,0,2.6,9.87,8.76,8.76,0,0,0,7,3,10.22,10.22,0,0,0,7.34-3,27.93,27.93,0,0,0,5.34-7.53,52.92,52.92,0,0,0,3.7-9.8q1.46-5.27,2.41-9.93a12.49,12.49,0,0,1,2.74-6.38,5.55,5.55,0,0,1,4-2,6.81,6.81,0,0,1,3.42,1,12.69,12.69,0,0,1,3.21,2.67,14.06,14.06,0,0,1,2.33,3.71,10.15,10.15,0,0,1,.93,4.1v.68A4.37,4.37,0,0,1,337,181a118.22,118.22,0,0,1-4.87,14.66,61.47,61.47,0,0,1-8,14.09,43.66,43.66,0,0,1-11.58,10.68,28.92,28.92,0,0,1-15.77,4.25A30.12,30.12,0,0,1,286.46,223a20.29,20.29,0,0,1-8.15-5.48,26.17,26.17,0,0,1-5.34-9.65,46.52,46.52,0,0,1-1.91-14.26V104.38c-3.1,0-5.86,0-8.28-.07s-4.45-.12-6.1-.2l-5.07-.28a7.55,7.55,0,0,1-5.83-3,17.2,17.2,0,0,1-3.56-6.49A12.23,12.23,0,0,1,242,87.9a3.54,3.54,0,0,1,3.79-3Z"/><g class="cls-91"><g id="Group_39132" data-name="Group 39132"><rect id="Rectangle_15765" data-name="Rectangle 15765" class="cls-92" x="241.47" y="24.64" width="0.19" height="200.03"/><rect id="Rectangle_15766" data-name="Rectangle 15766" class="cls-93" x="241.66" y="24.64" width="2.72" height="200.03"/><rect id="Rectangle_15767" data-name="Rectangle 15767" class="cls-94" x="244.37" y="24.64" width="2.72" height="200.03"/><rect id="Rectangle_15768" data-name="Rectangle 15768" class="cls-95" x="247.08" y="24.64" width="2.72" height="200.03"/><rect id="Rectangle_15769" data-name="Rectangle 15769" class="cls-96" x="249.79" y="24.64" width="2.72" height="200.03"/><rect id="Rectangle_15770" data-name="Rectangle 15770" class="cls-97" x="252.51" y="24.64" width="2.72" height="200.03"/><rect id="Rectangle_15771" data-name="Rectangle 15771" class="cls-98" x="255.23" y="24.64" width="2.72" height="200.03"/><rect id="Rectangle_15772" data-name="Rectangle 15772" class="cls-99" x="257.94" y="24.64" width="2.72" height="200.03"/><rect id="Rectangle_15773" data-name="Rectangle 15773" class="cls-100" x="260.66" y="24.64" width="2.72" height="200.03"/><rect id="Rectangle_15774" data-name="Rectangle 15774" class="cls-101" x="263.38" y="24.64" width="2.72" height="200.03"/><rect id="Rectangle_15775" data-name="Rectangle 15775" class="cls-102" x="266.09" y="24.64" width="2.72" height="200.03"/><rect id="Rectangle_15776" data-name="Rectangle 15776" class="cls-103" x="268.81" y="24.64" width="2.72" height="200.03"/><rect id="Rectangle_15777" data-name="Rectangle 15777" class="cls-104" x="271.53" y="24.64" width="2.72" height="200.03"/><rect id="Rectangle_15778" data-name="Rectangle 15778" class="cls-105" x="274.24" y="24.64" width="2.72" height="200.03"/><rect id="Rectangle_15779" data-name="Rectangle 15779" class="cls-106" x="276.96" y="24.64" width="2.72" height="200.03"/><rect id="Rectangle_15780" data-name="Rectangle 15780" class="cls-107" x="279.67" y="24.64" width="2.72" height="200.03"/><rect id="Rectangle_15781" data-name="Rectangle 15781" class="cls-108" x="282.39" y="24.64" width="2.72" height="200.03"/><rect id="Rectangle_15782" data-name="Rectangle 15782" class="cls-109" x="285.11" y="24.64" width="2.72" height="200.03"/><rect id="Rectangle_15783" data-name="Rectangle 15783" class="cls-110" x="287.82" y="24.64" width="2.72" height="200.03"/><rect id="Rectangle_15784" data-name="Rectangle 15784" class="cls-111" x="290.53" y="24.64" width="2.72" height="200.03"/><rect id="Rectangle_15785" data-name="Rectangle 15785" class="cls-112" x="293.25" y="24.64" width="2.72" height="200.03"/><rect id="Rectangle_15786" data-name="Rectangle 15786" class="cls-113" x="295.97" y="24.64" width="2.72" height="200.03"/><rect id="Rectangle_15787" data-name="Rectangle 15787" class="cls-114" x="298.68" y="24.64" width="2.72" height="200.03"/><rect id="Rectangle_15788" data-name="Rectangle 15788" class="cls-115" x="301.4" y="24.64" width="2.72" height="200.03"/><rect id="Rectangle_15789" data-name="Rectangle 15789" class="cls-116" x="304.12" y="24.64" width="2.72" height="200.03"/><rect id="Rectangle_15790" data-name="Rectangle 15790" class="cls-117" x="306.83" y="24.64" width="2.72" height="200.03"/><rect id="Rectangle_15791" data-name="Rectangle 15791" class="cls-118" x="309.55" y="24.64" width="2.72" height="200.03"/><rect id="Rectangle_15792" data-name="Rectangle 15792" class="cls-119" x="312.26" y="24.64" width="2.72" height="200.03"/><rect id="Rectangle_15793" data-name="Rectangle 15793" class="cls-120" x="314.98" y="24.64" width="2.72" height="200.03"/><rect id="Rectangle_15794" data-name="Rectangle 15794" class="cls-121" x="317.7" y="24.64" width="2.72" height="200.03"/><rect id="Rectangle_15795" data-name="Rectangle 15795" class="cls-122" x="320.4" y="24.64" width="2.72" height="200.03"/><rect id="Rectangle_15796" data-name="Rectangle 15796" class="cls-123" x="323.12" y="24.64" width="2.72" height="200.03"/><rect id="Rectangle_15797" data-name="Rectangle 15797" class="cls-124" x="325.84" y="24.64" width="2.72" height="200.03"/><rect id="Rectangle_15798" data-name="Rectangle 15798" class="cls-125" x="328.55" y="24.64" width="2.72" height="200.03"/><rect id="Rectangle_15799" data-name="Rectangle 15799" class="cls-126" x="331.27" y="24.64" width="2.72" height="200.03"/><rect id="Rectangle_15800" data-name="Rectangle 15800" class="cls-127" x="333.99" y="24.64" width="2.72" height="200.03"/><rect id="Rectangle_15801" data-name="Rectangle 15801" class="cls-128" x="336.7" y="24.64" width="2.72" height="200.03"/><rect id="Rectangle_15802" data-name="Rectangle 15802" class="cls-129" x="339.42" y="24.64" width="2.72" height="200.03"/><rect id="Rectangle_15803" data-name="Rectangle 15803" class="cls-130" x="342.14" y="24.64" width="2.72" height="200.03"/><rect id="Rectangle_15804" data-name="Rectangle 15804" class="cls-131" x="344.85" y="24.64" width="2.72" height="200.03"/><rect id="Rectangle_15805" data-name="Rectangle 15805" class="cls-132" x="347.57" y="24.64" width="2.72" height="200.03"/><rect id="Rectangle_15806" data-name="Rectangle 15806" class="cls-133" x="350.29" y="24.64" width="2.72" height="200.03"/><rect id="Rectangle_15807" data-name="Rectangle 15807" class="cls-134" x="353" y="24.64" width="0.06" height="200.03"/></g></g><path id="Path_94858" data-name="Path 94858" class="cls-135" d="M355.64,91.34a32.62,32.62,0,0,1-1.19,6.35,19.14,19.14,0,0,1-2.65,5.68,6.61,6.61,0,0,1-5.5,3.24c-11.19.28-21.23.44-29.78.49-7.33,0-14.52.06-21.42.07v86.12a12.8,12.8,0,0,0,1.93,8.05,5.94,5.94,0,0,0,4.88,2,7.43,7.43,0,0,0,5.38-2.22,25,25,0,0,0,4.8-6.78,50.45,50.45,0,0,0,3.51-9.28c.93-3.43,1.73-6.71,2.35-9.77a14.75,14.75,0,0,1,3.47-7.74,8.17,8.17,0,0,1,6-2.83,9.67,9.67,0,0,1,4.83,1.36,15.35,15.35,0,0,1,3.92,3.26,16.38,16.38,0,0,1,2.79,4.41,13.06,13.06,0,0,1,1.12,5.22v.69a6.34,6.34,0,0,1-.39,2,120.16,120.16,0,0,1-5,14.92,64.36,64.36,0,0,1-8.31,14.75,46.68,46.68,0,0,1-12.3,11.35,31.7,31.7,0,0,1-17.25,4.64,32.89,32.89,0,0,1-11.29-1.85,23,23,0,0,1-9.28-6.23,29.15,29.15,0,0,1-5.92-10.66,49,49,0,0,1-2.05-15.12V107.15c-2.06,0-3.9,0-5.57-.06-2.44,0-4.52-.12-6.2-.21-1.86-.08-3.56-.17-5-.27a10.22,10.22,0,0,1-7.84-3.91,20,20,0,0,1-4.12-7.56,15,15,0,0,1-.3-8,6.3,6.3,0,0,1,6.5-5H246c2,.18,4.35.32,6.84.4H253c2.11.18,4.72.29,7.75.34l7.59.13V38.35a16.47,16.47,0,0,0-.39-4.08,15.57,15.57,0,0,0-.79-2.36,6.15,6.15,0,0,0-.64-1.11,4.92,4.92,0,0,1-1.1-3,4.37,4.37,0,0,1,2.06-3.7,10.86,10.86,0,0,1,2.93-1.31,22.94,22.94,0,0,1,3.39-.71,26.37,26.37,0,0,1,3.44-.22,18.61,18.61,0,0,1,12.89,4.34,14,14,0,0,1,5,10.79V83.39c7.76,0,15.95-.1,24.36-.27,9.15-.17,18.42-.49,27.57-.92a4.8,4.8,0,0,1,5.45-1.3,5.62,5.62,0,0,1,3.07,4.65A22.89,22.89,0,0,1,355.64,91.34Z"/><g class="cls-136"><g id="Group_39133" data-name="Group 39133"><rect id="Rectangle_15808" data-name="Rectangle 15808" class="cls-58" x="292.3" y="24.64" width="0.19" height="200.03"/><rect id="Rectangle_15809" data-name="Rectangle 15809" class="cls-58" x="292.48" y="24.64" width="2.72" height="200.03"/><rect id="Rectangle_15810" data-name="Rectangle 15810" class="cls-59" x="295.2" y="24.64" width="2.72" height="200.03"/><rect id="Rectangle_15811" data-name="Rectangle 15811" class="cls-60" x="297.91" y="24.64" width="2.72" height="200.03"/><rect id="Rectangle_15812" data-name="Rectangle 15812" class="cls-61" x="300.63" y="24.64" width="2.72" height="200.03"/><rect id="Rectangle_15813" data-name="Rectangle 15813" class="cls-62" x="303.35" y="24.64" width="2.72" height="200.03"/><rect id="Rectangle_15814" data-name="Rectangle 15814" class="cls-63" x="306.06" y="24.64" width="2.72" height="200.03"/><rect id="Rectangle_15815" data-name="Rectangle 15815" class="cls-64" x="308.78" y="24.64" width="2.72" height="200.03"/><rect id="Rectangle_15816" data-name="Rectangle 15816" class="cls-65" x="311.49" y="24.64" width="2.72" height="200.03"/><rect id="Rectangle_15817" data-name="Rectangle 15817" class="cls-66" x="314.21" y="24.64" width="2.72" height="200.03"/><rect id="Rectangle_15818" data-name="Rectangle 15818" class="cls-48" x="316.92" y="24.64" width="2.72" height="200.03"/><rect id="Rectangle_15819" data-name="Rectangle 15819" class="cls-49" x="319.63" y="24.64" width="2.72" height="200.03"/><rect id="Rectangle_15820" data-name="Rectangle 15820" class="cls-50" x="322.35" y="24.64" width="2.72" height="200.03"/><rect id="Rectangle_15821" data-name="Rectangle 15821" class="cls-51" x="325.07" y="24.64" width="2.72" height="200.03"/><rect id="Rectangle_15822" data-name="Rectangle 15822" class="cls-52" x="327.78" y="24.64" width="2.72" height="200.03"/><rect id="Rectangle_15823" data-name="Rectangle 15823" class="cls-53" x="330.5" y="24.64" width="2.72" height="200.03"/><rect id="Rectangle_15824" data-name="Rectangle 15824" class="cls-54" x="333.22" y="24.64" width="2.72" height="200.03"/><rect id="Rectangle_15825" data-name="Rectangle 15825" class="cls-55" x="335.93" y="24.64" width="2.72" height="200.03"/><rect id="Rectangle_15826" data-name="Rectangle 15826" class="cls-56" x="338.65" y="24.64" width="2.72" height="200.03"/><rect id="Rectangle_15827" data-name="Rectangle 15827" class="cls-57" x="341.37" y="24.64" width="2.72" height="200.03"/><rect id="Rectangle_15828" data-name="Rectangle 15828" class="cls-67" x="344.08" y="24.64" width="2.72" height="200.03"/><rect id="Rectangle_15829" data-name="Rectangle 15829" class="cls-68" x="346.8" y="24.64" width="2.72" height="200.03"/><rect id="Rectangle_15830" data-name="Rectangle 15830" class="cls-69" x="349.52" y="24.64" width="2.72" height="200.03"/><rect id="Rectangle_15831" data-name="Rectangle 15831" class="cls-70" x="352.22" y="24.64" width="2.72" height="200.03"/><rect id="Rectangle_15832" data-name="Rectangle 15832" class="cls-71" x="354.94" y="24.64" width="2.72" height="200.03"/><rect id="Rectangle_15833" data-name="Rectangle 15833" class="cls-72" x="357.66" y="24.64" width="2.72" height="200.03"/><rect id="Rectangle_15834" data-name="Rectangle 15834" class="cls-73" x="360.37" y="24.64" width="2.72" height="200.03"/><rect id="Rectangle_15835" data-name="Rectangle 15835" class="cls-74" x="363.09" y="24.64" width="2.72" height="200.03"/><rect id="Rectangle_15836" data-name="Rectangle 15836" class="cls-75" x="365.81" y="24.64" width="2.72" height="200.03"/><rect id="Rectangle_15837" data-name="Rectangle 15837" class="cls-76" x="368.52" y="24.64" width="2.72" height="200.03"/><rect id="Rectangle_15838" data-name="Rectangle 15838" class="cls-77" x="371.24" y="24.64" width="2.72" height="200.03"/><rect id="Rectangle_15839" data-name="Rectangle 15839" class="cls-78" x="373.96" y="24.64" width="2.72" height="200.03"/><rect id="Rectangle_15840" data-name="Rectangle 15840" class="cls-79" x="376.67" y="24.64" width="2.72" height="200.03"/><rect id="Rectangle_15841" data-name="Rectangle 15841" class="cls-80" x="379.39" y="24.64" width="2.72" height="200.03"/><rect id="Rectangle_15842" data-name="Rectangle 15842" class="cls-81" x="382.1" y="24.64" width="2.72" height="200.03"/><rect id="Rectangle_15843" data-name="Rectangle 15843" class="cls-82" x="384.82" y="24.64" width="2.72" height="200.03"/><rect id="Rectangle_15844" data-name="Rectangle 15844" class="cls-83" x="387.54" y="24.64" width="2.72" height="200.03"/><rect id="Rectangle_15845" data-name="Rectangle 15845" class="cls-84" x="390.25" y="24.64" width="2.72" height="200.03"/><rect id="Rectangle_15846" data-name="Rectangle 15846" class="cls-85" x="392.96" y="24.64" width="2.72" height="200.03"/><rect id="Rectangle_15847" data-name="Rectangle 15847" class="cls-86" x="395.68" y="24.64" width="2.72" height="200.03"/><rect id="Rectangle_15848" data-name="Rectangle 15848" class="cls-87" x="398.39" y="24.64" width="2.72" height="200.03"/><rect id="Rectangle_15849" data-name="Rectangle 15849" class="cls-88" x="401.11" y="24.64" width="2.72" height="200.03"/><rect id="Rectangle_15850" data-name="Rectangle 15850" class="cls-88" x="403.83" y="24.64" width="0.06" height="200.03"/></g></g><path id="Path_94860" data-name="Path 94860" class="cls-137" d="M406.46,91.34a34.2,34.2,0,0,1-1.2,6.35,19.49,19.49,0,0,1-2.64,5.68,6.65,6.65,0,0,1-5.51,3.24c-11.19.28-21.23.44-29.79.49-7.33,0-14.51.06-21.4.07v86.12a12.75,12.75,0,0,0,1.92,8.05,5.94,5.94,0,0,0,4.88,2,7.35,7.35,0,0,0,5.38-2.22,25,25,0,0,0,4.8-6.78,50.42,50.42,0,0,0,3.5-9.28c.93-3.43,1.73-6.71,2.36-9.77a14.74,14.74,0,0,1,3.46-7.74,8.23,8.23,0,0,1,6-2.84,9.61,9.61,0,0,1,4.82,1.4,15.39,15.39,0,0,1,3.93,3.26,16.6,16.6,0,0,1,2.78,4.41,13,13,0,0,1,1.12,5.22v.68a6.63,6.63,0,0,1-.38,2,120.16,120.16,0,0,1-4.95,14.92,64.36,64.36,0,0,1-8.31,14.75,46.87,46.87,0,0,1-12.31,11.35,31.64,31.64,0,0,1-17.24,4.64,32.91,32.91,0,0,1-11.3-1.85,22.92,22.92,0,0,1-9.28-6.23,28.78,28.78,0,0,1-5.92-10.66,49.26,49.26,0,0,1-2.06-15.12v-86.4c-2.06,0-3.89,0-5.57-.06-2.43,0-4.52-.12-6.2-.21-1.85-.08-3.54-.17-5-.27a10.22,10.22,0,0,1-7.84-3.91,20,20,0,0,1-4.13-7.56,15.15,15.15,0,0,1-.3-8,6.32,6.32,0,0,1,6.5-5h.25c2.05.18,4.35.32,6.83.4h.14c2.12.18,4.73.29,7.75.34l7.59.13V38.33a15.92,15.92,0,0,0-.38-4.07,13.92,13.92,0,0,0-.79-2.36,6.8,6.8,0,0,0-.64-1.11,4.82,4.82,0,0,1-1.06-3,4.34,4.34,0,0,1,2.07-3.64,10.62,10.62,0,0,1,2.94-1.31,21.38,21.38,0,0,1,3.38-.72,28.41,28.41,0,0,1,3.45-.22A18.59,18.59,0,0,1,341,26.23a14,14,0,0,1,5,10.77V83.41c7.76,0,15.94-.1,24.35-.27,9.16-.17,18.43-.49,27.58-.93a4.8,4.8,0,0,1,5.44-1.29,5.63,5.63,0,0,1,3.08,4.64A23.3,23.3,0,0,1,406.46,91.34Z"/><path id="Path_94862" data-name="Path 94862" class="cls-138" d="M141.32,250.39a2,2,0,0,1-4.09.1,2,2,0,0,1,3.53-1.46A1.83,1.83,0,0,1,141.32,250.39Zm-.56,5v14.64H138V255.44Z"/><path id="Path_94863" data-name="Path 94863" class="cls-138" d="M144.37,255.43H147v2h.12a4.93,4.93,0,0,1,1.93-1.78,5.55,5.55,0,0,1,2.7-.73,5.41,5.41,0,0,1,4.14,1.55,6.14,6.14,0,0,1,1.44,4.37v9.19h-2.74v-9a3.24,3.24,0,0,0-2.85-3.58,3.31,3.31,0,0,0-.77,0,3.42,3.42,0,0,0-2.74,1.33,4.8,4.8,0,0,0-1.06,3.21v8.08h-2.79Z"/><path id="Path_94864" data-name="Path 94864" class="cls-138" d="M164.05,250.39a1.85,1.85,0,0,1-.56,1.37,1.94,1.94,0,0,1-3.31-1.37,2,2,0,0,1,.56-1.37,1.87,1.87,0,0,1,1.37-.57A1.94,1.94,0,0,1,164.05,250.39Zm-.56,5v14.63h-2.75V255.43Z"/><path id="Path_94865" data-name="Path 94865" class="cls-138" d="M172.71,270.3a4.2,4.2,0,0,1-3-1.07,4.06,4.06,0,0,1-1.21-3.07V258H166v-2.5h2.56V251h2.75v4.48h3.58V258h-3.58v7.23a2.67,2.67,0,0,0,.57,2,1.87,1.87,0,0,0,1.29.52,2.81,2.81,0,0,0,1.21-.27l.87,2.46a7.66,7.66,0,0,1-2.51.39Z"/><path id="Path_94866" data-name="Path 94866" class="cls-138" d="M181.19,250.39a1.86,1.86,0,0,1-.57,1.37,1.93,1.93,0,1,1,.57-1.37Zm-.57,5v14.63h-2.75V255.43Z"/><path id="Path_94867" data-name="Path 94867" class="cls-138" d="M189.6,255a6.82,6.82,0,0,1,4.81,1.64,5.8,5.8,0,0,1,1.76,4.45v9h-2.62v-2h-.13a5.22,5.22,0,0,1-4.53,2.51,5.85,5.85,0,0,1-4-1.43,4.58,4.58,0,0,1-1.64-3.58,4.37,4.37,0,0,1,1.68-3.61,7.28,7.28,0,0,1,4.58-1.34,8.16,8.16,0,0,1,4,.9v-.63a3.09,3.09,0,0,0-1.14-2.43,3.87,3.87,0,0,0-2.65-1,4.22,4.22,0,0,0-3.64,2l-2.42-1.53A6.76,6.76,0,0,1,189.6,255Zm-3.55,10.67a2.19,2.19,0,0,0,1,1.72,3.37,3.37,0,0,0,2.13.72,4.38,4.38,0,0,0,3.08-1.29,4,4,0,0,0,1.37-3,5.65,5.65,0,0,0-3.58-1,4.65,4.65,0,0,0-2.8.8,2.4,2.4,0,0,0-1.17,2Z"/><path id="Path_94868" data-name="Path 94868" class="cls-138" d="M204.76,270.3a4.18,4.18,0,0,1-3-1.07,4.09,4.09,0,0,1-1.2-3.07V258H198v-2.5h2.57V251h2.75v4.48h3.57V258h-3.57v7.23a2.63,2.63,0,0,0,.57,2,1.84,1.84,0,0,0,1.28.52,3.28,3.28,0,0,0,1.23-.27l.87,2.46A7.68,7.68,0,0,1,204.76,270.3Z"/><path id="Path_94869" data-name="Path 94869" class="cls-138" d="M213.24,250.39a1.86,1.86,0,0,1-.57,1.37,1.91,1.91,0,0,1-1.37.57,1.94,1.94,0,0,1-1.94-1.94,2,2,0,0,1,.56-1.37,1.88,1.88,0,0,1,1.38-.57A2,2,0,0,1,213.24,250.39Zm-.57,5v14.63h-2.75V255.43Z"/><path id="Path_94870" data-name="Path 94870" class="cls-138" d="M223.35,270.06h-2.74l-5.87-14.63h3L222,266.79h0l4.36-11.36h2.92Z"/><path id="Path_94871" data-name="Path 94871" class="cls-138" d="M237.23,270.54a7,7,0,0,1-5.34-2.2,7.8,7.8,0,0,1-2.13-5.58,7.94,7.94,0,0,1,2-5.57,7.28,7.28,0,0,1,10.3-.18l.07.07a8.37,8.37,0,0,1,1.91,5.88v.3H232.62a4.74,4.74,0,0,0,1.43,3.46,4.65,4.65,0,0,0,7.41-1.31l2.45,1.19a7.31,7.31,0,0,1-2.73,2.87A7.43,7.43,0,0,1,237.23,270.54ZM232.87,261h8.39a3.67,3.67,0,0,0-1.23-2.53,4.36,4.36,0,0,0-3-1,4,4,0,0,0-2.67,1,4.66,4.66,0,0,0-1.49,2.56Z"/><path id="Path_94872" data-name="Path 94872" class="cls-138" d="M259.36,248.45a5.17,5.17,0,0,1,2.45.51l-.74,2.42a3.45,3.45,0,0,0-1.61-.36,2.13,2.13,0,0,0-1.66.7,2.62,2.62,0,0,0-.64,1.87v1.84H261v2.51h-3.82v12.12h-2.74V257.94h-2.75v-2.51h2.75V253.3a4.67,4.67,0,0,1,1.39-3.53A4.88,4.88,0,0,1,259.36,248.45Z"/><path id="Path_94873" data-name="Path 94873" class="cls-138" d="M266.35,270.06h-2.74V255.43h2.62v2.39h.12a4,4,0,0,1,1.72-2,4.85,4.85,0,0,1,2.55-.82,5.09,5.09,0,0,1,2,.37l-.84,2.65a4.41,4.41,0,0,0-1.61-.21,3.52,3.52,0,0,0-2.7,1.26,4.13,4.13,0,0,0-1.15,2.93Z"/><path id="Path_94874" data-name="Path 94874" class="cls-138" d="M272.7,262.75a7.71,7.71,0,0,1,2.13-5.58,7.19,7.19,0,0,1,5.4-2.22,7.1,7.1,0,0,1,5.33,2.22,8.3,8.3,0,0,1,0,11.15,7.1,7.1,0,0,1-5.33,2.21,7.18,7.18,0,0,1-5.4-2.21A7.67,7.67,0,0,1,272.7,262.75Zm2.75,0a5.34,5.34,0,0,0,1.37,3.81,4.69,4.69,0,0,0,6.63.18l.17-.18a5.94,5.94,0,0,0,0-7.61,4.62,4.62,0,0,0-6.52-.28,3.7,3.7,0,0,0-.28.28,5.32,5.32,0,0,0-1.37,3.8Z"/><path id="Path_94875" data-name="Path 94875" class="cls-138" d="M292.69,270.07H290V255.43h2.62v2h.11a4.86,4.86,0,0,1,1.93-1.78,5.37,5.37,0,0,1,2.58-.73,5.43,5.43,0,0,1,2.84.74,4.45,4.45,0,0,1,1.79,2.07,5.69,5.69,0,0,1,5-2.81,4.93,4.93,0,0,1,3.91,1.56,6.37,6.37,0,0,1,1.37,4.41v9.13H309.4v-8.72a4.63,4.63,0,0,0-.76-3,3.07,3.07,0,0,0-2.5-.92,3.29,3.29,0,0,0-2.66,1.35,4.89,4.89,0,0,0-1.06,3.21v8.09h-2.75v-8.72a4.71,4.71,0,0,0-.74-3,3.09,3.09,0,0,0-2.51-.91,3.26,3.26,0,0,0-2.65,1.34,5,5,0,0,0-1.07,3.21Z"/><path id="Path_94876" data-name="Path 94876" class="cls-139" d="M325.76,270.06V252.51h-6V248.7h16v3.81h-6v17.55Z"/><path id="Path_94877" data-name="Path 94877" class="cls-140" d="M344.91,268.51h-.24a6.64,6.64,0,0,1-1.65,1.43,4.74,4.74,0,0,1-2.47.6,5.93,5.93,0,0,1-2.13-.37,5.34,5.34,0,0,1-1.73-1.07,4.75,4.75,0,0,1-1.18-1.59,4.84,4.84,0,0,1-.41-2,4.54,4.54,0,0,1,.45-2.05,4.68,4.68,0,0,1,1.26-1.57,5.41,5.41,0,0,1,1.89-1,7.65,7.65,0,0,1,2.37-.35,10.44,10.44,0,0,1,2.36.23,11.12,11.12,0,0,1,1.52.46v-.45a2.36,2.36,0,0,0-.92-1.92,3.49,3.49,0,0,0-2.3-.76,4.24,4.24,0,0,0-3.43,1.7l-2.84-1.94a7.68,7.68,0,0,1,6.4-2.93,7.51,7.51,0,0,1,5.18,1.6,6,6,0,0,1,1.8,4.73V270H345Zm0-4.39a7.68,7.68,0,0,0-1.41-.52,6.62,6.62,0,0,0-1.6-.2,3.37,3.37,0,0,0-2.13.62,1.86,1.86,0,0,0-.76,1.5,1.74,1.74,0,0,0,.72,1.44,2.81,2.81,0,0,0,1.7.53,3.51,3.51,0,0,0,1.43-.28,3.55,3.55,0,0,0,1.12-.75,3.33,3.33,0,0,0,1-2.33Z"/><path id="Path_94878" data-name="Path 94878" class="cls-141" d="M351.87,270.06V248.74h3.9v21.32Z"/><path id="Path_94879" data-name="Path 94879" class="cls-142" d="M359.11,255.43h3.68v2H363a3.66,3.66,0,0,1,.71-1,5.77,5.77,0,0,1,1-.78,5.61,5.61,0,0,1,1.2-.53,3.83,3.83,0,0,1,1.26-.21,4.69,4.69,0,0,1,1.34.17,3.33,3.33,0,0,1,.94.43L368.41,259a3.72,3.72,0,0,0-.79-.28,4.27,4.27,0,0,0-1.07-.1,3.28,3.28,0,0,0-1.48.31,3.24,3.24,0,0,0-1.07.88,4.42,4.42,0,0,0-.71,1.34,5.48,5.48,0,0,0-.25,1.66v7.21h-3.91Z"/><path id="Path_94880" data-name="Path 94880" class="cls-143" d="M377.28,255a8.21,8.21,0,0,1,3.13.59,7.26,7.26,0,0,1,4,4.07,8.69,8.69,0,0,1,0,6.27,7.14,7.14,0,0,1-1.61,2.47,7.51,7.51,0,0,1-2.44,1.61,8.72,8.72,0,0,1-6.24,0,7.19,7.19,0,0,1-4.06-4.07,8.8,8.8,0,0,1,0-6.27,7.64,7.64,0,0,1,1.61-2.47,7.45,7.45,0,0,1,2.45-1.61A8.11,8.11,0,0,1,377.28,255Zm0,12a3.79,3.79,0,0,0,1.45-.29,3.73,3.73,0,0,0,1.24-.82,3.84,3.84,0,0,0,.85-1.32,5.16,5.16,0,0,0,0-3.51,3.71,3.71,0,0,0-.85-1.31,3.61,3.61,0,0,0-1.24-.83,3.86,3.86,0,0,0-2.91,0,3.76,3.76,0,0,0-2.07,2.14,4.94,4.94,0,0,0,0,3.51A3.74,3.74,0,0,0,377.28,266.93Z"/><path id="Path_94881" data-name="Path 94881" class="cls-144" d="M387.28,255.43H391v1.76h.25a4.49,4.49,0,0,1,1.67-1.57,5.51,5.51,0,0,1,2.81-.67,6.34,6.34,0,0,1,2.67.59,7,7,0,0,1,2.22,1.61,7.86,7.86,0,0,1,1.55,2.47,9,9,0,0,1,0,6.27,7.86,7.86,0,0,1-1.55,2.47,7.23,7.23,0,0,1-2.22,1.61,6.32,6.32,0,0,1-2.67.57,5.49,5.49,0,0,1-2.81-.65,4.47,4.47,0,0,1-1.67-1.59H391l.25,2.14v6.12h-3.92Zm7.58,11.5a4,4,0,0,0,1.49-.3,4,4,0,0,0,2.13-2.14,4.67,4.67,0,0,0,0-3.45,3.84,3.84,0,0,0-2.13-2.13,3.49,3.49,0,0,0-1.49-.3,3.62,3.62,0,0,0-1.48.29,3.5,3.5,0,0,0-1.23.82,3.69,3.69,0,0,0-.86,1.31,4.86,4.86,0,0,0,0,3.52,3.69,3.69,0,0,0,.86,1.31,3.79,3.79,0,0,0,1.23.82,4,4,0,0,0,1.48.25Z"/><path class="cls-138" d="M98,270.06H95l8-21.32h3.1l8,21.32h-3l-2.06-5.78h-9Zm6.5-18L101,261.72h7.09l-3.48-9.62Z"/><path class="cls-138" d="M116.41,255.47H119v2h.12a4.89,4.89,0,0,1,1.92-1.78,5.46,5.46,0,0,1,2.7-.72,5.36,5.36,0,0,1,4.12,1.54,6.12,6.12,0,0,1,1.45,4.36v9.17H126.6v-9c-.06-2.38-1.27-3.58-3.61-3.58a3.45,3.45,0,0,0-2.74,1.33,4.81,4.81,0,0,0-1.1,3.17v8.07h-2.74Z"/></g></g></g></svg>