<svg xmlns="http://www.w3.org/2000/svg" width="50" height="50" viewBox="0 0 50 50">
  <g id="Group_42" data-name="Group 42" transform="translate(-864 -4031)">
    <circle id="Ellipse_13" data-name="Ellipse 13" cx="25" cy="25" r="25" transform="translate(864 4031)" fill="#fbd5c4" opacity="0.14"/>
    <path id="Icon_awesome-instagram" data-name="Icon awesome-instagram" d="M10.815,7.507a5.546,5.546,0,1,0,5.546,5.546A5.537,5.537,0,0,0,10.815,7.507Zm0,9.151a3.605,3.605,0,1,1,3.605-3.605,3.612,3.612,0,0,1-3.605,3.605ZM17.881,7.28a1.294,1.294,0,1,1-1.294-1.294A1.291,1.291,0,0,1,17.881,7.28Zm3.673,1.313a6.4,6.4,0,0,0-1.747-4.532,6.443,6.443,0,0,0-4.532-1.747c-1.786-.1-7.139-.1-8.924,0A6.434,6.434,0,0,0,1.818,4.056,6.422,6.422,0,0,0,.071,8.588c-.1,1.786-.1,7.139,0,8.924a6.4,6.4,0,0,0,1.747,4.532A6.452,6.452,0,0,0,6.35,23.792c1.786.1,7.139.1,8.924,0a6.4,6.4,0,0,0,4.532-1.747,6.443,6.443,0,0,0,1.747-4.532c.1-1.786.1-7.134,0-8.92ZM19.247,19.429a3.65,3.65,0,0,1-2.056,2.056c-1.424.565-4.8.434-6.376.434s-4.957.125-6.376-.434a3.65,3.65,0,0,1-2.056-2.056c-.565-1.424-.434-4.8-.434-6.376S1.823,8.1,2.383,6.677A3.65,3.65,0,0,1,4.439,4.621c1.424-.565,4.8-.434,6.376-.434s4.957-.125,6.376.434a3.65,3.65,0,0,1,2.056,2.056c.565,1.424.434,4.8.434,6.376S19.811,18.01,19.247,19.429Z" transform="translate(878.131 4042.89)" fill="#ff3301"/>
  </g>
</svg>
