<svg xmlns="http://www.w3.org/2000/svg" width="50" height="50" viewBox="0 0 50 50">
  <g id="Group_42" data-name="Group 42" transform="translate(-864 -4031)">
    <circle id="Ellipse_13" data-name="Ellipse 13" cx="25" cy="25" r="25" transform="translate(864 4031)" fill="#ff3301" opacity="0.14"/>
    <path id="Icon_awesome-instagram" data-name="Icon awesome-instagram" d="M4.745 11.997H9.5v15.27H4.745zm2.374-7.6c1.517 0 2.75 1.233 2.75 2.75S8.636 9.9 7.12 9.9a2.76 2.76 0 0 1-2.754-2.753 2.75 2.75 0 0 1 2.753-2.75m5.35 7.6h4.552v2.087h.063c.634-1.2 2.182-2.466 4.5-2.466 4.806 0 5.693 3.163 5.693 7.274v8.376h-4.743V19.84c0-1.77-.032-4.05-2.466-4.05-2.47 0-2.85 1.93-2.85 3.92v7.554h-4.742v-15.27z" transform="translate(873.131 4037.89)" fill="#ff3301"/>
  </g>
</svg>
