<svg xmlns="http://www.w3.org/2000/svg" width="50" height="50" viewBox="0 0 50 50">
  <g id="Group_44" data-name="Group 44" transform="translate(-1008 -4031)">
    <circle id="Ellipse_15" data-name="Ellipse 15" cx="25" cy="25" r="25" transform="translate(1008 4031)" fill="#ff3301" opacity="0.14"/>
    <g id="Icon_feather-youtube" data-name="Icon feather-youtube" transform="translate(1020.682 4042)">
      <path id="Path_210" data-name="Path 210" d="M22.684,8.38a2.734,2.734,0,0,0-1.908-1.967C19.084,6,12.318,6,12.318,6S5.552,6,3.86,6.452A2.734,2.734,0,0,0,1.952,8.419a28.521,28.521,0,0,0-.452,5.2,28.521,28.521,0,0,0,.452,5.242A2.734,2.734,0,0,0,3.86,20.752c1.692.452,8.458.452,8.458.452s6.766,0,8.458-.452a2.734,2.734,0,0,0,1.908-1.967,28.521,28.521,0,0,0,.452-5.163,28.521,28.521,0,0,0-.452-5.242Z" transform="translate(0 0)" fill="none" stroke="#ff3301" stroke-linecap="round" stroke-linejoin="round" stroke-width="1.5"/>
      <path id="Path_211" data-name="Path 211" d="M14.625,19.152l5.655-3.216L14.625,12.72Z" transform="translate(-4.52 -2.314)" fill="none" stroke="#ff3301" stroke-linecap="round" stroke-linejoin="round" stroke-width="1.5"/>
    </g>
  </g>
</svg>
