<svg xmlns="http://www.w3.org/2000/svg" xmlns:xlink="http://www.w3.org/1999/xlink" width="298" height="233" viewBox="0 0 298 233"><defs><style>.a{fill:none;}.b{clip-path:url(#a);}.c{fill:#ffefe4;}</style><clipPath id="a"><rect class="a" width="298" height="233"/></clipPath></defs><g class="b"><g transform="translate(-258 -881)"><circle class="c" cx="5" cy="5" r="5" transform="translate(258 881)"/></g><g transform="translate(-217 -881)"><circle class="c" cx="5" cy="5" r="5" transform="translate(258 881)"/></g><g transform="translate(-176 -881)"><circle class="c" cx="5" cy="5" r="5" transform="translate(258 881)"/></g><g transform="translate(-135 -881)"><circle class="c" cx="5" cy="5" r="5" transform="translate(258 881)"/></g><g transform="translate(-94 -881)"><circle class="c" cx="5" cy="5" r="5" transform="translate(258 881)"/></g><g transform="translate(-53 -881)"><circle class="c" cx="5" cy="5" r="5" transform="translate(258 881)"/></g><g transform="translate(-12 -881)"><circle class="c" cx="5" cy="5" r="5" transform="translate(258 881)"/></g><g transform="translate(29 -881)"><circle class="c" cx="5" cy="5" r="5" transform="translate(258 881)"/></g><g transform="translate(-258 -850)"><circle class="c" cx="5" cy="5" r="5" transform="translate(258 881)"/></g><g transform="translate(-217 -850)"><circle class="c" cx="5" cy="5" r="5" transform="translate(258 881)"/></g><g transform="translate(-176 -850)"><circle class="c" cx="5" cy="5" r="5" transform="translate(258 881)"/></g><g transform="translate(-135 -850)"><circle class="c" cx="5" cy="5" r="5" transform="translate(258 881)"/></g><g transform="translate(-94 -850)"><circle class="c" cx="5" cy="5" r="5" transform="translate(258 881)"/></g><g transform="translate(-53 -850)"><circle class="c" cx="5" cy="5" r="5" transform="translate(258 881)"/></g><g transform="translate(-12 -850)"><circle class="c" cx="5" cy="5" r="5" transform="translate(258 881)"/></g><g transform="translate(29 -850)"><circle class="c" cx="5" cy="5" r="5" transform="translate(258 881)"/></g><g transform="translate(-258 -819)"><circle class="c" cx="5" cy="5" r="5" transform="translate(258 881)"/></g><g transform="translate(-217 -819)"><circle class="c" cx="5" cy="5" r="5" transform="translate(258 881)"/></g><g transform="translate(-176 -819)"><circle class="c" cx="5" cy="5" r="5" transform="translate(258 881)"/></g><g transform="translate(-135 -819)"><circle class="c" cx="5" cy="5" r="5" transform="translate(258 881)"/></g><g transform="translate(-94 -819)"><circle class="c" cx="5" cy="5" r="5" transform="translate(258 881)"/></g><g transform="translate(-53 -819)"><circle class="c" cx="5" cy="5" r="5" transform="translate(258 881)"/></g><g transform="translate(-12 -819)"><circle class="c" cx="5" cy="5" r="5" transform="translate(258 881)"/></g><g transform="translate(29 -819)"><circle class="c" cx="5" cy="5" r="5" transform="translate(258 881)"/></g><g transform="translate(-258 -788)"><circle class="c" cx="5" cy="5" r="5" transform="translate(258 881)"/></g><g transform="translate(-217 -788)"><circle class="c" cx="5" cy="5" r="5" transform="translate(258 881)"/></g><g transform="translate(-176 -788)"><circle class="c" cx="5" cy="5" r="5" transform="translate(258 881)"/></g><g transform="translate(-135 -788)"><circle class="c" cx="5" cy="5" r="5" transform="translate(258 881)"/></g><g transform="translate(-94 -788)"><circle class="c" cx="5" cy="5" r="5" transform="translate(258 881)"/></g><g transform="translate(-53 -788)"><circle class="c" cx="5" cy="5" r="5" transform="translate(258 881)"/></g><g transform="translate(-12 -788)"><circle class="c" cx="5" cy="5" r="5" transform="translate(258 881)"/></g><g transform="translate(29 -788)"><circle class="c" cx="5" cy="5" r="5" transform="translate(258 881)"/></g><g transform="translate(-258 -757)"><circle class="c" cx="5" cy="5" r="5" transform="translate(258 881)"/></g><g transform="translate(-217 -757)"><circle class="c" cx="5" cy="5" r="5" transform="translate(258 881)"/></g><g transform="translate(-176 -757)"><circle class="c" cx="5" cy="5" r="5" transform="translate(258 881)"/></g><g transform="translate(-135 -757)"><circle class="c" cx="5" cy="5" r="5" transform="translate(258 881)"/></g><g transform="translate(-94 -757)"><circle class="c" cx="5" cy="5" r="5" transform="translate(258 881)"/></g><g transform="translate(-53 -757)"><circle class="c" cx="5" cy="5" r="5" transform="translate(258 881)"/></g><g transform="translate(-12 -757)"><circle class="c" cx="5" cy="5" r="5" transform="translate(258 881)"/></g><g transform="translate(29 -757)"><circle class="c" cx="5" cy="5" r="5" transform="translate(258 881)"/></g><g transform="translate(-258 -726)"><circle class="c" cx="5" cy="5" r="5" transform="translate(258 881)"/></g><g transform="translate(-217 -726)"><circle class="c" cx="5" cy="5" r="5" transform="translate(258 881)"/></g><g transform="translate(-176 -726)"><circle class="c" cx="5" cy="5" r="5" transform="translate(258 881)"/></g><g transform="translate(-135 -726)"><circle class="c" cx="5" cy="5" r="5" transform="translate(258 881)"/></g><g transform="translate(-94 -726)"><circle class="c" cx="5" cy="5" r="5" transform="translate(258 881)"/></g><g transform="translate(-53 -726)"><circle class="c" cx="5" cy="5" r="5" transform="translate(258 881)"/></g><g transform="translate(-12 -726)"><circle class="c" cx="5" cy="5" r="5" transform="translate(258 881)"/></g><g transform="translate(29 -726)"><circle class="c" cx="5" cy="5" r="5" transform="translate(258 881)"/></g><g transform="translate(-258 -695)"><circle class="c" cx="5" cy="5" r="5" transform="translate(258 881)"/></g><g transform="translate(-217 -695)"><circle class="c" cx="5" cy="5" r="5" transform="translate(258 881)"/></g><g transform="translate(-176 -695)"><circle class="c" cx="5" cy="5" r="5" transform="translate(258 881)"/></g><g transform="translate(-135 -695)"><circle class="c" cx="5" cy="5" r="5" transform="translate(258 881)"/></g><g transform="translate(-94 -695)"><circle class="c" cx="5" cy="5" r="5" transform="translate(258 881)"/></g><g transform="translate(-53 -695)"><circle class="c" cx="5" cy="5" r="5" transform="translate(258 881)"/></g><g transform="translate(-12 -695)"><circle class="c" cx="5" cy="5" r="5" transform="translate(258 881)"/></g><g transform="translate(29 -695)"><circle class="c" cx="5" cy="5" r="5" transform="translate(258 881)"/></g><g transform="translate(-258 -664)"><circle class="c" cx="5" cy="5" r="5" transform="translate(258 881)"/></g><g transform="translate(-217 -664)"><circle class="c" cx="5" cy="5" r="5" transform="translate(258 881)"/></g><g transform="translate(-176 -664)"><circle class="c" cx="5" cy="5" r="5" transform="translate(258 881)"/></g><g transform="translate(-135 -664)"><circle class="c" cx="5" cy="5" r="5" transform="translate(258 881)"/></g><g transform="translate(-94 -664)"><circle class="c" cx="5" cy="5" r="5" transform="translate(258 881)"/></g><g transform="translate(-53 -664)"><circle class="c" cx="5" cy="5" r="5" transform="translate(258 881)"/></g><g transform="translate(-12 -664)"><circle class="c" cx="5" cy="5" r="5" transform="translate(258 881)"/></g><g transform="translate(29 -664)"><circle class="c" cx="5" cy="5" r="5" transform="translate(258 881)"/></g></g></svg>