<svg xmlns="http://www.w3.org/2000/svg" xmlns:xlink="http://www.w3.org/1999/xlink" width="212" height="163" viewBox="0 0 212 163">
  <defs>
    <clipPath id="clip-path">
      <rect width="212" height="163" fill="none"/>
    </clipPath>
  </defs>
  <g id="Repeat_Grid_1" data-name="Repeat Grid 1" clip-path="url(#clip-path)">
    <g transform="translate(-258 -881)">
      <circle id="Ellipse_4" data-name="Ellipse 4" cx="5" cy="5" r="5" transform="translate(258 881)" fill="#ffe0cb"/>
    </g>
    <g transform="translate(-221 -881)">
      <circle id="Ellipse_4-2" data-name="Ellipse 4" cx="5" cy="5" r="5" transform="translate(258 881)" fill="#ffe0cb"/>
    </g>
    <g transform="translate(-184 -881)">
      <circle id="Ellipse_4-3" data-name="Ellipse 4" cx="5" cy="5" r="5" transform="translate(258 881)" fill="#ffe0cb"/>
    </g>
    <g transform="translate(-147 -881)">
      <circle id="Ellipse_4-4" data-name="Ellipse 4" cx="5" cy="5" r="5" transform="translate(258 881)" fill="#ffe0cb"/>
    </g>
    <g transform="translate(-110 -881)">
      <circle id="Ellipse_4-5" data-name="Ellipse 4" cx="5" cy="5" r="5" transform="translate(258 881)" fill="#ffe0cb"/>
    </g>
    <g transform="translate(-73 -881)">
      <circle id="Ellipse_4-6" data-name="Ellipse 4" cx="5" cy="5" r="5" transform="translate(258 881)" fill="#ffe0cb"/>
    </g>
    <g transform="translate(-258 -847)">
      <circle id="Ellipse_4-7" data-name="Ellipse 4" cx="5" cy="5" r="5" transform="translate(258 881)" fill="#ffe0cb"/>
    </g>
    <g transform="translate(-221 -847)">
      <circle id="Ellipse_4-8" data-name="Ellipse 4" cx="5" cy="5" r="5" transform="translate(258 881)" fill="#ffe0cb"/>
    </g>
    <g transform="translate(-184 -847)">
      <circle id="Ellipse_4-9" data-name="Ellipse 4" cx="5" cy="5" r="5" transform="translate(258 881)" fill="#ffe0cb"/>
    </g>
    <g transform="translate(-147 -847)">
      <circle id="Ellipse_4-10" data-name="Ellipse 4" cx="5" cy="5" r="5" transform="translate(258 881)" fill="#ffe0cb"/>
    </g>
    <g transform="translate(-110 -847)">
      <circle id="Ellipse_4-11" data-name="Ellipse 4" cx="5" cy="5" r="5" transform="translate(258 881)" fill="#ffe0cb"/>
    </g>
    <g transform="translate(-73 -847)">
      <circle id="Ellipse_4-12" data-name="Ellipse 4" cx="5" cy="5" r="5" transform="translate(258 881)" fill="#ffe0cb"/>
    </g>
    <g transform="translate(-258 -813)">
      <circle id="Ellipse_4-13" data-name="Ellipse 4" cx="5" cy="5" r="5" transform="translate(258 881)" fill="#ffe0cb"/>
    </g>
    <g transform="translate(-221 -813)">
      <circle id="Ellipse_4-14" data-name="Ellipse 4" cx="5" cy="5" r="5" transform="translate(258 881)" fill="#ffe0cb"/>
    </g>
    <g transform="translate(-184 -813)">
      <circle id="Ellipse_4-15" data-name="Ellipse 4" cx="5" cy="5" r="5" transform="translate(258 881)" fill="#ffe0cb"/>
    </g>
    <g transform="translate(-147 -813)">
      <circle id="Ellipse_4-16" data-name="Ellipse 4" cx="5" cy="5" r="5" transform="translate(258 881)" fill="#ffe0cb"/>
    </g>
    <g transform="translate(-110 -813)">
      <circle id="Ellipse_4-17" data-name="Ellipse 4" cx="5" cy="5" r="5" transform="translate(258 881)" fill="#ffe0cb"/>
    </g>
    <g transform="translate(-73 -813)">
      <circle id="Ellipse_4-18" data-name="Ellipse 4" cx="5" cy="5" r="5" transform="translate(258 881)" fill="#ffe0cb"/>
    </g>
    <g transform="translate(-258 -779)">
      <circle id="Ellipse_4-19" data-name="Ellipse 4" cx="5" cy="5" r="5" transform="translate(258 881)" fill="#ffe0cb"/>
    </g>
    <g transform="translate(-221 -779)">
      <circle id="Ellipse_4-20" data-name="Ellipse 4" cx="5" cy="5" r="5" transform="translate(258 881)" fill="#ffe0cb"/>
    </g>
    <g transform="translate(-184 -779)">
      <circle id="Ellipse_4-21" data-name="Ellipse 4" cx="5" cy="5" r="5" transform="translate(258 881)" fill="#ffe0cb"/>
    </g>
    <g transform="translate(-147 -779)">
      <circle id="Ellipse_4-22" data-name="Ellipse 4" cx="5" cy="5" r="5" transform="translate(258 881)" fill="#ffe0cb"/>
    </g>
    <g transform="translate(-110 -779)">
      <circle id="Ellipse_4-23" data-name="Ellipse 4" cx="5" cy="5" r="5" transform="translate(258 881)" fill="#ffe0cb"/>
    </g>
    <g transform="translate(-73 -779)">
      <circle id="Ellipse_4-24" data-name="Ellipse 4" cx="5" cy="5" r="5" transform="translate(258 881)" fill="#ffe0cb"/>
    </g>
    <g transform="translate(-258 -745)">
      <circle id="Ellipse_4-25" data-name="Ellipse 4" cx="5" cy="5" r="5" transform="translate(258 881)" fill="#ffe0cb"/>
    </g>
    <g transform="translate(-221 -745)">
      <circle id="Ellipse_4-26" data-name="Ellipse 4" cx="5" cy="5" r="5" transform="translate(258 881)" fill="#ffe0cb"/>
    </g>
    <g transform="translate(-184 -745)">
      <circle id="Ellipse_4-27" data-name="Ellipse 4" cx="5" cy="5" r="5" transform="translate(258 881)" fill="#ffe0cb"/>
    </g>
    <g transform="translate(-147 -745)">
      <circle id="Ellipse_4-28" data-name="Ellipse 4" cx="5" cy="5" r="5" transform="translate(258 881)" fill="#ffe0cb"/>
    </g>
    <g transform="translate(-110 -745)">
      <circle id="Ellipse_4-29" data-name="Ellipse 4" cx="5" cy="5" r="5" transform="translate(258 881)" fill="#ffe0cb"/>
    </g>
    <g transform="translate(-73 -745)">
      <circle id="Ellipse_4-30" data-name="Ellipse 4" cx="5" cy="5" r="5" transform="translate(258 881)" fill="#ffe0cb"/>
    </g>
  </g>
</svg>
