<svg xmlns="http://www.w3.org/2000/svg" width="676.015" height="596.406" viewBox="0 0 676.015 596.406">
  <g id="Group_21" data-name="Group 21" transform="translate(-1216.781 -204.478)">
    <g id="Group_4" data-name="Group 4" transform="translate(1316.658 335.564)">
      <path id="Path_3" data-name="Path 3" d="M1641.722,770.544,1831.13,755.4V656l-190.894-7.59L1428.865,656v99.4Z" transform="translate(-1428.865 -535.287)" fill="#ff5668" fill-rule="evenodd"/>
      <path id="Path_4" data-name="Path 4" d="M1813.105,1058.9l177.752-18.975V833.463l-177.752,7.59Z" transform="translate(-1601.735 -618.544)" fill="#f61d2d" fill-rule="evenodd"/>
      <path id="Path_5" data-name="Path 5" d="M1455.318,1039.924l196.819,18.975V841.053l-196.819-7.59Z" transform="translate(-1440.767 -618.544)" fill="#fb394b" fill-rule="evenodd"/>
      <path id="Path_6" data-name="Path 6" d="M1630.145,1056.894V847.705h-29.712v206.322Z" transform="translate(-1506.054 -624.952)" fill="#ffa000" fill-rule="evenodd"/>
      <path id="Path_7" data-name="Path 7" d="M1983.649,1053.833V847.569h-29.135v209.372Z" transform="translate(-1665.354 -624.891)" fill="#ffa000" fill-rule="evenodd"/>
      <path id="Path_8" data-name="Path 8" d="M1990.307,855.391l.3-10.586-178.055,14.135Z" transform="translate(-1601.487 -623.647)" fill="#f20010" fill-rule="evenodd"/>
      <path id="Path_9" data-name="Path 9" d="M1983.649,861.328v-6.456l-29.135,2.316v4.721Z" transform="translate(-1665.354 -628.176)" fill="#ff5c05" fill-rule="evenodd"/>
      <path id="Path_10" data-name="Path 10" d="M1684.641,662.994,1591.98,669l31.909,2.293,75.462-3.552Z" transform="translate(-1502.251 -541.851)" fill="#ffa000" fill-rule="evenodd"/>
      <path id="Path_11" data-name="Path 11" d="M1834.046,662.856l92.66,6.012-31.291,2.488-76.08-3.746Z" transform="translate(-1604.537 -541.788)" fill="#ffa000" fill-rule="evenodd"/>
      <path id="Path_12" data-name="Path 12" d="M1781.792,553.818c-16.1-41.859-3.928-75.824,29.363-101.919l-.388,27.994,43.225-16.093c-29.83,27.533-51.06,52.475-36.53,98.3Z" transform="translate(-1584.475 -446.879)" fill="#ff7200" fill-rule="evenodd"/>
      <path id="Path_13" data-name="Path 13" d="M1728.373,539.573c2-44.626-21.061-78.87-62.2-96.8l9.572,27.3-47.573-5.877c38.223,20.126,67.186,39.681,68.019,87.829Z" transform="translate(-1518.535 -442.773)" fill="#ffa715" fill-rule="evenodd"/>
      <path id="Path_14" data-name="Path 14" d="M1806.7,607.04c21.862,5.764,126.249-4.708,131.519-72.251l-45.53-5.465c8.926,30.592-43.815,50.984-98.229,60.559Z" transform="translate(-1593.346 -481.712)" fill="#ff7200" fill-rule="evenodd"/>
      <path id="Path_15" data-name="Path 15" d="M1791.152,569.622c.621-19.108,58.327-93.087,111.05-84.5l34.528,29.468c-40.688,3.746-105.764,28.392-133.35,69.685Z" transform="translate(-1591.858 -461.516)" fill="#ffa000" fill-rule="evenodd"/>
      <path id="Path_16" data-name="Path 16" d="M1664.253,616.986c-20.439,8.664-125.478,12.538-143.9-53.383l43.85-11.587c-2.819,31.4,53.209,44.338,108.769,46.38Z" transform="translate(-1470.025 -491.921)" fill="#ff7200" fill-rule="evenodd"/>
      <path id="Path_17" data-name="Path 17" d="M1674.75,577.975c-4.352-18.767-75.77-83.9-126.1-68.252l-28.3,33.771c40.875-1.841,109.907,13.618,145.2,50.6Z" transform="translate(-1470.025 -471.812)" fill="#ffa000" fill-rule="evenodd"/>
      <path id="Path_18" data-name="Path 18" d="M1813.821,614.389h0c6.719,0,12.217,4.964,12.217,11.029v15.825c0,6.064-5.5,11.03-12.217,11.03h0c-6.716,0-12.215-4.962-12.215-11.03V625.418C1801.606,619.352,1807.1,614.389,1813.821,614.389Z" transform="translate(-1596.561 -519.983)" fill="#ffae2b" fill-rule="evenodd"/>
      <path id="Path_19" data-name="Path 19" d="M1770.226,614.389h0c7.027,0,12.776,5.192,12.776,11.536v14.812c0,6.344-5.751,11.537-12.776,11.537h0c-7.026,0-12.777-5.192-12.777-11.537V625.925C1757.449,619.581,1763.2,614.389,1770.226,614.389Z" transform="translate(-1576.695 -519.983)" fill="#ffae2b" fill-rule="evenodd"/>
      <path id="Path_20" data-name="Path 20" d="M1813.105,677.385,2004,662.206v99.4l-190.894,15.18Z" transform="translate(-1601.735 -541.496)" fill="#f61d2d" fill-rule="evenodd"/>
      <path id="Path_21" data-name="Path 21" d="M1428.865,662.206l211.37,15.18v99.4l-211.37-15.18Z" transform="translate(-1428.865 -541.496)" fill="#fb394b" fill-rule="evenodd"/>
      <path id="Path_22" data-name="Path 22" d="M1623.89,676.213v99.4l-31.909-2.292v-99.4Z" transform="translate(-1502.251 -546.766)" fill="#ffa000" fill-rule="evenodd"/>
      <path id="Path_23" data-name="Path 23" d="M1988.928,673.785v99.4l-31.291,2.488v-99.4Z" transform="translate(-1666.759 -546.705)" fill="#ffa000" fill-rule="evenodd"/>
    </g>
    <g id="Group_5" data-name="Group 5" transform="translate(1642.002 508.782)">
      <path id="Path_24" data-name="Path 24" d="M2138.486,956.5l105.177-9.187v-60.3l-106-4.6-117.37,4.6v60.3Z" transform="translate(-2020.291 -813.781)" fill="#4dacee" fill-rule="evenodd"/>
      <path id="Path_25" data-name="Path 25" d="M2233.652,1131.425l98.7-11.511V994.667l-98.7,4.6Z" transform="translate(-2116.282 -864.288)" fill="#3091d8" fill-rule="evenodd"/>
      <path id="Path_26" data-name="Path 26" d="M2034.976,1119.915l109.292,11.511V999.27l-109.292-4.6Z" transform="translate(-2026.898 -864.288)" fill="#3ea5ec" fill-rule="evenodd"/>
      <path id="Path_27" data-name="Path 27" d="M2132.059,1130.208v-126.9h-16.5V1128.47Z" transform="translate(-2063.153 -868.175)" fill="#ffa000" fill-rule="evenodd"/>
      <path id="Path_28" data-name="Path 28" d="M2328.354,1128.351V1003.224h-16.178v127.013Z" transform="translate(-2151.61 -868.138)" fill="#ffa000" fill-rule="evenodd"/>
      <path id="Path_29" data-name="Path 29" d="M2332.051,1007.969l.169-6.422-98.872,8.575Z" transform="translate(-2116.145 -867.384)" fill="#1369b1" fill-rule="evenodd"/>
      <path id="Path_30" data-name="Path 30" d="M2328.354,1011.569v-3.916l-16.178,1.406v2.864Z" transform="translate(-2151.61 -870.13)" fill="#ff5c05" fill-rule="evenodd"/>
      <path id="Path_31" data-name="Path 31" d="M2162.319,891.253l-51.454,3.645,17.719,1.391,41.9-2.155Z" transform="translate(-2061.041 -817.762)" fill="#ffa000" fill-rule="evenodd"/>
      <path id="Path_32" data-name="Path 32" d="M2245.282,891.169l51.452,3.648-17.376,1.508-42.247-2.272Z" transform="translate(-2117.839 -817.725)" fill="#ffa000" fill-rule="evenodd"/>
      <path id="Path_33" data-name="Path 33" d="M2216.266,825.021c-8.938-25.393-2.181-46,16.3-61.828l-.216,16.983,24-9.764c-16.566,16.7-28.354,31.834-20.285,59.633Z" transform="translate(-2106.699 -760.148)" fill="#ff7200" fill-rule="evenodd"/>
      <path id="Path_34" data-name="Path 34" d="M2186.6,816.381c1.11-27.073-11.695-47.846-34.537-58.723l5.315,16.561-26.417-3.566c21.226,12.21,37.309,24.073,37.771,53.282Z" transform="translate(-2070.082 -757.658)" fill="#ffa715" fill-rule="evenodd"/>
      <path id="Path_35" data-name="Path 35" d="M2230.1,857.309c12.139,3.5,70.1-2.856,73.03-43.83l-25.282-3.315c4.956,18.558-24.33,30.928-54.546,36.737Z" transform="translate(-2111.625 -781.28)" fill="#ff7200" fill-rule="evenodd"/>
      <path id="Path_36" data-name="Path 36" d="M2221.463,834.61c.345-11.592,32.388-56.471,61.664-51.26l19.174,17.877c-22.593,2.272-58.73,17.224-74.047,42.273Z" transform="translate(-2110.798 -769.028)" fill="#ffa000" fill-rule="evenodd"/>
      <path id="Path_37" data-name="Path 37" d="M2151,863.343c-11.349,5.255-69.675,7.606-79.906-32.385l24.351-7.029c-1.567,19.047,29.545,26.9,60.4,28.135Z" transform="translate(-2043.145 -787.473)" fill="#ff7200" fill-rule="evenodd"/>
      <path id="Path_38" data-name="Path 38" d="M2156.826,839.677c-2.416-11.384-42.074-50.9-70.023-41.4l-15.713,20.486c22.7-1.116,61.031,8.262,80.631,30.7Z" transform="translate(-2043.145 -775.274)" fill="#ffa000" fill-rule="evenodd"/>
      <path id="Path_39" data-name="Path 39" d="M2234.051,861.767h0a6.758,6.758,0,0,1,6.784,6.691v9.6a6.76,6.76,0,0,1-6.784,6.691h0a6.758,6.758,0,0,1-6.783-6.691v-9.6A6.757,6.757,0,0,1,2234.051,861.767Z" transform="translate(-2113.41 -804.497)" fill="#ffae2b" fill-rule="evenodd"/>
      <path id="Path_40" data-name="Path 40" d="M2209.844,861.767h0a7.067,7.067,0,0,1,7.094,7v8.985a7.07,7.07,0,0,1-7.094,7h0a7.069,7.069,0,0,1-7.094-7v-8.985A7.067,7.067,0,0,1,2209.844,861.767Z" transform="translate(-2102.379 -804.497)" fill="#ffae2b" fill-rule="evenodd"/>
      <path id="Path_41" data-name="Path 41" d="M2233.652,899.983l106-9.208v60.3l-106,9.209Z" transform="translate(-2116.282 -817.547)" fill="#3091d8" fill-rule="evenodd"/>
      <path id="Path_42" data-name="Path 42" d="M2020.291,890.775l117.37,9.208v60.3l-117.37-9.209Z" transform="translate(-2020.291 -817.547)" fill="#3ea5ec" fill-rule="evenodd"/>
      <path id="Path_43" data-name="Path 43" d="M2128.584,899.271v60.3l-17.719-1.391v-60.3Z" transform="translate(-2061.041 -820.744)" fill="#ffa000" fill-rule="evenodd"/>
      <path id="Path_44" data-name="Path 44" d="M2331.285,897.8v60.3l-17.375,1.509v-60.3Z" transform="translate(-2152.39 -820.708)" fill="#ffa000" fill-rule="evenodd"/>
    </g>
    <g id="Group_6" data-name="Group 6" transform="translate(1216.781 569.476)">
      <path id="Path_45" data-name="Path 45" d="M1336.016,1039.711l78.942-7.935V979.7l-79.56-3.976-88.1,3.976v52.078Z" transform="translate(-1247.303 -916.458)" fill="#7433ee" fill-rule="evenodd"/>
      <path id="Path_46" data-name="Path 46" d="M1407.447,1163.174l74.083-9.941v-80.56l-74.083,3.976Z" transform="translate(-1319.352 -960.076)" fill="#4512b1" fill-rule="evenodd"/>
      <path id="Path_47" data-name="Path 47" d="M1258.329,1153.233l82.03,9.941v-86.525l-82.03-3.976Z" transform="translate(-1252.264 -960.076)" fill="#631aec" fill-rule="evenodd"/>
      <path id="Path_48" data-name="Path 48" d="M1331.192,1162.123v-81.989H1318.81v80.487Z" transform="translate(-1279.474 -963.433)" fill="#3ea5ec" fill-rule="evenodd"/>
      <path id="Path_49" data-name="Path 49" d="M1478.526,1160.519v-80.455h-12.143v82.084Z" transform="translate(-1345.867 -963.402)" fill="#3091d8" fill-rule="evenodd"/>
      <path id="Path_50" data-name="Path 50" d="M1481.3,1084.161l.126-5.545-74.21,7.405Z" transform="translate(-1319.248 -962.75)" fill="#2b2468" fill-rule="evenodd"/>
      <path id="Path_51" data-name="Path 51" d="M1478.526,1087.272v-3.382l-12.143,1.214v2.474Z" transform="translate(-1345.867 -965.123)" fill="#197acf" fill-rule="evenodd"/>
      <path id="Path_52" data-name="Path 52" d="M1353.9,983.364l-38.618,3.149,13.3,1.2,31.451-1.861Z" transform="translate(-1277.889 -919.896)" fill="#3ea5ec" fill-rule="evenodd"/>
      <path id="Path_53" data-name="Path 53" d="M1416.173,983.293l38.62,3.149-13.043,1.3-31.707-1.964Z" transform="translate(-1320.52 -919.864)" fill="#3ea5ec" fill-rule="evenodd"/>
      <path id="Path_54" data-name="Path 54" d="M1394.4,926.167c-6.709-21.931-1.637-39.725,12.236-53.4l-.161,14.667,18.016-8.433c-12.432,14.425-21.281,27.493-15.223,51.5Z" transform="translate(-1312.158 -870.141)" fill="#3ea5ec" fill-rule="evenodd"/>
      <path id="Path_55" data-name="Path 55" d="M1372.132,918.7c.834-23.379-8.777-41.321-25.922-50.714l3.99,14.3-19.827-3.078c15.931,10.543,28,20.789,28.349,46.014Z" transform="translate(-1284.676 -867.989)" fill="#4dacee" fill-rule="evenodd"/>
      <path id="Path_56" data-name="Path 56" d="M1404.776,954.05c9.111,3.021,52.618-2.466,54.815-37.853l-18.978-2.862c3.72,16.027-18.261,26.71-40.939,31.727Z" transform="translate(-1315.855 -888.39)" fill="#1369b1" fill-rule="evenodd"/>
      <path id="Path_57" data-name="Path 57" d="M1398.3,934.447c.258-10.009,24.308-48.769,46.283-44.268l14.392,15.437c-16.958,1.964-44.082,14.876-55.579,36.509Z" transform="translate(-1315.235 -877.809)" fill="#3ea5ec" fill-rule="evenodd"/>
      <path id="Path_58" data-name="Path 58" d="M1345.407,959.261c-8.518,4.537-52.294,6.568-59.974-27.968l18.276-6.07c-1.175,16.449,22.175,23.229,45.332,24.3Z" transform="translate(-1264.458 -893.739)" fill="#1369b1" fill-rule="evenodd"/>
      <path id="Path_59" data-name="Path 59" d="M1349.783,938.823c-1.814-9.832-31.579-43.956-52.558-35.757l-11.792,17.692c17.036-.964,45.807,7.135,60.517,26.513Z" transform="translate(-1264.458 -883.203)" fill="#3ea5ec" fill-rule="evenodd"/>
      <path id="Path_60" data-name="Path 60" d="M1407.746,957.9h0c2.8,0,5.091,2.6,5.091,5.778v8.291c0,3.179-2.292,5.78-5.091,5.78h0c-2.8,0-5.092-2.6-5.092-5.78v-8.291C1402.654,960.5,1404.944,957.9,1407.746,957.9Z" transform="translate(-1317.196 -908.44)" fill="#4dacee" fill-rule="evenodd"/>
      <path id="Path_61" data-name="Path 61" d="M1389.576,957.9h0c2.927,0,5.323,2.72,5.323,6.041V971.7c0,3.324-2.4,6.044-5.323,6.044h0c-2.929,0-5.326-2.72-5.326-6.044v-7.762C1384.25,960.621,1386.647,957.9,1389.576,957.9Z" transform="translate(-1308.916 -908.44)" fill="#4dacee" fill-rule="evenodd"/>
      <path id="Path_62" data-name="Path 62" d="M1407.447,990.9l79.559-7.954v52.079l-79.559,7.953Z" transform="translate(-1319.352 -919.71)" fill="#4512b1" fill-rule="evenodd"/>
      <path id="Path_63" data-name="Path 63" d="M1247.3,982.949l88.1,7.954v52.078l-88.1-7.953Z" transform="translate(-1247.303 -919.71)" fill="#631aec" fill-rule="evenodd"/>
      <path id="Path_64" data-name="Path 64" d="M1328.585,990.29v52.076l-13.3-1.2V989.088Z" transform="translate(-1277.889 -922.471)" fill="#3ea5ec" fill-rule="evenodd"/>
      <path id="Path_65" data-name="Path 65" d="M1480.725,989.017v52.077l-13.043,1.3V990.32Z" transform="translate(-1346.452 -922.439)" fill="#3091d8" fill-rule="evenodd"/>
    </g>
    <g id="Group_7" data-name="Group 7" transform="translate(1356.283 660.638)">
      <path id="Path_66" data-name="Path 66" d="M1500.9,1095.743a62.035,62.035,0,1,1,62.035,62.035A62.036,62.036,0,0,1,1500.9,1095.743Z" transform="translate(-1500.898 -1033.709)" fill="#fff3a8" fill-rule="evenodd"/>
      <path id="Path_67" data-name="Path 67" d="M1563.575,1035.135a61.25,61.25,0,1,1-61.249,61.25A61.249,61.249,0,0,1,1563.575,1035.135Z" transform="translate(-1501.54 -1034.35)" fill="#ffde05" fill-rule="evenodd"/>
      <path id="Path_68" data-name="Path 68" d="M1622.033,1136.9a61.641,61.641,0,0,1-5.928,6.06l-59.991-103.905a60.839,60.839,0,0,1,8.217-2.1l57.7,99.945Zm-13.774,12-61.2-106a61.486,61.486,0,0,0-18.475,14.813l57.619,99.8A60.863,60.863,0,0,0,1608.259,1148.891Z" transform="translate(-1513.354 -1035.167)" fill="#ffe74b" fill-rule="evenodd"/>
      <path id="Path_69" data-name="Path 69" d="M1527.8,1107.844a47.237,47.237,0,1,0,47.237-47.236A47.236,47.236,0,0,0,1527.8,1107.844Z" transform="translate(-1513.001 -1045.811)" fill="#ff7200" fill-rule="evenodd"/>
      <path id="Path_70" data-name="Path 70" d="M1575.784,1062.271a46.322,46.322,0,1,1-46.321,46.322A46.322,46.322,0,0,1,1575.784,1062.271Z" transform="translate(-1513.75 -1046.559)" fill="#ffb305" fill-rule="evenodd"/>
      <path id="Path_71" data-name="Path 71" d="M1587.943,1086.344l10.08,19.915,22.054,3.433.248.064.224.109.194.148.161.181.124.209.083.23.037.247-.013.256-.02.1-.028.1-.035.095-.042.091-.049.086-.056.081-.06.077-.068.072-15.825,15.742,3.552,22.04.014.256-.036.246-.082.23-.123.21-.161.182-.857.743.161-.182.123-.21.082-.23.035-.248-.014-.255-3.552-22.039,15.825-15.743.067-.072.062-.077.055-.082.048-.086.043-.091.036-.094.026-.1.022-.1.013-.256-.036-.246-.083-.231-.123-.209-.161-.181-.195-.147-.224-.11-.248-.065L1597.167,1107l-10.081-19.915-.047-.086-.055-.083-.061-.078-.067-.074-.073-.068-.081-.064-.086-.057-.091-.052-.24-.092-.245-.042-.245.008-.238.054-.222.1-.2.14.857-.743.2-.139.222-.1.238-.054.245-.008.246.042.24.092.091.05.086.057.08.063.073.069.068.074.062.078.053.082.048.086Zm-34.342,23.34,22-3.425-.857.743-22,3.424-.1.016-.1.025-.1.032-.1.041-.1.05-.091.059-.088.068.857-.744.087-.066.091-.059.1-.051.1-.041.1-.034.1-.024Z" transform="translate(-1523.918 -1057.077)" fill="#ff7200" fill-rule="evenodd"/>
      <path id="Path_72" data-name="Path 72" d="M1586.717,1087.693l10.081,19.915,22.052,3.432a1.267,1.267,0,0,1,.7,2.149l-15.826,15.743,3.552,22.039a1.266,1.266,0,0,1-1.873,1.3l-19.818-10.164-19.865,10.187a1.265,1.265,0,0,1-1.826-1.324l3.55-22.04-15.826-15.743a1.267,1.267,0,0,1,.758-2.158l22-3.424,10.081-19.915a1.267,1.267,0,0,1,2.264,0Z" transform="translate(-1523.549 -1057.683)" fill="#ffe74b" fill-rule="evenodd"/>
      <path id="Path_73" data-name="Path 73" d="M1586.717,1087.693l10.081,19.915,9.031,1.406a142.055,142.055,0,0,1-22.379,17.656,147.543,147.543,0,0,1-17.17,9.5l1.166-7.237-15.826-15.743a1.268,1.268,0,0,1,.758-2.158l22-3.424,10.081-19.915a1.267,1.267,0,0,1,2.264,0Z" transform="translate(-1523.549 -1057.683)" fill="#ffe74b" fill-rule="evenodd"/>
    </g>
    <g id="Group_8" data-name="Group 8" transform="translate(1443.625 678.735)">
      <path id="Path_74" data-name="Path 74" d="M1660.084,1119.891a52.872,52.872,0,1,1,52.873,52.873A52.873,52.873,0,0,1,1660.084,1119.891Z" transform="translate(-1659.857 -1066.791)" fill="#fff3a8" fill-rule="evenodd"/>
      <circle id="Ellipse_7" data-name="Ellipse 7" cx="52.204" cy="52.204" r="52.204" transform="translate(0 104.392) rotate(-89.009)" fill="#ffde05"/>
      <path id="Path_75" data-name="Path 75" d="M1763.329,1154.965a52.711,52.711,0,0,1-5.056,5.166l-51.13-88.56a51.969,51.969,0,0,1,7-1.79l49.181,85.184Zm-11.742,10.225-52.162-90.348a52.423,52.423,0,0,0-15.746,12.624l49.109,85.06A51.89,51.89,0,0,0,1751.587,1165.19Z" transform="translate(-1670.473 -1068.034)" fill="#ffe74b" fill-rule="evenodd"/>
      <path id="Path_76" data-name="Path 76" d="M1683.012,1130.206a40.26,40.26,0,1,0,40.26-40.26A40.259,40.259,0,0,0,1683.012,1130.206Z" transform="translate(-1670.173 -1077.107)" fill="#ff7200" fill-rule="evenodd"/>
      <circle id="Ellipse_8" data-name="Ellipse 8" cx="39.48" cy="39.48" r="39.48" transform="translate(12.923 14.327) rotate(-1.019)" fill="#ffb305"/>
      <path id="Path_77" data-name="Path 77" d="M1734.272,1111.88l8.592,16.975,18.8,2.926.212.056.189.093.167.125.138.155.1.179.071.2.031.21-.012.218-.017.088-.024.084-.03.08-.036.078-.041.074-.048.069-.052.066-.057.062-13.488,13.418,3.028,18.785.011.218-.03.21-.07.2-.106.178-.136.155-.731.633.138-.156.106-.178.069-.2.031-.211-.013-.219-3.027-18.785,13.487-13.417.057-.062.053-.065.047-.069.042-.074.035-.077.031-.082.024-.084.017-.086.011-.219-.031-.21-.07-.2-.1-.178-.139-.155-.166-.127-.19-.093-.212-.055-18.8-2.926-8.592-16.974-.041-.073-.046-.071-.052-.068-.058-.062-.062-.058-.069-.054-.073-.05-.078-.043-.2-.078-.21-.035-.209.005-.2.047-.189.083-.172.119.73-.634.172-.118.189-.084.2-.046.207-.006.211.035.2.079.077.044.073.048.069.054.062.059.057.062.053.067.046.07.041.073ZM1705,1131.774l18.747-2.918-.731.633-18.747,2.918-.088.013-.087.021-.087.029-.084.035-.08.043-.078.05-.075.058.731-.633.074-.057.079-.051.08-.042.084-.035.086-.028.088-.021Z" transform="translate(-1679.477 -1086.709)" fill="#ff7200" fill-rule="evenodd"/>
      <path id="Path_78" data-name="Path 78" d="M1733.228,1113.03,1741.82,1130l18.8,2.926a1.079,1.079,0,0,1,.6,1.832l-13.488,13.417,3.026,18.786a1.08,1.08,0,0,1-1.6,1.109l-16.891-8.663-16.93,8.683a1.078,1.078,0,0,1-1.451-.47,1.061,1.061,0,0,1-.1-.659l3.024-18.786-13.488-13.416a1.081,1.081,0,0,1,.645-1.841l18.747-2.918,8.593-16.974a1.079,1.079,0,0,1,1.929,0Z" transform="translate(-1679.163 -1087.225)" fill="#ffe74b" fill-rule="evenodd"/>
      <path id="Path_79" data-name="Path 79" d="M1733.228,1113.03,1741.82,1130l7.7,1.2a121.068,121.068,0,0,1-19.074,15.047,125.548,125.548,0,0,1-14.634,8.1l.993-6.168-13.488-13.416a1.081,1.081,0,0,1,.645-1.841l18.747-2.918,8.593-16.974a1.079,1.079,0,0,1,1.929,0Z" transform="translate(-1679.163 -1087.225)" fill="#ffe74b" fill-rule="evenodd"/>
    </g>
    <g id="Group_11" data-name="Group 11" transform="translate(1733.326 417.774)">
      <g id="Group_9" data-name="Group 9" transform="translate(22.693 135.435)">
        <path id="Path_80" data-name="Path 80" d="M2364.436,1011.48s-2.878,6.958-2.025,9.1c.334.84-.86,5.324-.9,7.626-.016.98.864.852,1.041,1.04.47.5,2.533-5.087,2.533-5.087s1.717-1.888,6.128,9.394c0,0-.081,5.1,8.521,6.475,0,0,4.159,1.87,7.113-1.192,0,0,1.223-1.825-.392-4.817,0,0-5.3-5.14-6.224-12.432a19.877,19.877,0,0,0-4.642-8.043s-2.768-2.28-3.963-1.4S2364.436,1011.48,2364.436,1011.48Z" transform="translate(-2287.823 -916.28)" fill="#1a1840" fill-rule="evenodd"/>
        <path id="Path_81" data-name="Path 81" d="M2295.457,1032.929s-5.484,7.128-5.881,9.638a4.272,4.272,0,0,0,.169,1.868c.2.661-.5,5.151-1.047,7.457-.237,1.006.577.818.716,1.019.484.7,2.494-4.824,2.494-4.824s1.013-1.535,1.088,12.151c0,0-2.153,5.339,6.357,10.284,0,0,3.626,3.659,7.982,1.629,0,0,2.029-1.43,1.54-5.239,0,0-3.5-7.569-1.519-15.633a22.437,22.437,0,0,0-1.633-10.36s-.192-4.087-1.281-4.932C2301.308,1033.554,2297.144,1036.364,2295.457,1032.929Z" transform="translate(-2255.045 -925.93)" fill="#1a1840" fill-rule="evenodd"/>
        <path id="Path_82" data-name="Path 82" d="M2298.146,855.645l34.582,18.005c7.929,4.128,10.258,10.7,9.554,20.065-1.1,14.6-6.117,34.189-5.272,48.795a29.034,29.034,0,0,1-11.051-.394s-2.612-32.445-1.617-41.217c0,0,1.249-7.712,1.721-9.086l-36.17-12.356-12.137-24.517Z" transform="translate(-2250.142 -845.852)" fill="#2b2468" fill-rule="evenodd"/>
        <path id="Path_83" data-name="Path 83" d="M2331.4,942.815a34.005,34.005,0,0,1-5.437-.7s-2.612-32.445-1.617-41.217c0,0,1.249-7.712,1.721-9.086l-36.17-12.356-12.137-24.517,1.332.046c17.4,14.307,37.157,28.143,53.963,34.418C2333.051,889.4,2328.692,921.536,2331.4,942.815Z" transform="translate(-2250.142 -845.852)" fill="#221e54" fill-rule="evenodd"/>
        <path id="Path_84" data-name="Path 84" d="M2242.249,876.849l37.307,16.819s-8.1,9.315-12.417,51.7c.79,1.974,4.99,7.316,10.633,6.526,0,0,13.456-48.221,18.448-54.476,4.371-10.406-2.076-15.322-8.45-21.071l-27.157-22.216-1.345-6.34-24.235-9.373C2225.23,849,2222.685,865.577,2242.249,876.849Z" transform="translate(-2227.558 -838.42)" fill="#2b2468" fill-rule="evenodd"/>
        <path id="Path_85" data-name="Path 85" d="M2242.249,876.849l37.307,16.819s-8.1,9.315-12.417,51.7a12.637,12.637,0,0,0,4.294,4.887c1.758-23.537,13.569-58.185,14.015-60.06-7.839-2.984-35.2-14.014-46.346-24.724-7.956-7.641-6.108-17.509-.575-25.7l-3.494-1.352C2225.23,849,2222.685,865.577,2242.249,876.849Z" transform="translate(-2227.558 -838.42)" fill="#221e54" fill-rule="evenodd"/>
      </g>
      <path id="Path_86" data-name="Path 86" d="M2242.223,654.333s9.722-12.245,2.254-15.56c-.806-16.5-42.557-4.836-22.724,29.724,2.215,3.857,7.725,18.485-1.9,18.977C2226.692,697.636,2252.871,686.61,2242.223,654.333Z" transform="translate(-2199.851 -609.84)" fill="#221e54" fill-rule="evenodd"/>
      <path id="Path_87" data-name="Path 87" d="M2324.492,714.564c-1.616-3.17-3.682-5.875-2.317-9.19-1.877-1.5-.256-4.226.98-5.6.542-.726,4.714-2.226,7.78,1.179,2.093,2.109,4.031,4.657.131,12.895-.742,11.543,4.469,20.413-.826,32.956-8.695,2.391-25.452-8.38-29.233-9.109-13.664-3.644-12.324-11.942-7.264-16.939,1.367-1.248,19.918,10.592,29.774,16.553C2322.565,731.829,2324.55,725.867,2324.492,714.564Z" transform="translate(-2233.034 -640.174)" fill="#fdddb6" fill-rule="evenodd"/>
      <path id="Path_88" data-name="Path 88" d="M2281.693,729.813c7.3-4.267,17.323,1.31,21.227,5.291,9.574,9.758,10.136,9.055,14.455,13.676l-9.168,10.594L2285.849,741.9Z" transform="translate(-2229.22 -653.432)" fill="#fb394b" fill-rule="evenodd"/>
      <path id="Path_89" data-name="Path 89" d="M2313.346,758.607l-4.175,4.824-22.359-17.473-2.978-8.66Z" transform="translate(-2230.183 -657.49)" fill="#f20010" fill-rule="evenodd"/>
      <path id="Path_90" data-name="Path 90" d="M2262.995,717.725c3.124,6.394,25.966,24.753,14.028,36.377-4.942,4.813-3.98,15.205-2.623,24.975,0,0,6.659,9.7,2.07,14.671-5.929,3.182-18.765,1.606-25.1,2.181,0,0-13.712,3.164-18.042-2.871-3.881-5.41-.629-6.481.213-14.23,2.1-19.3-4.969-40.815-4.648-51.6,2.134-3.842,12.277-11.805,14.484-10.962Z" transform="translate(-2205.46 -648)" fill="#fb394b" fill-rule="evenodd"/>
      <path id="Path_91" data-name="Path 91" d="M2277.848,798.154a5.894,5.894,0,0,1-1.378,2.557c-5.929,3.182-18.765,1.606-25.1,2.181,0,0-13.712,3.164-18.042-2.871-3.881-5.411-.63-6.481.213-14.23,2.1-19.3-4.969-40.815-4.648-51.6a14.114,14.114,0,0,1,1.941-2.511c6.275,3.95,11.07,6.975,11.07,6.975s-4.446,17.569-2.922,30.907c.492,4.315,1.906,7.465,1.275,12.026C2237.814,799.18,2260,801.5,2277.848,798.154Z" transform="translate(-2205.46 -654.963)" fill="#f20010" fill-rule="evenodd"/>
      <path id="Path_92" data-name="Path 92" d="M2279.271,709.307s-3.665,3.339-1.768,7.364c0,0-2.158,5.165-9.368,3.754-3.851-.816-12.956-8.574-11.943-13.584,0,0,1.677.146,2.234-.871a27.6,27.6,0,0,0,1.716-11.893Z" transform="translate(-2217.712 -638.046)" fill="#fcbe72" fill-rule="evenodd"/>
      <path id="Path_93" data-name="Path 93" d="M2250.195,639.956a6.067,6.067,0,1,1-3.982,7.971A6.312,6.312,0,0,1,2250.195,639.956Z" transform="translate(-2213.094 -613.49)" fill="#f61d2d" fill-rule="evenodd"/>
      <path id="Path_94" data-name="Path 94" d="M2251,641.286c3.829-1.448,7.891-.088,9.072,3.037s-.966,6.831-4.8,8.279-7.891.088-9.071-3.038S2247.17,642.733,2251,641.286Z" transform="translate(-2213.107 -614.034)" fill="#fb394b" fill-rule="evenodd"/>
      <path id="Path_95" data-name="Path 95" d="M2250.024,691.569c1.578-1.577,4.686-1.027,6.944,1.232s2.807,5.367,1.23,6.944-4.687,1.026-6.945-1.232S2248.446,693.146,2250.024,691.569Z" transform="translate(-2214.567 -636.512)" fill="#fdddb6" fill-rule="evenodd"/>
      <path id="Path_96" data-name="Path 96" d="M2279.51,667.558s1.1,7.457.68,11.57c.5,2.993-3.933,9.767-6.44,10.635-1.328.462-5.363.767-13.837-4.319a25.349,25.349,0,0,1-5.348-5.492s-9.679-13.13-7.621-18.553c0,0,3.121-12.581,14.432-13.159,0,0,11.551-2.6,13.976,3.7C2279.9,657.7,2279.895,662.606,2279.51,667.558Z" transform="translate(-2213.457 -617.183)" fill="#fdddb6" fill-rule="evenodd"/>
      <path id="Path_97" data-name="Path 97" d="M2278.018,668.413c-.589-2.438-.665-2.867-1.376-5.879-5.411,3.218-16.824,4.339-22.936-2.82,1.845,5.813-1.274,9.169-3.833,11l2.355,6.2-5.917-8.637c-6.657-8.168-10-20.622,1.21-25.762,13.269-8.1,26.344-1.129,29.312,12.659C2277.836,659.834,2278.729,668.144,2278.018,668.413Z" transform="translate(-2210.548 -613.297)" fill="#2b2468" fill-rule="evenodd"/>
      <path id="Path_98" data-name="Path 98" d="M2209.392,611.112c1.753-6.9,12.868-6.566,8.828-10.4.9-1.825,1.909-6.239-.369-7.58-3.018-1.775-12.722-1.417-15.006,5.294-.8,2.049-1.616,6.671-2.622,10.77-2.233,9.473-15.546,25.059-13.752,39.837,3.047,3.557,16.811,24.6,25.335,33.455,8.887-1.931,10.474-6.856,8.364-10.489-2.9-4.984-10.034-17.839-20.679-27.657C2206.27,632.639,2205.289,620.095,2209.392,611.112Z" transform="translate(-2186.305 -592.219)" fill="#fdddb6" fill-rule="evenodd"/>
      <path id="Path_99" data-name="Path 99" d="M2231.979,729.953c.23-6.713-1.533-12.2-7.535-17.382a76.6,76.6,0,0,0-5.709-7.758c-4.633,3.382-9.954,8.088-13.318,13.227,4.712,6.348,10.458,11.6,12.107,15.5C2222.813,741.528,2231.778,735.825,2231.979,729.953Z" transform="translate(-2194.904 -642.875)" fill="#fb394b" fill-rule="evenodd"/>
      <path id="Path_100" data-name="Path 100" d="M2210.5,717.623a40.98,40.98,0,0,0-5.077,6.18c4.711,6.347,10.458,11.6,12.105,15.5,3.841,5.8,9.624,4.376,12.576.911C2223.229,734.252,2215.51,726.364,2210.5,717.623Z" transform="translate(-2194.905 -648.638)" fill="#f20010" fill-rule="evenodd"/>
      <path id="Path_101" data-name="Path 101" d="M2426.491,603.8h0a1.086,1.086,0,0,0-1.507.278l-15.776,22.924a1.088,1.088,0,0,0,.278,1.507h0a1.087,1.087,0,0,0,1.508-.278l15.775-22.924A1.085,1.085,0,0,0,2426.491,603.8Z" transform="translate(-2286.503 -597.345)" fill="#1a1840" fill-rule="evenodd"/>
      <path id="Path_102" data-name="Path 102" d="M2446.8,638.066h0a1.088,1.088,0,0,0-1.446-.512l-25.123,11.965a1.088,1.088,0,0,0-.512,1.445h0a1.087,1.087,0,0,0,1.445.513l25.123-11.965A1.088,1.088,0,0,0,2446.8,638.066Z" transform="translate(-2291.27 -612.568)" fill="#1a1840" fill-rule="evenodd"/>
      <path id="Path_103" data-name="Path 103" d="M2451.733,679.915h0a1.086,1.086,0,0,0-1-1.166l-27.739-2.2a1.087,1.087,0,0,0-1.167.994h0a1.087,1.087,0,0,0,1,1.166l27.74,2.2A1.087,1.087,0,0,0,2451.733,679.915Z" transform="translate(-2292.267 -630.157)" fill="#1a1840" fill-rule="evenodd"/>
      <g id="Group_10" data-name="Group 10" transform="translate(71.317 26.546)">
        <path id="Path_104" data-name="Path 104" d="M2336.641,704.11a11,11,0,0,0,3.732,3.28,5.3,5.3,0,0,0,2.688-.387l8.383,7.869a7.758,7.758,0,0,0,3.134-4.588c-1.4-2.224-5.931-3.8-7.958-6.381q.059-2.158.115-4.316a5.444,5.444,0,0,0-3.686-.046C2343.064,700.975,2340.515,702.431,2336.641,704.11Z" transform="translate(-2325.258 -666.917)" fill="#bcbbe2" fill-rule="evenodd"/>
        <path id="Path_105" data-name="Path 105" d="M2334.125,705.038a11.007,11.007,0,0,0,3.732,3.28,5.285,5.285,0,0,0,2.688-.387l8.384,7.868a7.75,7.75,0,0,0,3.134-4.588c-1.4-2.224-5.929-3.8-7.956-6.38q.055-2.158.115-4.315a5.45,5.45,0,0,0-3.688-.046C2340.547,701.9,2338,703.361,2334.125,705.038Z" transform="translate(-2324.126 -667.335)" fill="#dcdcf4" fill-rule="evenodd"/>
        <path id="Path_106" data-name="Path 106" d="M2365.555,719.308l-1.384.511c-.207,1.777-2,3.72-3.134,4.588l1.384-.511C2363.3,723.239,2365.234,721.47,2365.555,719.308Z" transform="translate(-2336.234 -675.942)" fill="#9592c5" fill-rule="evenodd"/>
        <path id="Path_107" data-name="Path 107" d="M2319.2,686.563l11.341-4.781,4.829,11.456-11.34,4.78a5.335,5.335,0,0,1-6.97-2.835l-.7-1.651A5.337,5.337,0,0,1,2319.2,686.563Z" transform="translate(-2315.948 -659.059)" fill="#f61d2d" fill-rule="evenodd"/>
        <path id="Path_108" data-name="Path 108" d="M2342.314,677.484c12.232-3.8,19.689-1.634,29.767.783l-14.443-34.26c-5.306,8.9-8.961,15.752-20.222,21.857v0a17.568,17.568,0,0,0,4.9,11.614Z" transform="translate(-2325.607 -642.065)" fill="#e5e5f7" fill-rule="evenodd"/>
        <path id="Path_109" data-name="Path 109" d="M2374.62,640.768c4.234-1.786,11.051,4.794,15.224,14.694s4.126,19.375-.108,21.16-11.052-4.794-15.226-14.694S2370.386,642.554,2374.62,640.768Z" transform="translate(-2340.901 -640.476)" fill="#1a1840" fill-rule="evenodd"/>
        <path id="Path_110" data-name="Path 110" d="M2374.906,641.2c4.109-1.732,10.778,4.788,14.9,14.562s4.131,19.1.023,20.832-10.778-4.788-14.9-14.562S2370.8,642.929,2374.906,641.2Z" transform="translate(-2341.091 -640.675)" fill="#332a7c" fill-rule="evenodd"/>
        <path id="Path_111" data-name="Path 111" d="M2377.241,644.742c3.057-1.288,8.517,4.738,12.193,13.462s4.182,16.839,1.125,18.127-8.516-4.739-12.193-13.461S2374.184,646.031,2377.241,644.742Z" transform="translate(-2342.624 -642.317)" fill="#c7aef9" fill-rule="evenodd"/>
        <path id="Path_112" data-name="Path 112" d="M2381.214,665.633l.012-.006h0c1.121-.451,2.647,1.571,3.823,4.361s1.559,5.3.454,5.782h0s.04-.016-.012.006a1.269,1.269,0,0,1-.324.071l-3.519.857a48.3,48.3,0,0,1-3.819-9.093l3.158-1.84A1.125,1.125,0,0,1,2381.214,665.633Z" transform="translate(-2343.788 -651.763)" fill="#2b2468" fill-rule="evenodd"/>
        <path id="Path_113" data-name="Path 113" d="M2383.818,665.547c.861-.363,2.517,1.614,3.7,4.415s1.44,5.367.579,5.73-2.516-1.614-3.7-4.415S2382.955,665.909,2383.818,665.547Z" transform="translate(-2346.254 -651.736)" fill="#1a1840" fill-rule="evenodd"/>
      </g>
    </g>
    <g id="Group_13" data-name="Group 13" transform="translate(1253.363 423.066)">
      <g id="Group_12" data-name="Group 12">
        <path id="Path_114" data-name="Path 114" d="M1380.039,706.749c1.55.266,2.611.632,3.895-.54l59.9-60.585a9.322,9.322,0,0,0,1.89-4.451l4.421-24.986c.1-3.685-3.115-6.136-5.466-8.461-3.678-3.639-4.219-4.915-8.549-5.656,3.049.744,4.936,3.393,7.075,5.509,2.675,2.647,6.135,5.08,5.459,9.29l-4.324,24.066a8.916,8.916,0,0,1-2.377,4.989l-59.85,60.406a2.926,2.926,0,0,1-2.073.418Zm49.42-80.741c-6.009-.764-7.29-8.216-3.693-11.854,2.41-2.434,5.051-2.473,7.69-1.727a7.031,7.031,0,0,0-2.612,13.817Z" transform="translate(-1343.603 -601.942)" fill="#1369b1" fill-rule="evenodd"/>
        <path id="Path_115" data-name="Path 115" d="M1314.629,672.084l34.165,33.8a2.8,2.8,0,0,0,3.955-.021l59.414-60.047a8.924,8.924,0,0,0,2.377-4.989l4.324-24.066a7.343,7.343,0,0,0-2.47-6.51l-2.9-2.869-3.089-3.056a7.289,7.289,0,0,0-6.229-2.42l-24.993,3.844a8.912,8.912,0,0,0-5.29,2.462l-59.284,59.915a2.806,2.806,0,0,0,.021,3.955ZM1405.91,614a7.03,7.03,0,1,1-9.944.053A7.03,7.03,0,0,1,1405.91,614Z" transform="translate(-1313.804 -601.838)" fill="#3ea5ec" fill-rule="evenodd"/>
        <path id="Path_116" data-name="Path 116" d="M1410.922,666.092l3.764,2.964-37.471,16.15-3.764-2.963,37.471-16.151Zm-27.91-10.775a10.068,10.068,0,0,0-1.962,4.135,7.094,7.094,0,0,0,.448,4.471,10.2,10.2,0,0,0,3.192,3.956,9.01,9.01,0,0,0,6.7,2.218,9.7,9.7,0,0,0,7.936-10.081,9.011,9.011,0,0,0-3.728-5.99,10.2,10.2,0,0,0-4.594-2.174,7.091,7.091,0,0,0-4.451.613,10.03,10.03,0,0,0-3.539,2.853Zm5.017,4.011a7.112,7.112,0,0,1,3.247-2.646,2.034,2.034,0,0,1,1.884.438,1.963,1.963,0,0,1,.843,1.709,9.614,9.614,0,0,1-5.061,6.428,1.948,1.948,0,0,1-1.872-.4,2.014,2.014,0,0,1-.854-1.745,7.135,7.135,0,0,1,1.815-3.783Zm2.78,25.272a10.165,10.165,0,0,0-1.963,4.125,7.172,7.172,0,0,0,.437,4.471,10.266,10.266,0,0,0,3.182,3.957,9.017,9.017,0,0,0,6.724,2.221,9.728,9.728,0,0,0,7.947-10.094,9.027,9.027,0,0,0-3.736-6.016,10.282,10.282,0,0,0-4.593-2.164,7.173,7.173,0,0,0-4.45.625,10.165,10.165,0,0,0-3.548,2.876Zm5.014,4.017a7.2,7.2,0,0,1,3.261-2.664,1.952,1.952,0,0,1,1.879.4,2.026,2.026,0,0,1,.86,1.722,7.31,7.31,0,0,1-1.839,3.813,7.2,7.2,0,0,1-3.266,2.67,2.022,2.022,0,0,1-1.876-.433,1.968,1.968,0,0,1-.85-1.713A7.221,7.221,0,0,1,1395.823,688.617Z" transform="translate(-1340.639 -624.285)" fill="#fff" fill-rule="evenodd"/>
      </g>
      <path id="Path_117" data-name="Path 117" d="M1475.9,622.207a1.462,1.462,0,0,1-1.884-2.236c9.795-8.253,22.367-11.5,34.721-10.286a53.333,53.333,0,0,1,25.791,9.728,51.408,51.408,0,0,1,17.9,22.944l-2.721,1.077a48.484,48.484,0,0,0-16.882-21.647,50.423,50.423,0,0,0-24.378-9.189C1496.848,611.462,1485.06,614.49,1475.9,622.207Z" transform="translate(-1385.651 -605.258)" fill="#2b2468" fill-rule="evenodd"/>
    </g>
    <g id="Group_14" data-name="Group 14" transform="translate(1350.539 273.075)">
      <path id="Path_118" data-name="Path 118" d="M1697.664,567.024c-.772,6.773-11.359,7.89-7.032,11.008-.619,1.848-1,6.165,1.329,7.141,3.092,1.294,12.252-.3,13.552-6.958.5-2.047.671-6.537,1.1-10.555.9-9.274,11.857-26.526,8.248-40.312-3.348-2.982-18.6-19.18-28.1-26.07-8.181,2.98-9.016,6.4-7.529,10.135,1.817,4.569,10.386,16.324,23.534,22.815C1697.846,546.2,1700.4,557.974,1697.664,567.024Z" transform="translate(-1575.115 -406.605)" fill="#fdddb6" fill-rule="evenodd"/>
      <path id="Path_119" data-name="Path 119" d="M1713.548,608.69l-1.3,8.087c.038.314,6.637,3.125,10.49,1.377l2.353-8.8Z" transform="translate(-1590.24 -454.929)" fill="#dcdcf4" fill-rule="evenodd"/>
      <path id="Path_120" data-name="Path 120" d="M1533.917,347.68c-2.849-6.193,5.627-12.635.311-13.059-.428-1.9-2.335-5.794-4.837-5.42-3.315.5-10.323,6.6-7.985,12.974.635,2.009,2.815,5.938,4.532,9.6l13.169,41.205,21.083,35.887,10.463-15.912-8.834-6.673-11.948-18.57C1547.874,374.917,1536.271,356.836,1533.917,347.68Z" transform="translate(-1504.17 -329.176)" fill="#fdddb6" fill-rule="evenodd"/>
      <path id="Path_121" data-name="Path 121" d="M1530.77,379.112l-2.141-8.257s2.547-4.976,10.019-3.943l3.055,8.435Z" transform="translate(-1507.63 -346.09)" fill="#dcdcf4" fill-rule="evenodd"/>
      <path id="Path_122" data-name="Path 122" d="M1597.079,809.67s3.608,6.182,3.158,8.8-3.24,5.192-3.24,5.192-2.39-1.722-4.672,12.069c0,0,1.311,5.733-8.068,9.348,0,0-4.25,3.106-8.315.356,0,0-1.815-1.768-.709-5.531,0,0,4.753-7.069,4.052-15.522A22.928,22.928,0,0,1,1582.6,814.2s.854-4.091,2.089-4.767a36.23,36.23,0,0,1,7.053-.5c.605.174-.762-.149,1.244.03A32.355,32.355,0,0,1,1597.079,809.67Z" transform="translate(-1528.436 -544.997)" fill="#1a1840" fill-rule="evenodd"/>
      <path id="Path_123" data-name="Path 123" d="M1520.306,782.106s1.88,7.9.608,10.037-4.568,3.441-4.568,3.441-1.508-2.3-8.126,8.958c0,0-.781,5.439-10.175,5.446,0,0-4.747,1.283-7.37-2.479,0,0-.99-2.152,1.238-5.063,0,0,6.517-4.571,8.741-12.179a21.427,21.427,0,0,1,6.313-7.772s3.334-1.956,4.457-.817S1520.306,782.106,1520.306,782.106Z" transform="translate(-1490.456 -532.596)" fill="#1a1840" fill-rule="evenodd"/>
      <path id="Path_124" data-name="Path 124" d="M1564.514,623.654l-36.66,16.807c-8.4,3.853-11.152,10.518-10.911,20.232.378,15.143,2.256,34.672.624,49.715,0,0,10.9,3.728,17.7,2.647,0,0,3.531-36.653,2.959-45.766,0,0-.592-6.825-1.008-8.269l34.588-10.339,13.813-24.7Z" transform="translate(-1502.366 -461.662)" fill="#221e54" fill-rule="evenodd"/>
      <path id="Path_125" data-name="Path 125" d="M1631.3,621.4s3.251,22.23-15.44,28.957l-37.2,15.19s10.328,13.563,12.8,55.558c0,0-10.4,6.043-16.191,4.936,0,0-11.4-50.512-16.234-57.234-3.974-10.977,2.942-15.721,9.824-21.329l29.208-21.541,1.717-6.48,28.457-6.047Z" transform="translate(-1520.787 -457.053)" fill="#221e54" fill-rule="evenodd"/>
      <path id="Path_126" data-name="Path 126" d="M1576.752,438.928c-1.211-5.8.571-6.759-10.257-12.678-2.646-4.029-7.476-14.973-12.159-20,.148-10.581-9.705-19-12.942-29.88-3.709-.242-8.689,1.715-11.264,3.548.612,6.763,7.265,23.433,11.048,34.3,3,3.657,15.412,31.02,21.428,37.85C1570.253,456.474,1578.57,447.643,1576.752,438.928Z" transform="translate(-1508.306 -350.401)" fill="#2b2468" fill-rule="evenodd"/>
      <path id="Path_127" data-name="Path 127" d="M1627.366,476.559l18.681,8.429s-8.682,12.236-5.535,20.35l-3.473,26.157,2.5,23.049c-1.98,4.453-44.655,7.618-48.074.459-1.286-4.032,1.256-15.874,4.5-26.5,0,0-8.117-29.45-7.325-33.484,0,0,11.324-14.191,8.169-19.56l5.476.4,3.939-3.8,18.4.019Z" transform="translate(-1534.601 -393.463)" fill="#dcdcf4" fill-rule="evenodd"/>
      <path id="Path_128" data-name="Path 128" d="M1620.281,470.732l18.536.754c-.745,4.767-3.924,7.861-6.927,10.282l-7.872-.058C1621.668,478.816,1619.575,475.475,1620.281,470.732Z" transform="translate(-1548.802 -392.862)" fill="#c5d2e1" fill-rule="evenodd"/>
      <path id="Path_129" data-name="Path 129" d="M1619.83,463.911l-.088,6.885s-1.189,5.264,6.6,5.6c4.178.124,12.25-2.9,12.47-7.716l-.251-13.594Z" transform="translate(-1548.592 -385.825)" fill="#fcbe72" fill-rule="evenodd"/>
      <path id="Path_130" data-name="Path 130" d="M1623.7,489.381l5.454,1.146,5.676-.806-3.056,7.649-5.359-.094Z" transform="translate(-1550.403 -401.252)" fill="#fb394b" fill-rule="evenodd"/>
      <path id="Path_131" data-name="Path 131" d="M1626.063,476.116l16.951,9.045c-4.488,3.848-2.822,16.257.326,24.37l-1.912,22.546,7.1,29.622a102.626,102.626,0,0,1-30.811,3.187l-6.762-28.613s-2.871,19.026-5.66,28.293c-7.324-.348-14.134-2.955-17.287-5.42,2.6-11.2,2.857-17.474,6.1-28.1,0,0-6.52-30.566-5.728-34.6,0,0,10.174-15.843,7.02-21.211l6.625,1.96c-2.5,19.74,3.7,43.426,9.411,51.533C1620.635,518.54,1624.887,495.976,1626.063,476.116Z" transform="translate(-1534.344 -394.888)" fill="#2b2468" fill-rule="evenodd"/>
      <path id="Path_132" data-name="Path 132" d="M1645.185,476.836s.32,24.135-14.673,53.518c0,0,14.262-17.734,22.275-27.271l-5.065-8.42,6.8-4.456Z" transform="translate(-1553.467 -395.608)" fill="#1a1840" fill-rule="evenodd"/>
      <path id="Path_133" data-name="Path 133" d="M1606.854,478.8s-1.167,21.519,9.367,52.437c0,0-10.937-21.018-17.473-31.43l5.828-6.879-5.1-5.429Z" transform="translate(-1539.177 -396.492)" fill="#1a1840" fill-rule="evenodd"/>
      <path id="Path_134" data-name="Path 134" d="M1613.483,475.452s-.057,8.989.891,13.315l10.183-6.348c-4.286-2.378-7.417-5.291-7.52-11.06Z" transform="translate(-1545.806 -393.144)" fill="#f2f2fc" fill-rule="evenodd"/>
      <path id="Path_135" data-name="Path 135" d="M1646.58,474.462s-2.051,12.682-3.675,14.69l-9.293-6.644a24.978,24.978,0,0,0,11.406-10.949Z" transform="translate(-1554.862 -393.234)" fill="#f2f2fc" fill-rule="evenodd"/>
      <path id="Path_136" data-name="Path 136" d="M1675.91,499.931c.993,6.355,1.691,13.878,8.053,18.019,3.438,4.229,12.19,10.077,16.333,12.239-2.113,10.369-3.911,16.855-3.892,28.457,3.377,1.149,9.46,1.825,12.33.5,3.075-10.708,6.343-19.03,5.973-34.347-2.271-4.152-21.269-21.766-26.249-28.661C1681.839,488.535,1674.81,492.885,1675.91,499.931Z" transform="translate(-1573.84 -402.493)" fill="#2b2468" fill-rule="evenodd"/>
      <path id="Path_137" data-name="Path 137" d="M1613.761,420.992s-1,9.29-1.016,13.7c0,0,.125,3.935,6.233,9.588a5.066,5.066,0,0,0,.988.765c1.358.636,4.027,1.695,13.58-2.751a26.981,26.981,0,0,0,6.283-5.228s11.731-12.841,10.153-18.821c0,0-2.915-10.972-14.843-12.848,0,0-13.366-4.389-16.638,2.017C1613.037,413.014,1613.907,415.7,1613.761,420.992Z" transform="translate(-1545.474 -362.808)" fill="#fdddb6" fill-rule="evenodd"/>
      <path id="Path_138" data-name="Path 138" d="M1601.055,402.673s5.1,1.827,8.723.689c0,0-2.459-.842-3.954-4.987,7.895,5.8,22.035-14.233,36.72,3.856a6.5,6.5,0,0,0,.914-3.872c1.315,2.5,2.2,5.114,1.9,7.18l3.605-1.27-2.037,4.308c6.359,6.384-4.279,17.219-8.089,21.321-1.7,3.828-4.572,5.344-6.731,6.672l1.676-4.307c3.425-1.3,8.842-8.674,2.374-7.831a26.362,26.362,0,0,1-3.473,5.576l-.652-.327a14.244,14.244,0,0,0,1.158-4.92c-.523-.477-1.854-3.63.232-7.1C1627.684,418.327,1603,414.487,1601.055,402.673Z" transform="translate(-1540.214 -358.556)" fill="#1a1840" fill-rule="evenodd"/>
      <path id="Path_139" data-name="Path 139" d="M1639.263,555.079l7.657,3.482,2.156-7.283c-11.117-12.448-9.318-37.43-15.083-47.45l-5.359-.095C1634.323,514.687,1629.594,541.38,1639.263,555.079Z" transform="translate(-1552.623 -407.709)" fill="#f61d2d" fill-rule="evenodd"/>
    </g>
    <g id="Group_15" data-name="Group 15" transform="translate(1256.066 204.478)">
      <path id="Path_140" data-name="Path 140" d="M2172.4,466.626l4.372-3.593c7.844.155,4.028,9.9,11.872,10.052l-4.374,3.594C2176.428,476.523,2180.247,466.783,2172.4,466.626Z" transform="translate(-1702.79 -320.802)" fill="#f61d2d" fill-rule="evenodd"/>
      <path id="Path_141" data-name="Path 141" d="M1792.9,574.06l-4.469-4.218c-.4-8.051,11.127-4.852,10.732-12.9l4.469,4.218C1804.023,569.208,1792.5,566.01,1792.9,574.06Z" transform="translate(-1530.034 -363.05)" fill="#0b3961" fill-rule="evenodd"/>
      <path id="Path_142" data-name="Path 142" d="M1486.617,556.5l2.746-3.583c6.208-1.228,5.092,7.1,11.3,5.871l-2.747,3.583C1491.709,563.6,1492.824,555.269,1486.617,556.5Z" transform="translate(-1394.255 -361.184)" fill="#ffa000" fill-rule="evenodd"/>
      <path id="Path_143" data-name="Path 143" d="M1462.9,430.37q1.163-1.92,2.323-3.84c6.032-1.849,5.87,6.543,11.9,4.695q-1.162,1.92-2.323,3.841C1468.766,436.914,1468.928,428.521,1462.9,430.37Z" transform="translate(-1383.583 -304.259)" fill="#0b3961" fill-rule="evenodd"/>
      <path id="Path_144" data-name="Path 144" d="M2199.942,372.244l-2.329-3.838c1.378-5.834,8.965-1.435,10.343-7.27l2.329,3.838C2208.908,370.809,2201.32,366.41,2199.942,372.244Z" transform="translate(-1714.132 -274.959)" fill="#ffa000" fill-rule="evenodd"/>
      <path id="Path_145" data-name="Path 145" d="M1320.7,659.846l-1.978-4.007c1.893-5.7,9.062-.721,10.953-6.425q.991,2,1.979,4.008C1329.757,659.127,1322.588,654.143,1320.7,659.846Z" transform="translate(-1318.717 -404.655)" fill="#ffa000" fill-rule="evenodd"/>
      <path id="Path_146" data-name="Path 146" d="M1947.928,770.195q-.986-2.007-1.971-4.011c1.9-5.7,9.062-.707,10.965-6.41q.986,2.007,1.971,4.011C1956.991,769.487,1949.83,764.493,1947.928,770.195Z" transform="translate(-1600.912 -454.306)" fill="#0b3961" fill-rule="evenodd"/>
      <path id="Path_147" data-name="Path 147" d="M1954.251,414.585l-2.524-3.725c1.074-5.891,8.88-1.845,9.954-7.736l2.524,3.726C1963.131,412.74,1955.325,408.695,1954.251,414.585Z" transform="translate(-1603.508 -293.849)" fill="#0b3961" fill-rule="evenodd"/>
      <path id="Path_148" data-name="Path 148" d="M1707.094,493.479q1.19-1.9,2.383-3.807c6.061-1.764,5.766,6.625,11.826,4.861l-2.382,3.808C1712.86,500.1,1713.155,491.715,1707.094,493.479Z" transform="translate(-1493.448 -332.676)" fill="#3ea5ec" fill-rule="evenodd"/>
      <path id="Path_149" data-name="Path 149" d="M2114.393,643.593l2.077-3.963c5.906-2.182,6.272,6.2,12.177,4.022q-1.038,1.982-2.077,3.963C2120.664,649.8,2120.3,641.411,2114.393,643.593Z" transform="translate(-1676.692 -400.088)" fill="#ffa000" fill-rule="evenodd"/>
      <path id="Path_150" data-name="Path 150" d="M1735.41,346.4l-3.4-4.8c1.232-7.711,11.531-2.633,12.763-10.344q1.7,2.4,3.4,4.8C1746.94,343.764,1736.642,338.685,1735.41,346.4Z" transform="translate(-1504.657 -261.516)" fill="#f61d2d" fill-rule="evenodd"/>
      <path id="Path_151" data-name="Path 151" d="M2347.962,457.512l-3.972-6.65c2.451-10.056,15.494-2.379,17.945-12.435l3.973,6.65C2363.456,455.133,2350.413,447.456,2347.962,457.512Z" transform="translate(-1779.987 -309.732)" fill="#3ea5ec" fill-rule="evenodd"/>
      <path id="Path_152" data-name="Path 152" d="M1359.412,538.386q-1.073-3.541-2.149-7.084c4.693-8.927,15.116,1.038,19.808-7.888q1.075,3.542,2.149,7.084C1374.528,539.423,1364.105,529.46,1359.412,538.386Z" transform="translate(-1336.059 -347.967)" fill="#f61d2d" fill-rule="evenodd"/>
      <path id="Path_153" data-name="Path 153" d="M2019.033,514.411v-4.421c4.269-4.421,8.539,2.947,12.807-1.473v4.42C2027.572,517.358,2023.3,509.991,2019.033,514.411Z" transform="translate(-1633.789 -341.265)" fill="#f61d2d" fill-rule="evenodd"/>
      <path id="Path_154" data-name="Path 154" d="M1879.2,210.372v-4.42c4.269-4.421,8.539,2.946,12.808-1.474v4.42C1887.74,213.318,1883.47,205.952,1879.2,210.372Z" transform="translate(-1570.879 -204.478)" fill="#ffa000" fill-rule="evenodd"/>
      <path id="Path_155" data-name="Path 155" d="M2078.315,276.5l2.273-3.867c6.009-1.917,5.954,6.477,11.962,4.56q-1.137,1.933-2.273,3.867C2084.268,282.98,2084.323,274.587,2078.315,276.5Z" transform="translate(-1660.46 -235.014)" fill="#f61d2d" fill-rule="evenodd"/>
      <path id="Path_156" data-name="Path 156" d="M1719.844,261.494v-4.42c4.269-4.42,8.538,2.947,12.808-1.473v4.42C1728.382,264.442,1724.113,257.074,1719.844,261.494Z" transform="translate(-1499.184 -227.478)" fill="#3ea5ec" fill-rule="evenodd"/>
      <path id="Path_157" data-name="Path 157" d="M1580.919,362.868q-.92-1.626-1.837-3.252c1.305-4.827,7.507-.981,8.811-5.809l1.836,3.252C1588.426,361.886,1582.223,358.041,1580.919,362.868Z" transform="translate(-1435.855 -271.661)" fill="#ff8691" fill-rule="evenodd"/>
      <path id="Path_158" data-name="Path 158" d="M1717.672,717.357v-6.315c6.1-6.315,12.2,4.209,18.3-2.106v6.315C1729.87,721.566,1723.771,711.043,1717.672,717.357Z" transform="translate(-1498.207 -431.434)" fill="#3ea5ec" fill-rule="evenodd"/>
      <path id="Path_159" data-name="Path 159" d="M2285.378,272.087l-4.654-.551c-4.124-4.542,4.167-7.616.043-12.158l4.655.551C2289.545,264.472,2281.254,267.546,2285.378,272.087Z" transform="translate(-1750.99 -229.178)" fill="#ff8691" fill-rule="evenodd"/>
      <path id="Path_160" data-name="Path 160" d="M1352.981,344.474q.721-3.1,1.441-6.19c7.42-4.953,11,6.6,18.416,1.645q-.722,3.094-1.442,6.19C1363.977,351.072,1360.4,339.52,1352.981,344.474Z" transform="translate(-1334.132 -264.109)" fill="#ffa000" fill-rule="evenodd"/>
    </g>
    <g id="Group_16" data-name="Group 16" transform="translate(1798.907 374.472)">
      <path id="Path_161" data-name="Path 161" d="M2316.716,519.984h55.478a2.485,2.485,0,0,1,2.478,2.477V558.8a2.485,2.485,0,0,1-2.478,2.478h-29.937l-20.691,10.672a.422.422,0,0,1-.586-.531L2325,561.277h-8.286a2.484,2.484,0,0,1-2.478-2.478V522.461A2.484,2.484,0,0,1,2316.716,519.984Z" transform="translate(-2309.443 -516.418)" fill="#b7d9f9" fill-rule="evenodd"/>
      <path id="Path_162" data-name="Path 162" d="M2334.682,556.513l-21.3,10.988a.639.639,0,0,1-.887-.8l4.039-10.183h-8.248a2.768,2.768,0,0,1-2.761-2.76v-37.49a2.768,2.768,0,0,1,2.761-2.76h57.236a2.769,2.769,0,0,1,2.761,2.76v37.49a2.769,2.769,0,0,1-2.761,2.76Z" transform="translate(-2305.522 -513.502)" fill="#631aec" fill-rule="evenodd"/>
      <path id="Path_163" data-name="Path 163" d="M2308.451,513.874h57.236a2.563,2.563,0,0,1,2.555,2.556v37.49a2.562,2.562,0,0,1-2.555,2.555H2334.8l-21.348,11.011a.436.436,0,0,1-.6-.548L2317,556.475h-8.549a2.563,2.563,0,0,1-2.556-2.555V516.43A2.563,2.563,0,0,1,2308.451,513.874Z" transform="translate(-2305.69 -513.669)" fill="#fff" fill-rule="evenodd"/>
      <path id="Path_164" data-name="Path 164" d="M2354.428,526.4h3.924l-15.929,29.375H2338.5l15.928-29.375Zm-23.417,7.206a8.269,8.269,0,0,0,.832,3.654,5.808,5.808,0,0,0,2.554,2.649,8.348,8.348,0,0,0,4.057.929,7.378,7.378,0,0,0,5.433-1.966,7.948,7.948,0,0,0,0-10.508,7.38,7.38,0,0,0-5.433-1.965,8.352,8.352,0,0,0-4.057.928,5.807,5.807,0,0,0-2.554,2.65,8.216,8.216,0,0,0-.832,3.628Zm5.261.038a5.834,5.834,0,0,0,.749,3.354,1.645,1.645,0,0,0,1.433.691,1.592,1.592,0,0,0,1.408-.691,7.861,7.861,0,0,0,0-6.7,1.609,1.609,0,0,0-1.408-.672,1.663,1.663,0,0,0-1.433.672,5.822,5.822,0,0,0-.749,3.347Zm14.591,14.854a8.324,8.324,0,0,0,.826,3.648,5.874,5.874,0,0,0,2.547,2.656,8.4,8.4,0,0,0,4.051.935,7.389,7.389,0,0,0,5.453-1.978,7.965,7.965,0,0,0,0-10.521,7.388,7.388,0,0,0-5.453-1.977,8.4,8.4,0,0,0-4.051.934,5.875,5.875,0,0,0-2.547,2.656,8.323,8.323,0,0,0-.826,3.647Zm5.26.045a5.906,5.906,0,0,0,.75,3.373,1.613,1.613,0,0,0,1.414.672,1.659,1.659,0,0,0,1.427-.672,5.907,5.907,0,0,0,.749-3.373,5.994,5.994,0,0,0-.749-3.385,1.658,1.658,0,0,0-1.427-.672,1.6,1.6,0,0,0-1.414.691A5.9,5.9,0,0,0,2356.124,548.542Z" transform="translate(-2316.99 -519.304)" fill="#631aec" fill-rule="evenodd"/>
    </g>
    <g id="Group_18" data-name="Group 18" transform="translate(1585.146 239.615)">
      <path id="Path_169" data-name="Path 169" d="M1929.223,276.869h58.766a2.631,2.631,0,0,1,2.625,2.624v38.493a2.631,2.631,0,0,1-2.625,2.624h-31.711l-21.919,11.306a.447.447,0,0,1-.62-.562L1938,320.61h-8.778a2.63,2.63,0,0,1-2.624-2.624V279.493A2.631,2.631,0,0,1,1929.223,276.869Z" transform="translate(-1921.284 -272.183)" fill="#b7d9f9" fill-rule="evenodd"/>
      <path id="Path_170" data-name="Path 170" d="M1948.04,314.229l-22.724,11.72a.683.683,0,0,1-.947-.859l4.308-10.862h-8.8a2.953,2.953,0,0,1-2.945-2.944v-39.99a2.952,2.952,0,0,1,2.945-2.944h61.052a2.952,2.952,0,0,1,2.944,2.944v39.99a2.953,2.953,0,0,1-2.944,2.944Z" transform="translate(-1916.936 -268.351)" fill="#631aec" fill-rule="evenodd"/>
      <path id="Path_171" data-name="Path 171" d="M1920.458,269.105h60.63a2.716,2.716,0,0,1,2.708,2.708v39.713a2.716,2.716,0,0,1-2.708,2.707H1948.37L1925.757,325.9a.462.462,0,0,1-.64-.58l4.4-11.085h-9.056a2.716,2.716,0,0,1-2.708-2.707V271.813A2.716,2.716,0,0,1,1920.458,269.105Z" transform="translate(-1917.302 -268.69)" fill="#fff" fill-rule="evenodd"/>
      <path id="Path_172" data-name="Path 172" d="M1963.047,310.184l7.558-.02a3.114,3.114,0,0,0,5.212,1.394l.005,0a3.113,3.113,0,0,0-.718-4.939c1.034-4.276,2.083-8.53,3.15-12.8a.622.622,0,0,0,.021-.085l1.576-6.3a.706.706,0,0,0,.021-.139l.857-3.476h4.68a.808.808,0,0,0,0-1.616H1980.1a.808.808,0,0,0-.8.67l-.876,3.558H1953.7a.812.812,0,0,0-.771,1.048l3.149,12.6a.645.645,0,0,0,.021.085l1.045,4.184a.808.808,0,0,0,.783.611h15.921l-.31,1.28a3.114,3.114,0,0,0-2.127.913l-.005.005a3.129,3.129,0,0,0-.809,1.4l-7.534.02a3.1,3.1,0,0,0-.815-1.426l0,0a3.111,3.111,0,0,0-4.4,0l-.006.005a3.114,3.114,0,0,0,0,4.4l.006,0a3.116,3.116,0,0,0,5.2-1.376Zm.931-6.845-.163-2.613h5.135l-.166,2.613Zm-.265-4.228-.3-4.726h5.939l-.3,4.726Zm-.4-6.342-.3-4.726h6.74l-.3,4.726Zm-1.912-4.726.3,4.726h-5.783l-1.181-4.726Zm.4,6.342.3,4.726h-4.6l-1.181-4.726Zm.4,6.342.164,2.613h-3.8l-.654-2.613Zm8.2,2.613.165-2.613h4.3l-.653,2.613Zm.267-4.228.3-4.726h5.483l-1.18,4.726Zm.4-6.342.3-4.726h6.658l-.449,1.824-.726,2.9Zm2.877,15.112.05.012a1.511,1.511,0,0,1,.685,2.524l0,0a1.508,1.508,0,0,1-2.571-1.061h0v-.006a1.5,1.5,0,0,1,.438-1.064l0,0a1.527,1.527,0,0,1,1.244-.428c.06.008.112.015.152.024Zm-14.968.4a1.5,1.5,0,0,1,2.569,1.067v.028h0a1.51,1.51,0,0,1-2.572,1.038l0,0a1.511,1.511,0,0,1,0-2.128Z" transform="translate(-1933.114 -274.581)" fill="#631aec" fill-rule="evenodd"/>
    </g>
    <g id="Group_20" data-name="Group 20" transform="translate(1553.394 589.89)">
      <path id="Path_173" data-name="Path 173" d="M1928.372,1040.74c-7.151,3.306-5.948,18.714,4.227,57.843,0,0,.312.92.854,2.405-.3,1.484-.614,2.9-.93,4.237-1.87,7.909,1.707,10.012,2.7,11.8,1.142,2.055,4.545,3.453,8.286,4.4a10.06,10.06,0,0,0,1.095,1.094l6.492.272c2.931.364,5.077.476,5.077.476l3.132-.131,3.131.131s2.146-.112,5.077-.476l6.492-.272a9.943,9.943,0,0,0,1.095-1.094c3.74-.944,7.143-2.342,8.284-4.4.992-1.784,4.569-3.887,2.7-11.8-.315-1.334-.625-2.753-.93-4.237.543-1.485.855-2.405.855-2.405,6.91-37.851,9.435-59.166,1.183-64.182l-18.1-1.752c-3.935-1.5-8.22-2.395-9.779-1.951-1.56-.443-5.846.451-9.782,1.951Z" transform="translate(-1888.284 -961.555)" fill="#631aec" fill-rule="evenodd"/>
      <path id="Path_174" data-name="Path 174" d="M1989.638,1035.077l-5.388-2.427c-3.935-1.5-8.22-2.395-9.779-1.951-1.56-.443-5.846.451-9.782,1.951l-7.141,2.732c-.126,9.662,7.545,16.382,16.119,15.736C1985.185,1050.252,1989.261,1045.061,1989.638,1035.077Z" transform="translate(-1903.454 -961.555)" fill="#4512b1" fill-rule="evenodd"/>
      <path id="Path_175" data-name="Path 175" d="M1907.55,1150.611c-.177.87.391,2.6,5.228,4.6,3.745,1.548,4.966,1.238,5.871.7,1.036-.611,2.64,1.506,3.147,2.272,1.194,1.806,5.935,1.1,5.935,1.1a7.531,7.531,0,0,0-1.376-6.9c-2.67-3.7-10.767-6.218-10.81-6.283-6.57-10-7.113-13.71-13.357-20.82a61.479,61.479,0,0,0,4.944-11.882l-13.809-7.651c-2.341,4.474-3.249,13.023-5.759,18.052C1891.625,1137.19,1901.531,1141.483,1907.55,1150.611Z" transform="translate(-1871.97 -995.373)" fill="#fdddb6" fill-rule="evenodd"/>
      <path id="Path_176" data-name="Path 176" d="M1911.236,1050.6c-7.837,1.837-13.418,6.021-16.236,23.741-.108.686-6.434,12.357-5.924,12.8,3.421,2.936,11.663,5.234,17.931,5.847a152.46,152.46,0,0,0,5.178-14.69C1914.218,1076.669,1915.763,1052.038,1911.236,1050.6Z" transform="translate(-1872.636 -970.561)" fill="#631aec" fill-rule="evenodd"/>
      <g id="Group_19" data-name="Group 19" transform="translate(26.329 116.055)">
        <path id="Path_177" data-name="Path 177" d="M1911.075,1116.07h82.487c2.157,0,4.278,1.809,3.978,4.078l-5.865,44.362a4.164,4.164,0,0,1-3.978,3.888h-71.9a4.127,4.127,0,0,1-3.98-3.906l-4.724-44.362A3.9,3.9,0,0,1,1911.075,1116.07Z" transform="translate(-1907.077 -1116.07)" fill="#cdd8e5" fill-rule="evenodd"/>
        <path id="Path_178" data-name="Path 178" d="M1911.669,1117.39h82.487a3.135,3.135,0,0,1,3.259,3.257l-5.864,44.362a3.446,3.446,0,0,1-3.26,3.258h-71.9a3.407,3.407,0,0,1-3.259-3.258l-4.724-44.362A3.158,3.158,0,0,1,1911.669,1117.39Z" transform="translate(-1907.67 -1116.664)" fill="#eef1f6" fill-rule="evenodd"/>
      </g>
      <path id="Path_179" data-name="Path 179" d="M2060.935,1241.183s3.9-3.351,6.408-2.75,4.845,3.634,4.845,3.634-1.77,2.4,11.4,5.47c0,0,5.577-1.072,8.619,8.867,0,0,2.79,4.577-.046,8.667,0,0-1.788,1.8-5.358.459,0,0-6.582-5.3-14.751-5a21.019,21.019,0,0,1-9.652-3.966s-2.993-2.845-2.241-4.433S2060.935,1241.183,2060.935,1241.183Z" transform="translate(-1949.565 -1055.034)" fill="#1a1840" fill-rule="evenodd"/>
      <path id="Path_180" data-name="Path 180" d="M1901.222,1244.313s-7.693.328-10.014.851a5.263,5.263,0,0,1-3.3,1.791s-9.286-1.391-15.21,1.866c0,0-7.459,5.189-9.317,7.778,0,0-.646,4.31,2,6.4,7.062,5.571,17.765.683,23.393-1.426,0,0,1.3-1.923,2.146-1.733a17.784,17.784,0,0,1,2.86,1.308s4.266-.774,5.8-1.315,3.408.08,4.679-2.556A11.73,11.73,0,0,0,1901.222,1244.313Z" transform="translate(-1861.059 -1057.711)" fill="#1a1840" fill-rule="evenodd"/>
      <path id="Path_181" data-name="Path 181" d="M1931.971,1207.584s29.364-14.017,47.909-24.546c0,0,34.284-14.631,47.834-8.771,0,0,10.31,2.013,4.216,12.241,0,0-7.666,16.72-35.583,22.16,0,0-38.082,7.807-53.335,14.462l-13.048,4.364s-10.436-8.848-8.035-15.075Z" transform="translate(-1887.269 -1025.575)" fill="#221e54" fill-rule="evenodd"/>
      <path id="Path_182" data-name="Path 182" d="M1931.971,1207.584s29.364-14.017,47.909-24.546c0,0,34.284-14.631,47.834-8.771a10.159,10.159,0,0,1,3.361,1.446,15.174,15.174,0,0,1-1.716,3.91s-7.985,17.418-37.067,23.085c0,0-39.671,8.131-55.56,15.065l-12.053,4.03c-2.147-2.906-3.885-6.438-2.749-9.385Z" transform="translate(-1887.269 -1025.575)" fill="#2b2468" fill-rule="evenodd"/>
      <path id="Path_183" data-name="Path 183" d="M1961.1,1206.231s-29.365-12.816-47.909-23.345c0,0-34.282-14.629-47.833-8.77,0,0-10.311,2.012-4.217,12.241,0,0,7.666,16.891,35.582,22.331,23.964,5.344,49.773,8.994,72.687,16.658,0,0,2.347-7.781,1.732-14.28Z" transform="translate(-1859.215 -1025.507)" fill="#221e54" fill-rule="evenodd"/>
      <path id="Path_184" data-name="Path 184" d="M1961.918,1206.231s-29.365-12.816-47.909-23.345c0,0-34.282-14.629-47.833-8.77a9.063,9.063,0,0,0-5.144,3.171c.222.456.476.932.772,1.426,0,0,7.666,16.891,35.581,22.331,22.869,5.1,51.71,10.8,74.213,17.976a33.629,33.629,0,0,0,.362-7.954Z" transform="translate(-1860.032 -1025.507)" fill="#2b2468" fill-rule="evenodd"/>
      <path id="Path_185" data-name="Path 185" d="M1951.552,996.1c2.244-1.013,5.239.769,6.69,3.981s.8,6.636-1.443,7.649-5.239-.77-6.688-3.981S1949.307,997.114,1951.552,996.1Z" transform="translate(-1899.761 -945.913)" fill="#fcbe72" fill-rule="evenodd"/>
      <path id="Path_186" data-name="Path 186" d="M2015.124,994.863c-2.244-1.013-5.24.769-6.689,3.981s-.8,6.637,1.441,7.649,5.24-.769,6.689-3.98S2017.368,995.876,2015.124,994.863Z" transform="translate(-1926 -945.356)" fill="#fcbe72" fill-rule="evenodd"/>
      <path id="Path_187" data-name="Path 187" d="M1963.342,1023.184s2.622,5.312-1.244,8.962c.378,13.618,26.391,13.865,26.336,0-3.867-3.651-1.245-8.962-1.245-8.962l-11.639-3.586v-.174l-.285.087-.283-.087v.174Z" transform="translate(-1905.502 -956.534)" fill="#fcbe72" fill-rule="evenodd"/>
      <path id="Path_188" data-name="Path 188" d="M1951.8,976.1s1.654,10.809,4.049,15.6c1.324,3.209,10.418,9.876,13.79,9.622,4.544-.342,12.332-4.9,14.279-9.622,2.4-4.8,4.051-15.6,4.051-15.6,2.734-5.827,2.912-8.258,1.4-16.892-.055-8.747-14.534-10.349-14.534-10.349a14.374,14.374,0,0,0-9.893,0s-14.293,1.6-14.347,10.349C1947.723,968.278,1949.067,970.274,1951.8,976.1Z" transform="translate(-1899.605 -924.392)" fill="#fdddb6" fill-rule="evenodd"/>
      <path id="Path_189" data-name="Path 189" d="M1948.62,963.49l.1,12.893-.669-.068s-3.157-9.3-3.388-11.279c-1.753.684-7.677-7.709-.813-11.673-1.063-1.479,2.128-14.41,9.968-10.247-.033-.826,4.958-7.955,10.932-.457.134-.927,5.539-5.586,10.11-.854.566-.569,9.115-1.072,9.08,6.991.688-.6,8.647.076,7.13,8.458a6.277,6.277,0,0,1-3.537,6.284c-1.132,4.391-3.29,12.619-3.319,12.9s-.86-.01-.86-.01l.252-12.29c-2.227,1.5-7.895,2.339-12.019-1.264-.694,1.24-8.691,4.227-12.913-.1C1958,963.845,1952.219,966.98,1948.62,963.49Z" transform="translate(-1895.837 -920.47)" fill="#221e54" fill-rule="evenodd"/>
      <path id="Path_190" data-name="Path 190" d="M2078.583,926.78c2.478-6.889-4.448-19.21,1.61-19.237l1.026,0,1.193-1.682c2.657-3.045,13.978,3.709,12.983,9.448,0,0-.246,3.255-2.678,2.588,0,0,1.161,4.653-3.6,9.393-1.951,9.1,1.817,34.292-8,44.625-3.708,2.117-14.977,17.435-25.814,21.071-7.032-4.393-10.843-12.37-5.595-16.259,5.689-4.217,8.484-12.227,22.014-15.678C2070.81,947.444,2078.239,935.6,2078.583,926.78Z" transform="translate(-1943.813 -905.099)" fill="#fdddb6" fill-rule="evenodd"/>
      <path id="Path_191" data-name="Path 191" d="M2031.351,1033.311c1.465-5.288,3.109-6.106,9.7-8.807,2.662-1.991,7.579-5.026,11.776-7.765a68.425,68.425,0,0,0,11.155,16.988c-5.925,5.242-19.94,17.376-24.053,21.524C2032.042,1050.192,2029.894,1038.567,2031.351,1033.311Z" transform="translate(-1936.468 -955.326)" fill="#631aec" fill-rule="evenodd"/>
    </g>
  </g>
</svg>
