<svg xmlns="http://www.w3.org/2000/svg" width="210.582" height="196.676" viewBox="0 0 210.582 196.676">
  <g id="Group_27171" data-name="Group 27171" transform="translate(-153.182 -562.146)">
    <g id="Group_26747" data-name="Group 26747" transform="matrix(0.998, 0.07, -0.07, 0.998, 166.945, 557.182)">
      <g id="Group_26744" data-name="Group 26744">
        <path id="Path_81219" data-name="Path 81219" d="M107.685,18.451a63.1,63.1,0,1,0,0,89.234A63.17,63.17,0,0,0,107.685,18.451ZM26.6,99.54a51.579,51.579,0,1,1,72.943,0A51.636,51.636,0,0,1,26.6,99.54Z" transform="translate(71.162)" fill="#ff7449"/>
        <g id="Group_26739" data-name="Group 26739" transform="translate(81.82 10.658)">
          <path id="Path_81220" data-name="Path 81220" d="M15.35,15.351a52.41,52.41,0,1,0,74.12,0A52.411,52.411,0,0,0,15.35,15.351Z" fill="#fff" opacity="0.2"/>
          <path id="Path_81221" data-name="Path 81221" d="M13.366,13.366a45.634,45.634,0,1,0,64.537,0A45.634,45.634,0,0,0,13.366,13.366Z" transform="translate(6.777 6.777)" fill="#fff" opacity="0.2"/>
          <g id="Group_26738" data-name="Group 26738" transform="translate(29.587 10.643)">
            <path id="Path_81222" data-name="Path 81222" d="M5.314,5.314a18.142,18.142,0,1,0,25.658,0A18.142,18.142,0,0,0,5.314,5.314Z" fill="#fff" opacity="0.2"/>
            <path id="Path_81223" data-name="Path 81223" d="M2.656,2.657a9.071,9.071,0,1,0,12.828,0A9.073,9.073,0,0,0,2.656,2.657Z" transform="translate(25.138 16.994)" fill="#fff" opacity="0.2"/>
            <path id="Path_81224" data-name="Path 81224" d="M2,2a6.828,6.828,0,1,0,9.657,0A6.827,6.827,0,0,0,2,2Z" transform="translate(6.664 67.1)" fill="#fff" opacity="0.2"/>
          </g>
        </g>
        <path id="Path_81225" data-name="Path 81225" d="M13.36,43.076a7.828,7.828,0,0,1-11.067,0h0a7.828,7.828,0,0,1,0-11.068L32.007,2.292a7.825,7.825,0,0,1,11.067,0h0a7.827,7.827,0,0,1,0,11.067Z" transform="translate(52.217 99.714)" fill="#ff7449"/>
        <g id="Group_26740" data-name="Group 26740" transform="translate(52.97 99.956)" opacity="0.1">
          <path id="Path_81227" data-name="Path 81227" d="M31.255,2.05,1.539,31.766A7.775,7.775,0,0,0,0,33.968l.462.462L34.892,0A7.75,7.75,0,0,0,31.255,2.05Z" fill="#fff"/>
          <path id="Path_81228" data-name="Path 81228" d="M36.746,0,0,36.746l.832.832L37.173,1.236A7.817,7.817,0,0,0,36.746,0Z" transform="translate(7.19 4.412)" fill="#f66f4c"/>
        </g>
        <path id="Path_81229" data-name="Path 81229" d="M45.334,0,17.386,27.947a15.948,15.948,0,0,0-9.957-8.2L2.973,24.2h0l-.681.683A7.826,7.826,0,0,0,13.36,35.953L43.075,6.237A7.809,7.809,0,0,0,45.334,0Z" transform="translate(52.217 106.837)" fill="#f56039"/>
        <path id="Path_81230" data-name="Path 81230" d="M25.692,64.717a15.049,15.049,0,0,1-21.284,0h0a15.051,15.051,0,0,1,0-21.285L43.432,4.407a15.05,15.05,0,0,1,21.284,0h0a15.047,15.047,0,0,1,0,21.284Z" transform="translate(0 128.174)" fill="#ff825c"/>
        <path id="Path_81231" data-name="Path 81231" d="M64.157,0a15.034,15.034,0,0,1-3.548,15.612L21.584,54.634a15.049,15.049,0,0,1-21.284,0c-.107-.107-.2-.223-.3-.331a15.024,15.024,0,0,0,24.833,5.673L63.857,20.951A15.038,15.038,0,0,0,64.157,0Z" transform="translate(0.859 132.914)" fill="#f66f4c"/>
        <g id="Group_26741" data-name="Group 26741" transform="translate(0.002 128.175)">
          <path id="Path_81232" data-name="Path 81232" d="M47.284,0a14.986,14.986,0,0,0-4.962,3.3L3.3,42.322A14.967,14.967,0,0,0,0,47.285Z" transform="translate(1.108 1.108)" fill="#f2724a"/>
          <path id="Path_81233" data-name="Path 81233" d="M51.906.154.155,51.906a15.136,15.136,0,0,0,.592,6.853L58.758.748A15.151,15.151,0,0,0,51.906.154Z" fill="#ff9f83" opacity="0.8"/>
        </g>
        <g id="Group_26742" data-name="Group 26742" transform="translate(12.092 137.471)">
          <path id="Path_81234" data-name="Path 81234" d="M5.608,12.389a3.284,3.284,0,0,1-4.645,0h0a3.283,3.283,0,0,1,0-4.645L7.745.962a3.286,3.286,0,0,1,4.646,0h0a3.285,3.285,0,0,1,0,4.646Z" transform="translate(0 34.716)" fill="#ff9f83" opacity="0.8"/>
          <path id="Path_81235" data-name="Path 81235" d="M5.608,33.876a3.287,3.287,0,0,1-4.646,0h0a3.285,3.285,0,0,1,0-4.647L29.231.963a3.283,3.283,0,0,1,4.645,0h0a3.285,3.285,0,0,1,0,4.646Z" transform="translate(13.23)" fill="#ff9f83" opacity="0.8"/>
        </g>
        <g id="Group_26743" data-name="Group 26743" transform="translate(65.16 103.166)" opacity="0.2">
          <path id="Path_81236" data-name="Path 81236" d="M2.873,6.347a1.683,1.683,0,0,1-2.38,0h0a1.683,1.683,0,0,1,0-2.38L3.968.493a1.682,1.682,0,0,1,2.38,0h0a1.682,1.682,0,0,1,0,2.38Z" transform="translate(0 17.787)" fill="#d93400"/>
          <path id="Path_81237" data-name="Path 81237" d="M2.873,17.356a1.685,1.685,0,0,1-2.38,0h0a1.681,1.681,0,0,1,0-2.38L14.976.493a1.682,1.682,0,0,1,2.38,0h0a1.684,1.684,0,0,1,0,2.38Z" transform="translate(6.779)" fill="#d93400"/>
        </g>
      </g>
      <g id="Group_26745" data-name="Group 26745" transform="translate(74.495 3.305)" opacity="0.2">
        <path id="Path_81238" data-name="Path 81238" d="M59.794,119.544a59.967,59.967,0,0,1-25.165-5.554,1.912,1.912,0,0,1,1.6-3.471,55.822,55.822,0,0,0,53.23-3.354,1.912,1.912,0,0,1,2.032,3.24A59.632,59.632,0,0,1,59.794,119.544Zm35.521-12.234a1.912,1.912,0,0,1-1.177-3.42,56.166,56.166,0,0,0,5.176-4.579,1.912,1.912,0,1,1,2.7,2.706,60.639,60.639,0,0,1-5.527,4.89A1.916,1.916,0,0,1,95.315,107.309ZM7.552,86.635a1.91,1.91,0,0,1-1.727-1.089A59.761,59.761,0,0,1,70.1.892a1.912,1.912,0,1,1-.656,3.766A55.937,55.937,0,0,0,9.276,83.9a1.913,1.913,0,0,1-1.724,2.737Zm93.114-65.892a1.908,1.908,0,0,1-1.352-.56,55.6,55.6,0,0,0-15.807-11.1A1.912,1.912,0,0,1,85.127,5.62a59.369,59.369,0,0,1,16.891,11.859,1.911,1.911,0,0,1-1.351,3.263Z" fill="#fff"/>
      </g>
      <path id="Path_81239" data-name="Path 81239" d="M32.356.353,26.556,9.8l2.9,3.335L19.63,17.347,23.478,21.6,15.61,27.846,0,48.022,16.177,28.206l7.41-7.9L20,16.268,27.965,12.9l-2.358-3.03L31.888,0Z" transform="translate(133.542 20.948)" fill="#f05a12" opacity="0.2" style="mix-blend-mode: multiply;isolation: isolate"/>
      <g id="Group_26746" data-name="Group 26746" transform="translate(84.725 44.09)" style="mix-blend-mode: multiply;isolation: isolate">
        <path id="Path_81240" data-name="Path 81240" d="M24.642,65.126l11.97-7.158V49.826l8.212-1.634L47,41.495l-35.781-28,4.152-7.287L12.608,2.124,5.062,0,0,1.735.311.869H11.223l3.335,2.354,2.123,3.965L9.658,13.5l1.719,2.024L34.651,30.385l.817,5.065,9.355,6.045L43.8,47.048l-8,4.092.816,7.934L25.865,65.766Z" fill="#f05a12" opacity="0.2" style="mix-blend-mode: multiply;isolation: isolate"/>
        <path id="Path_81241" data-name="Path 81241" d="M25.137,27.456,22.5,24.087V18.18l-4.359-3.4L12.7,10.528,4.681,15.836l3.28,6.29-5.781,2.7.87,6.749h.942L2.181,22.959l6.435-.833L7,15.836l5.541-4.484-2.125-5.4L6.164,3.83,2.181,1.707,0,0,11.719,5.627l.85,7.351,7.6,4.248.859,7.6L26.7,26.766Z" transform="translate(44.824 39.788)" fill="#f05a12" opacity="0.2" style="mix-blend-mode: multiply;isolation: isolate"/>
      </g>
    </g>
    <text id="_no_results_found" data-name=" no results
found" transform="translate(293.907 627.656)" fill="#ff6f4a" font-size="15" font-family="BalooPaaji2-SemiBold, 'Baloo Paaji \32 '" font-weight="600" letter-spacing="0.031em" opacity="0.89"><tspan x="-36.945" y="0" xml:space="preserve"> no results</tspan><tspan x="-20.873" y="17">found</tspan></text>
    <text id="Sorry_" data-name="Sorry," transform="translate(196.173 628.167)" fill="#ff6b3d" font-size="20" font-family="BalooPaaji2-SemiBold, 'Baloo Paaji \32 '" font-weight="600" letter-spacing="0.031em" opacity="0.89"><tspan x="-27.43" y="0">Sorry,</tspan></text>
  </g>
</svg>
